{
copyright = "Copyright 2014-2022 Indian Type Foundry. All rights reserved.";
designer = "Jonny Pinhorn (Latin)";
designerURL = "https://www.indiantypefoundry.com/designers";
familyName = Halant;
customParameters = (
{
name = glyphOrder;
value = (
.notdef,
CR,
ITF,
circledotted,
indianrupee,
NULL,
zerowidthspace,
space,
exclam,
quotedbl,
numbersign,
dollar,
percent,
ampersand,
quotesingle,
parenleft,
parenright,
asterisk,
plus,
comma,
hyphen,
period,
slash,
zero,
one,
two,
three,
four,
five,
six,
seven,
eight,
nine,
colon,
semicolon,
less,
equal,
greater,
question,
at,
A,
B,
C,
D,
E,
F,
G,
H,
I,
J,
K,
L,
M,
N,
O,
P,
Q,
R,
S,
T,
U,
V,
W,
X,
Y,
Z,
bracketleft,
backslash,
bracketright,
asciicircum,
underscore,
grave,
a,
b,
c,
d,
e,
f,
g,
h,
i,
j,
k,
l,
m,
n,
o,
p,
q,
r,
s,
t,
u,
v,
w,
x,
y,
z,
braceleft,
bar,
braceright,
asciitilde,
exclamdown,
cent,
sterling,
currency,
yen,
brokenbar,
section,
dieresis,
copyright,
ordfeminine,
guillemotleft,
logicalnot,
softhyphen,
registered,
macron,
degree,
plusminus,
twosuperior,
threesuperior,
acute,
micro,
paragraph,
periodcentered,
cedilla,
onesuperior,
ordmasculine,
guillemotright,
onequarter,
onehalf,
threequarters,
questiondown,
Agrave,
Aacute,
Acircumflex,
circumflex,
Atilde,
tilde,
Adieresis,
Aring,
ring,
AE,
Ccedilla,
Egrave,
Eacute,
Ecircumflex,
Edieresis,
Igrave,
Iacute,
Icircumflex,
Idieresis,
Eth,
Ntilde,
Ograve,
Oacute,
Ocircumflex,
Otilde,
Odieresis,
multiply,
Oslash,
Ugrave,
Uacute,
Ucircumflex,
Udieresis,
Yacute,
Thorn,
germandbls,
agrave,
aacute,
acircumflex,
atilde,
adieresis,
aring,
ae,
ccedilla,
egrave,
eacute,
ecircumflex,
edieresis,
igrave,
dotlessi,
iacute,
icircumflex,
idieresis,
eth,
ntilde,
ograve,
oacute,
ocircumflex,
otilde,
odieresis,
divide,
oslash,
ugrave,
uacute,
ucircumflex,
udieresis,
yacute,
thorn,
ydieresis,
Amacron,
amacron,
Abreve,
breve,
abreve,
Aogonek,
ogonek,
aogonek,
Cacute,
cacute,
Ccaron,
caron,
ccaron,
Dcaron,
dcaron,
commaaccentcomb.alt,
Dcroat,
dcroat,
Emacron,
emacron,
Edotaccent,

glyphs = (
{
glyphname = .notdef;
layers = (
{
layerId = "9482A91E-411F-4CFA-81A1-53DA6722202C";
paths = (
{
closed = 1;
nodes = (
"160 -40 LINE",
"596 -40 LINE",
"596 661 LINE",
"160 661 LINE"
);
},
{
closed = 1;
nodes = (
"241 585 LINE",
"516 585 LINE",
"516 36 LINE",
"241 36 LINE"
);
}
);
width = 756;
},
{
layerId = "2F11256F-FD75-4935-B7A9-D8816F9A9CE0";
paths = (
{
closed = 1;
nodes = (
"180 -50 LINE",
"570 -50 LINE",
"570 651 LINE",
"180 651 LINE"
);
},
{
closed = 1;
nodes = (
"234 601 LINE",
"516 601 LINE",
"516 0 LINE",
"234 0 LINE"
);
}
);
width = 750;
}
);
},
{
glyphname = ITF;
layers = (
{
layerId = "9482A91E-411F-4CFA-81A1-53DA6722202C";
paths = (
{
closed = 1;
nodes = (
"147 -40 LINE",
"343 -40 LINE",
"343 594 LINE",
"147 594 LINE"
);
},
{
closed = 1;
nodes = (
"383 409 LINE",
"579 409 LINE",
"579 594 LINE",
"383 594 LINE"
);
},
{
closed = 1;
nodes = (
"619 -40 LINE",
"815 -40 LINE",
"815 594 LINE",
"619 594 LINE"
);
},
{
closed = 1;
nodes = (
"855 409 LINE",
"1051 409 LINE",
"1051 594 LINE",
"855 594 LINE"
);
},
{
closed = 1;
nodes = (
"1091 -40 LINE",
"1287 -40 LINE",
"1287 594 LINE",
"1091 594 LINE"
);
},
{
closed = 1;
nodes = (
"1327 409 LINE",
"1523 409 LINE",
"1523 594 LINE",
"1327 594 LINE"
);
},
{
closed = 1;
nodes = (
"1327 184 LINE",
"1523 184 LINE",
"1523 369 LINE",
"1327 369 LINE"
);
}
);
width = 1648;
},
{
layerId = "2F11256F-FD75-4935-B7A9-D8816F9A9CE0";
paths = (
{
closed = 1;
nodes = (
"147 -50 LINE",
"343 -50 LINE",
"343 584 LINE",
"147 584 LINE"
);
},
{
closed = 1;
nodes = (
"383 399 LINE",
"579 399 LINE",
"579 584 LINE",
"383 584 LINE"
);
},
{
closed = 1;
nodes = (
"619 -50 LINE",
"815 -50 LINE",
"815 584 LINE",
"619 584 LINE"
);
},
{
closed = 1;
nodes = (
"855 399 LINE",
"1051 399 LINE",
"1051 584 LINE",
"855 584 LINE"
);
},
{
closed = 1;
nodes = (
"1091 -50 LINE",
"1287 -50 LINE",
"1287 584 LINE",
"1091 584 LINE"
);
},
{
closed = 1;
nodes = (
"1327 399 LINE",
"1523 399 LINE",
"1523 584 LINE",
"1327 584 LINE"
);
},
{
closed = 1;
nodes = (
"1327 174 LINE",
"1523 174 LINE",
"1523 359 LINE",
"1327 359 LINE"
);
}
);
width = 1648;
}
);
},
{
glyphname = circledotted;
layers = (
{
layerId = "9482A91E-411F-4CFA-81A1-53DA6722202C";
paths = (
{
closed = 1;
nodes = (
"139 451 OFFCURVE",
"157 432 OFFCURVE",
"183 432 CURVE SMOOTH",
"209 432 OFFCURVE",
"227 451 OFFCURVE",
"227 477 CURVE SMOOTH",
"227 502 OFFCURVE",
"209 521 OFFCURVE",
"183 521 CURVE SMOOTH",
"157 521 OFFCURVE",
"139 502 OFFCURVE",
"139 477 CURVE SMOOTH"
);
},
{
closed = 1;
nodes = (
"57 342 OFFCURVE",
"77 323 OFFCURVE",
"103 323 CURVE SMOOTH",
"127 323 OFFCURVE",
"147 342 OFFCURVE",
"147 367 CURVE SMOOTH",
"147 392 OFFCURVE",
"127 411 OFFCURVE",
"103 411 CURVE SMOOTH",
"77 411 OFFCURVE",
"57 392 OFFCURVE",
"57 367 CURVE SMOOTH"
);
},
{
closed = 1;
nodes = (
"44 216 OFFCURVE",
"63 198 OFFCURVE",
"88 198 CURVE SMOOTH",
"114 198 OFFCURVE",
"132 216 OFFCURVE",
"132 241 CURVE SMOOTH",
"132 267 OFFCURVE",
"114 286 OFFCURVE",
"88 286 CURVE SMOOTH",
"63 286 OFFCURVE",
"44 267 OFFCURVE",
"44 241 CURVE SMOOTH"
);
},
{
closed = 1;
nodes = (
"96 99 OFFCURVE",
"114 81 OFFCURVE",
"140 81 CURVE SMOOTH",
"165 81 OFFCURVE",
"184 99 OFFCURVE",
"184 125 CURVE SMOOTH",
"184 150 OFFCURVE",
"165 169 OFFCURVE",
"140 169 CURVE SMOOTH",
"114 169 OFFCURVE",
"96 150 OFFCURVE",
"96 125 CURVE SMOOTH"
);
},
{
closed = 1;
nodes = (
"197 24 OFFCURVE",
"216 4 OFFCURVE",
"242 4 CURVE SMOOTH",
"267 4 OFFCURVE",
"286 24 OFFCURVE",
"286 50 CURVE SMOOTH",
"286 74 OFFCURVE",
"267 94 OFFCURVE",
"242 94 CURVE SMOOTH",
"216 94 OFFCURVE",
"197 74 OFFCURVE",
"197 50 CURVE SMOOTH"
);
},
{
closed = 1;
nodes = (
"324 8 OFFCURVE",
"342 -10 OFFCURVE",
"368 -10 CURVE SMOOTH",
"394 -10 OFFCURVE",
"413 8 OFFCURVE",
"413 34 CURVE SMOOTH",
"413 60 OFFCURVE",
"394 78 OFFCURVE",
"368 78 CURVE SMOOTH",
"342 78 OFFCURVE",
"324 60 OFFCURVE",
"324 34 CURVE SMOOTH"
);
},
{
closed = 1;
nodes = (
"445 61 OFFCURVE",
"464 43 OFFCURVE",
"489 43 CURVE SMOOTH",
"514 43 OFFCURVE",
"534 61 OFFCURVE",
"534 87 CURVE SMOOTH",
"534 112 OFFCURVE",
"514 131 OFFCURVE",
"489 131 CURVE SMOOTH",
"464 131 OFFCURVE",
"445 112 OFFCURVE",
"445 87 CURVE SMOOTH"
);
},
{
closed = 1;
nodes = (
"518 160 OFFCURVE",
"537 141 OFFCURVE",
"563 141 CURVE SMOOTH",
"587 141 OFFCURVE",
"606 160 OFFCURVE",
"606 185 CURVE SMOOTH",
"606 211 OFFCURVE",
"587 230 OFFCURVE",
"563 230 CURVE SMOOTH",
"537 230 OFFCURVE",
"518 211 OFFCURVE",
"518 185 CURVE SMOOTH"
);
},
{
closed = 1;
nodes = (
"528 293 OFFCURVE",
"546 275 OFFCURVE",
"572 275 CURVE SMOOTH",
"597 275 OFFCURVE",
"616 293 OFFCURVE",
"616 319 CURVE SMOOTH",
"616 345 OFFCURVE",
"597 363 OFFCURVE",
"572 363 CURVE SMOOTH",
"546 363 OFFCURVE",
"528 345 OFFCURVE",
"528 319 CURVE SMOOTH"
);
},
{
closed = 1;
nodes = (
"478 412 OFFCURVE",
"497 393 OFFCURVE",
"522 393 CURVE SMOOTH",
"548 393 OFFCURVE",
"566 412 OFFCURVE",
"566 437 CURVE SMOOTH",
"566 463 OFFCURVE",
"548 482 OFFCURVE",
"522 482 CURVE SMOOTH",
"497 482 OFFCURVE",
"478 463 OFFCURVE",
"478 437 CURVE SMOOTH"
);
},
{
closed = 1;
nodes = (
"383 481 OFFCURVE",
"402 461 OFFCURVE",
"428 461 CURVE SMOOTH",
"453 461 OFFCURVE",
"471 481 OFFCURVE",
"471 505 CURVE SMOOTH",
"471 531 OFFCURVE",
"453 550 OFFCURVE",
"428 550 CURVE SMOOTH",
"402 550 OFFCURVE",
"383 531 OFFCURVE",
"383 505 CURVE SMOOTH"
);
},
{
closed = 1;
nodes = (
"257 494 OFFCURVE",
"275 476 OFFCURVE",
"301 476 CURVE SMOOTH",
"327 476 OFFCURVE",
"345 494 OFFCURVE",
"345 520 CURVE SMOOTH",
"345 546 OFFCURVE",
"327 564 OFFCURVE",
"301 564 CURVE SMOOTH",
"275 564 OFFCURVE",
"257 546 OFFCURVE",
"257 520 CURVE SMOOTH"
);
}
);
width = 660;
},
{
layerId = "2F11256F-FD75-4935-B7A9-D8816F9A9CE0";
paths = (
{
closed = 1;
nodes = (
"139 441 OFFCURVE",
"157 422 OFFCURVE",
"183 422 CURVE SMOOTH",
"209 422 OFFCURVE",
"227 441 OFFCURVE",
"227 467 CURVE SMOOTH",
"227 492 OFFCURVE",
"209 511 OFFCURVE",
"183 511 CURVE SMOOTH",
"157 511 OFFCURVE",
"139 492 OFFCURVE",
"139 467 CURVE SMOOTH"
);
},
{
closed = 1;
nodes = (
"57 332 OFFCURVE",
"77 313 OFFCURVE",
"103 313 CURVE SMOOTH",
"127 313 OFFCURVE",
"147 332 OFFCURVE",
"147 357 CURVE SMOOTH",
"147 382 OFFCURVE",
"127 401 OFFCURVE",
"103 401 CURVE SMOOTH",
"77 401 OFFCURVE",
"57 382 OFFCURVE",
"57 357 CURVE SMOOTH"
);
},
{
closed = 1;
nodes = (
"44 206 OFFCURVE",
"63 188 OFFCURVE",
"88 188 CURVE SMOOTH",
"114 188 OFFCURVE",
"132 206 OFFCURVE",
"132 231 CURVE SMOOTH",
"132 257 OFFCURVE",
"114 276 OFFCURVE",
"88 276 CURVE SMOOTH",
"63 276 OFFCURVE",
"44 257 OFFCURVE",
"44 231 CURVE SMOOTH"
);
},
{
closed = 1;
nodes = (
"96 89 OFFCURVE",
"114 71 OFFCURVE",
"140 71 CURVE SMOOTH",
"165 71 OFFCURVE",
"184 89 OFFCURVE",
"184 115 CURVE SMOOTH",
"184 140 OFFCURVE",
"165 159 OFFCURVE",
"140 159 CURVE SMOOTH",
"114 159 OFFCURVE",
"96 140 OFFCURVE",
"96 115 CURVE SMOOTH"
);
},
{
closed = 1;
nodes = (
"197 14 OFFCURVE",
"216 -6 OFFCURVE",
"242 -6 CURVE SMOOTH",
"267 -6 OFFCURVE",
"286 14 OFFCURVE",
"286 40 CURVE SMOOTH",
"286 64 OFFCURVE",
"267 84 OFFCURVE",
"242 84 CURVE SMOOTH",
"216 84 OFFCURVE",
"197 64 OFFCURVE",
"197 40 CURVE SMOOTH"
);
},
{
closed = 1;
nodes = (
"324 -2 OFFCURVE",
"342 -20 OFFCURVE",
"368 -20 CURVE SMOOTH",
"394 -20 OFFCURVE",
"413 -2 OFFCURVE",
"413 24 CURVE SMOOTH",
"413 50 OFFCURVE",
"394 68 OFFCURVE",
"368 68 CURVE SMOOTH",
"342 68 OFFCURVE",
"324 50 OFFCURVE",
"324 24 CURVE SMOOTH"
);
},
{
closed = 1;
nodes = (
"445 51 OFFCURVE",
"464 33 OFFCURVE",
"489 33 CURVE SMOOTH",
"514 33 OFFCURVE",
"534 51 OFFCURVE",
"534 77 CURVE SMOOTH",
"534 102 OFFCURVE",
"514 121 OFFCURVE",
"489 121 CURVE SMOOTH",
"464 121 OFFCURVE",
"445 102 OFFCURVE",
"445 77 CURVE SMOOTH"
);
},
{
closed = 1;
nodes = (
"518 150 OFFCURVE",
"537 131 OFFCURVE",
"563 131 CURVE SMOOTH",
"587 131 OFFCURVE",
"606 150 OFFCURVE",
"606 175 CURVE SMOOTH",
"606 201 OFFCURVE",
"587 220 OFFCURVE",
"563 220 CURVE SMOOTH",
"537 220 OFFCURVE",
"518 201 OFFCURVE",
"518 175 CURVE SMOOTH"
);
},
{
closed = 1;
nodes = (
"528 283 OFFCURVE",
"546 265 OFFCURVE",
"572 265 CURVE SMOOTH",
"597 265 OFFCURVE",
"616 283 OFFCURVE",
"616 309 CURVE SMOOTH",
"616 335 OFFCURVE",
"597 353 OFFCURVE",
"572 353 CURVE SMOOTH",
"546 353 OFFCURVE",
"528 335 OFFCURVE",
"528 309 CURVE SMOOTH"
);
},
{
closed = 1;
nodes = (
"478 402 OFFCURVE",
"497 383 OFFCURVE",
"522 383 CURVE SMOOTH",
"548 383 OFFCURVE",
"566 402 OFFCURVE",
"566 427 CURVE SMOOTH",
"566 453 OFFCURVE",
"548 472 OFFCURVE",
"522 472 CURVE SMOOTH",
"497 472 OFFCURVE",
"478 453 OFFCURVE",
"478 427 CURVE SMOOTH"
);
},
{
closed = 1;
nodes = (
"383 471 OFFCURVE",
"402 451 OFFCURVE",
"428 451 CURVE SMOOTH",
"453 451 OFFCURVE",
"471 471 OFFCURVE",
"471 495 CURVE SMOOTH",
"471 521 OFFCURVE",
"453 540 OFFCURVE",
"428 540 CURVE SMOOTH",
"402 540 OFFCURVE",
"383 521 OFFCURVE",
"383 495 CURVE SMOOTH"
);
},
{
closed = 1;
nodes = (
"257 484 OFFCURVE",
"275 466 OFFCURVE",
"301 466 CURVE SMOOTH",
"327 466 OFFCURVE",
"345 484 OFFCURVE",
"345 510 CURVE SMOOTH",
"345 536 OFFCURVE",
"327 554 OFFCURVE",
"301 554 CURVE SMOOTH",
"275 554 OFFCURVE",
"257 536 OFFCURVE",
"257 510 CURVE SMOOTH"
);
}
);
width = 660;
}
);
unicode = 25CC;
},
{
glyphname = indianrupee;
layers = (
{
layerId = "9482A91E-411F-4CFA-81A1-53DA6722202C";
paths = (
{
closed = 1;
nodes = (
"537 634 LINE",
"69 634 LINE",
"69 528 LINE",
"291 531 LINE",
"291 454 LINE",
"70 457 LINE",
"70 352 LINE",
"291 355 LINE",
"291 347 LINE SMOOTH",
"291 294 OFFCURVE",
"252 258 OFFCURVE",
"195 258 CURVE SMOOTH",
"166 258 OFFCURVE",
"132 274 OFFCURVE",
"111 295 CURVE",
"59 244 LINE",
"133 132 OFFCURVE",
"229 19 OFFCURVE",
"330 -103 CURVE",
"425 -48 LINE",
"340 39 OFFCURVE",
"278 106 OFFCURVE",
"250 148 CURVE",
"276 151 OFFCURVE",
"302 157 OFFCURVE",
"326 168 CURVE SMOOTH",
"378 192 OFFCURVE",
"418 240 OFFCURVE",
"418 331 CURVE SMOOTH",
"418 355 LINE",
"590 352 LINE",
"541 457 LINE",
"418 454 LINE",
"418 531 LINE",
"590 528 LINE"
);
}
);
width = 578;
},
{
layerId = "2F11256F-FD75-4935-B7A9-D8816F9A9CE0";
paths = (
{
closed = 1;
nodes = (
"467 625 LINE",
"69 625 LINE",
"69 577 LINE",
"291 577 LINE",
"291 441 LINE",
"70 441 LINE",
"70 387 LINE",
"291 387 LINE",
"291 337 LINE SMOOTH",
"291 273 OFFCURVE",
"241 240 OFFCURVE",
"189 240 CURVE SMOOTH",
"160 240 OFFCURVE",
"130 250 OFFCURVE",
"108 272 CURVE",
"69 237 LINE",
"143 125 OFFCURVE",
"236 13 OFFCURVE",
"337 -109 CURVE",
"377 -87 LINE",
"296 4 OFFCURVE",
"174 150 OFFCURVE",
"146 192 CURVE",
"157 190 OFFCURVE",
"169 189 OFFCURVE",
"180 189 CURVE SMOOTH",
"264 189 OFFCURVE",
"348 237 OFFCURVE",
"348 321 CURVE SMOOTH",
"348 387 LINE",
"496 387 LINE",
"467 441 LINE",
"348 441 LINE",
"348 577 LINE",
"496 577 LINE"
);
}
);
width = 509;
}
);
unicode = 20B9;
},
{
glyphname = exclam;
layers = (
{
layerId = "9482A91E-411F-4CFA-81A1-53DA6722202C";
paths = (
{
closed = 1;
nodes = (
"261 -20 OFFCURVE",
"295 14 OFFCURVE",
"295 56 CURVE SMOOTH",
"295 96 OFFCURVE",
"261 131 OFFCURVE",
"219 131 CURVE SMOOTH",
"179 131 OFFCURVE",
"144 96 OFFCURVE",
"144 56 CURVE SMOOTH",
"144 14 OFFCURVE",
"179 -20 OFFCURVE",
"219 -20 CURVE SMOOTH"
);
},
{
closed = 1;
nodes = (
"115 715 LINE",
"161 194 LINE",
"275 194 LINE",
"309 715 LINE"
);
}
);
width = 438;
},
{
layerId = "2F11256F-FD75-4935-B7A9-D8816F9A9CE0";
paths = (
{
closed = 1;
nodes = (
"169 -1 OFFCURVE",
"189 18 OFFCURVE",
"189 43 CURVE SMOOTH",
"189 68 OFFCURVE",
"169 88 OFFCURVE",
"144 88 CURVE SMOOTH",
"119 88 OFFCURVE",
"100 68 OFFCURVE",
"100 43 CURVE SMOOTH",
"100 18 OFFCURVE",
"119 -1 OFFCURVE",
"144 -1 CURVE SMOOTH"
);
},
{
closed = 1;
nodes = (
"115 700 LINE",
"131 147 LINE",
"161 147 LINE",
"169 700 LINE"
);
}
);
width = 289;
}
);
unicode = 0021;
},
{
glyphname = quotedbl;
layers = (
{
layerId = "9482A91E-411F-4CFA-81A1-53DA6722202C";
paths = (
{
closed = 1;
nodes = (
"35 790 LINE",
"67 540 LINE",
"123 540 LINE",
"154 790 LINE"
);
},
{
closed = 1;
nodes = (
"189 790 LINE",
"221 540 LINE",
"277 540 LINE",
"308 790 LINE"
);
}
);
width = 343;
},
{
layerId = "2F11256F-FD75-4935-B7A9-D8816F9A9CE0";
paths = (
{
closed = 1;
nodes = (
"55 746 LINE",
"72 557 LINE",
"91 557 LINE",
"108 746 LINE"
);
},
{
closed = 1;
nodes = (
"147 746 LINE",
"164 557 LINE",
"183 557 LINE",
"200 746 LINE"
);
}
);
width = 255;
}
);
unicode = 0022;
},
{
glyphname = numbersign;
layers = (
{
layerId = "9482A91E-411F-4CFA-81A1-53DA6722202C";
paths = (
{
closed = 1;
nodes = (
"647 411 LINE",
"647 502 LINE",
"67 502 LINE",
"67 411 LINE"
);
},
{
closed = 1;
nodes = (
"612 149 LINE",
"612 241 LINE",
"32 241 LINE",
"32 149 LINE"
);
},
{
closed = 1;
nodes = (
"214 0 LINE",
"344 646 LINE",
"245 646 LINE",
"114 0 LINE"
);
},
{
closed = 1;
nodes = (
"443 0 LINE",
"573 646 LINE",
"474 646 LINE",
"343 0 LINE"
);
}
);
width = 675;
},
{
layerId = "2F11256F-FD75-4935-B7A9-D8816F9A9CE0";
paths = (
{
closed = 1;
nodes = (
"724 444 LINE",
"724 487 LINE",
"127 487 LINE",
"127 444 LINE"
);
},
{
closed = 1;
nodes = (
"665 201 LINE",
"665 244 LINE",
"68 244 LINE",
"68 201 LINE"
);
},
{
closed = 1;
nodes = (
"223 0 LINE",
"354 686 LINE",
"311 686 LINE",
"179 0 LINE"
);
},
{
closed = 1;
nodes = (
"468 0 LINE",
"599 686 LINE",
"556 686 LINE",
"424 0 LINE"
);
}
);
width = 773;
}
);
unicode = 0023;
},
{
glyphname = dollar;
layers = (
{
layerId = "9482A91E-411F-4CFA-81A1-53DA6722202C";
paths = (
{
closed = 1;
nodes = (
"304 739 LINE",
"304 -89 LINE",
"251 -89 LINE",
"251 739 LINE"
);
},
{
closed = 1;
nodes = (
"471 580 OFFCURVE",
"464 510 OFFCURVE",
"457 460 CURVE",
"440 460 OFFCURVE",
"422 461 OFFCURVE",
"405 463 CURVE",
"391 567 OFFCURVE",
"344 594 OFFCURVE",
"291 594 CURVE SMOOTH",
"241 594 OFFCURVE",
"197 569 OFFCURVE",
"197 523 CURVE SMOOTH",
"197 379 OFFCURVE",
"505 406 OFFCURVE",
"505 184 CURVE SMOOTH",
"505 57 OFFCURVE",
"388 -14 OFFCURVE",
"267 -14 CURVE SMOOTH",
"209 -14 OFFCURVE",
"139 0 OFFCURVE",
"66 17 CURVE",
"63 81 OFFCURVE",
"69 174 OFFCURVE",
"74 221 CURVE",
"97 221 OFFCURVE",
"116 219 OFFCURVE",
"141 215 CURVE",
"138 96 OFFCURVE",
"194 60 OFFCURVE",
"272 60 CURVE SMOOTH",
"329 60 OFFCURVE",
"364 86 OFFCURVE",
"364 131 CURVE SMOOTH",
"364 280 OFFCURVE",
"64 252 OFFCURVE",
"64 481 CURVE SMOOTH",
"64 600 OFFCURVE",
"162 664 OFFCURVE",
"292 664 CURVE SMOOTH",
"361 664 OFFCURVE",
"416 651 OFFCURVE",
"471 635 CURVE"
);
}
);
width = 548;
},
{
layerId = "2F11256F-FD75-4935-B7A9-D8816F9A9CE0";
paths = (
{
closed = 1;
nodes = (
"257 685 LINE",
"257 -82 LINE",
"221 -82 LINE",
"221 685 LINE"
);
},
{
closed = 1;
nodes = (
"393 541 OFFCURVE",
"390 509 OFFCURVE",
"384 476 CURVE",
"379 476 OFFCURVE",
"372 476 OFFCURVE",
"369 478 CURVE",
"356 547 OFFCURVE",
"309 579 OFFCURVE",
"235 579 CURVE SMOOTH",
"159 579 OFFCURVE",
"116 538 OFFCURVE",
"116 473 CURVE SMOOTH",
"116 318 OFFCURVE",
"411 348 OFFCURVE",
"411 156 CURVE SMOOTH",
"411 58 OFFCURVE",
"332 -7 OFFCURVE",
"215 -7 CURVE SMOOTH",
"154 -7 OFFCURVE",
"107 7 OFFCURVE",
"56 37 CURVE",
"54 86 OFFCURVE",
"58 131 OFFCURVE",
"64 169 CURVE",
"69 169 OFFCURVE",
"73 169 OFFCURVE",
"79 167 CURVE",
"77 55 OFFCURVE",
"139 22 OFFCURVE",
"224 22 CURVE SMOOTH",
"303 22 OFFCURVE",
"362 74 OFFCURVE",
"362 145 CURVE SMOOTH",
"362 310 OFFCURVE",
"69 282 OFFCURVE",
"69 466 CURVE SMOOTH",
"69 555 OFFCURVE",
"145 610 OFFCURVE",
"242 610 CURVE SMOOTH",
"303 610 OFFCURVE",
"352 596 OFFCURVE",
"394 579 CURVE"
);
}
);
width = 456;
}
);
unicode = 0024;
},
{
glyphname = percent;
layers = (
{
layerId = "9482A91E-411F-4CFA-81A1-53DA6722202C";
paths = (
{
closed = 1;
nodes = (
"391 381 OFFCURVE",
"296 325 OFFCURVE",
"210 325 CURVE SMOOTH",
"124 325 OFFCURVE",
"30 381 OFFCURVE",
"30 493 CURVE SMOOTH",
"30 605 OFFCURVE",
"124 663 OFFCURVE",
"210 663 CURVE SMOOTH",
"296 663 OFFCURVE",
"391 605 OFFCURVE",
"391 493 CURVE SMOOTH"
);
},
{
closed = 1;
nodes = (
"173 415 OFFCURVE",
"175 376 OFFCURVE",
"212 376 CURVE SMOOTH",
"248 376 OFFCURVE",
"250 414 OFFCURVE",
"249 493 CURVE SMOOTH",
"247 575 OFFCURVE",
"245 611 OFFCURVE",
"208 611 CURVE SMOOTH",
"173 611 OFFCURVE",
"170 574 OFFCURVE",
"172 493 CURVE SMOOTH"
);
},
{
closed = 1;
nodes = (
"668 650 LINE",
"231 0 LINE",
"147 0 LINE",
"584 650 LINE"
);
},
{
closed = 1;
nodes = (
"785 42 OFFCURVE",
"710 -14 OFFCURVE",
"604 -14 CURVE SMOOTH",
"498 -14 OFFCURVE",
"424 42 OFFCURVE",
"424 154 CURVE SMOOTH",
"424 265 OFFCURVE",
"498 324 OFFCURVE",
"604 324 CURVE SMOOTH",
"710 324 OFFCURVE",
"785 265 OFFCURVE",
"785 154 CURVE SMOOTH"
);
},
{
closed = 1;
nodes = (
"567 76 OFFCURVE",
"569 37 OFFCURVE",
"606 37 CURVE SMOOTH",
"642 37 OFFCURVE",
"644 75 OFFCURVE",
"643 154 CURVE SMOOTH",
"641 236 OFFCURVE",
"639 272 OFFCURVE",
"602 272 CURVE SMOOTH",
"567 272 OFFCURVE",
"564 235 OFFCURVE",
"566 154 CURVE SMOOTH"
);
}
);
width = 815;
},
{
layerId = "2F11256F-FD75-4935-B7A9-D8816F9A9CE0";
paths = (
{
closed = 1;
nodes = (
"276 366 OFFCURVE",
"227 300 OFFCURVE",
"155 300 CURVE SMOOTH",
"84 300 OFFCURVE",
"35 366 OFFCURVE",
"35 456 CURVE SMOOTH",
"35 546 OFFCURVE",
"84 613 OFFCURVE",
"155 613 CURVE SMOOTH",
"227 613 OFFCURVE",
"276 546 OFFCURVE",
"276 456 CURVE SMOOTH"
);
},
{
closed = 1;
nodes = (
"86 377 OFFCURVE",
"109 326 OFFCURVE",
"158 326 CURVE SMOOTH",
"206 326 OFFCURVE",
"228 378 OFFCURVE",
"227 456 CURVE SMOOTH",
"225 534 OFFCURVE",
"201 587 OFFCURVE",
"153 587 CURVE SMOOTH",
"104 587 OFFCURVE",
"83 534 OFFCURVE",
"84 456 CURVE SMOOTH"
);
},
{
closed = 1;
nodes = (
"508 601 LINE",
"117 0 LINE",
"77 0 LINE",
"468 601 LINE"
);
},
{
closed = 1;
nodes = (
"550 54 OFFCURVE",
"501 -12 OFFCURVE",
"429 -12 CURVE SMOOTH",
"358 -12 OFFCURVE",
"309 54 OFFCURVE",
"309 144 CURVE SMOOTH",
"309 234 OFFCURVE",
"358 301 OFFCURVE",
"429 301 CURVE SMOOTH",
"501 301 OFFCURVE",
"550 234 OFFCURVE",
"550 144 CURVE SMOOTH"
);
},
{
closed = 1;
nodes = (
"360 65 OFFCURVE",
"383 14 OFFCURVE",
"432 14 CURVE SMOOTH",
"480 14 OFFCURVE",
"502 66 OFFCURVE",
"501 144 CURVE SMOOTH",
"499 222 OFFCURVE",
"475 275 OFFCURVE",
"427 275 CURVE SMOOTH",
"378 275 OFFCURVE",
"357 222 OFFCURVE",
"358 144 CURVE SMOOTH"
);
}
);
width = 585;
}
);
unicode = 0025;
},
{
glyphname = ampersand;
layers = (
{
layerId = "9482A91E-411F-4CFA-81A1-53DA6722202C";
paths = (
{
closed = 1;
nodes = (
"137 435 OFFCURVE",
"162 400 OFFCURVE",
"199 353 CURVE SMOOTH",
"474 0 LINE",
"691 0 LINE",
"698 21 OFFCURVE",
"700 39 OFFCURVE",
"699 54 CURVE",
"643 58 OFFCURVE",
"609 78 OFFCURVE",
"571 127 CURVE SMOOTH",
"342 423 LINE SMOOTH",
"314 460 OFFCURVE",
"304 481 OFFCURVE",
"304 517 CURVE SMOOTH",
"304 555 OFFCURVE",
"326 585 OFFCURVE",
"356 585 CURVE SMOOTH",
"386 585 OFFCURVE",
"410 555 OFFCURVE",
"410 508 CURVE SMOOTH",
"410 457 OFFCURVE",
"381 412 OFFCURVE",
"322 387 CURVE",
"344 349 LINE",
"492 395 OFFCURVE",
"568 435 OFFCURVE",
"568 519 CURVE SMOOTH",
"568 593 OFFCURVE",
"506 663 OFFCURVE",
"358 663 CURVE SMOOTH",
"218 663 OFFCURVE",
"137 582 OFFCURVE",
"137 491 CURVE SMOOTH"
);
},
{
closed = 1;
nodes = (
"33 49 OFFCURVE",
"110 -13 OFFCURVE",
"222 -13 CURVE SMOOTH",
"333 -13 OFFCURVE",
"387 34 OFFCURVE",
"475 145 CURVE",
"427 176 LINE",
"376 121 OFFCURVE",
"342 100 OFFCURVE",
"296 100 CURVE SMOOTH",
"235 100 OFFCURVE",
"198 136 OFFCURVE",
"198 194 CURVE SMOOTH",
"198 249 OFFCURVE",
"232 289 OFFCURVE",
"292 306 CURVE",
"272 345 LINE",
"147 325 OFFCURVE",
"33 267 OFFCURVE",
"33 146 CURVE SMOOTH"
);
},
{
closed = 1;
nodes = (
"518 301 OFFCURVE",
"540 297 OFFCURVE",
"567 287 CURVE",
"564 300 LINE",
"463 203 LINE",
"505 166 LINE",
"586 244 LINE SMOOTH",
"628 284 OFFCURVE",
"657 297 OFFCURVE",
"698 302 CURVE",
"703 318 OFFCURVE",
"704 341 OFFCURVE",
"703 359 CURVE",
"495 359 LINE",
"492 342 OFFCURVE",
"490 318 OFFCURVE",
"491 302 CURVE"
);
}
);
width = 734;
},
{
layerId = "2F11256F-FD75-4935-B7A9-D8816F9A9CE0";
paths = (
{
closed = 1;
nodes = (
"160 443 OFFCURVE",
"178 411 OFFCURVE",
"216 365 CURVE SMOOTH",
"517 0 LINE",
"621 0 LINE",
"623 6 OFFCURVE",
"624 15 OFFCURVE",
"624 23 CURVE",
"585 25 OFFCURVE",
"555 33 OFFCURVE",
"520 76 CURVE SMOOTH",
"254 396 LINE SMOOTH",
"222 435 OFFCURVE",
"213 456 OFFCURVE",
"213 490 CURVE SMOOTH",
"213 548 OFFCURVE",
"258 587 OFFCURVE",
"313 587 CURVE SMOOTH",
"368 587 OFFCURVE",
"413 548 OFFCURVE",
"413 490 CURVE SMOOTH",
"413 426 OFFCURVE",
"369 389 OFFCURVE",
"275 354 CURVE",
"297 336 LINE",
"390 368 OFFCURVE",
"466 404 OFFCURVE",
"466 490 CURVE SMOOTH",
"466 564 OFFCURVE",
"388 613 OFFCURVE",
"313 613 CURVE SMOOTH",
"238 613 OFFCURVE",
"160 564 OFFCURVE",
"160 484 CURVE SMOOTH"
);
},
{
closed = 1;
nodes = (
"53 45 OFFCURVE",
"124 -13 OFFCURVE",
"209 -13 CURVE SMOOTH",
"294 -13 OFFCURVE",
"354 30 OFFCURVE",
"439 128 CURVE",
"421 151 LINE",
"345 64 OFFCURVE",
"296 34 OFFCURVE",
"216 34 CURVE SMOOTH",
"146 34 OFFCURVE",
"106 80 OFFCURVE",
"106 140 CURVE SMOOTH",
"106 200 OFFCURVE",
"137 265 OFFCURVE",
"275 326 CURVE",
"255 343 LINE",
"117 296 OFFCURVE",
"53 228 OFFCURVE",
"53 140 CURVE SMOOTH"
);
},
{
closed = 1;
nodes = (
"494 280 OFFCURVE",
"516 275 OFFCURVE",
"545 262 CURVE",
"537 284 LINE",
"428 159 LINE",
"449 139 LINE",
"533 236 LINE SMOOTH",
"555 261 OFFCURVE",
"582 277 OFFCURVE",
"623 282 CURVE",
"624 288 OFFCURVE",
"625 298 OFFCURVE",
"624 305 CURVE",
"469 305 LINE",
"467 299 OFFCURVE",
"466 290 OFFCURVE",
"466 282 CURVE"
);
}
);
width = 640;
}
);
unicode = 0026;
},
{
glyphname = quotesingle;
layers = (
{
layerId = "9482A91E-411F-4CFA-81A1-53DA6722202C";
paths = (
{
closed = 1;
nodes = (
"35 790 LINE",
"67 540 LINE",
"123 540 LINE",
"154 790 LINE"
);
}
);
width = 189;
},
{
layerId = "2F11256F-FD75-4935-B7A9-D8816F9A9CE0";
paths = (
{
closed = 1;
nodes = (
"55 746 LINE",
"72 557 LINE",
"91 557 LINE",
"108 746 LINE"
);
}
);
width = 163;
}
);
unicode = 0027;
},
{
glyphname = parenleft;
layers = (
{
layerId = "9482A91E-411F-4CFA-81A1-53DA6722202C";
paths = (
{
closed = 1;
nodes = (
"455 754 LINE",
"327 640 OFFCURVE",
"271 467 OFFCURVE",
"271 321 CURVE SMOOTH",
"271 175 OFFCURVE",
"327 3 OFFCURVE",
"455 -110 CURVE",
"391 -157 LINE",
"199 -27 OFFCURVE",
"120 148 OFFCURVE",
"120 321 CURVE SMOOTH",
"120 496 OFFCURVE",
"199 671 OFFCURVE",
"391 800 CURVE"
);
}
);
width = 475;
},
{
layerId = "2F11256F-FD75-4935-B7A9-D8816F9A9CE0";
paths = (
{
closed = 1;
nodes = (
"352 775 LINE",
"212 646 OFFCURVE",
"169 494 OFFCURVE",
"169 339 CURVE SMOOTH",
"169 185 OFFCURVE",
"212 15 OFFCURVE",
"352 -113 CURVE",
"324 -136 LINE",
"196 -19 OFFCURVE",
"120 142 OFFCURVE",
"120 339 CURVE SMOOTH",
"120 537 OFFCURVE",
"196 680 OFFCURVE",
"324 797 CURVE"
);
}
);
width = 382;
}
);
unicode = 0028;
},
{
glyphname = parenright;
layers = (
{
layerId = "9482A91E-411F-4CFA-81A1-53DA6722202C";
paths = (
{
closed = 1;
nodes = (
"355 148 OFFCURVE",
"276 -27 OFFCURVE",
"84 -157 CURVE",
"20 -110 LINE",
"148 3 OFFCURVE",
"204 175 OFFCURVE",
"204 321 CURVE SMOOTH",
"204 467 OFFCURVE",
"148 640 OFFCURVE",
"20 754 CURVE",
"84 800 LINE",
"276 671 OFFCURVE",
"355 496 OFFCURVE",
"355 321 CURVE SMOOTH"
);
}
);
width = 475;
},
{
layerId = "2F11256F-FD75-4935-B7A9-D8816F9A9CE0";
paths = (
{
closed = 1;
nodes = (
"262 142 OFFCURVE",
"186 -19 OFFCURVE",
"58 -136 CURVE",
"30 -113 LINE",
"170 15 OFFCURVE",
"213 185 OFFCURVE",
"213 339 CURVE SMOOTH",
"213 494 OFFCURVE",
"170 646 OFFCURVE",
"30 775 CURVE",
"58 797 LINE",
"186 680 OFFCURVE",
"262 537 OFFCURVE",
"262 339 CURVE SMOOTH"
);
}
);
width = 382;
}
);
unicode = 0029;
},
{
glyphname = asterisk;
layers = (
{
layerId = "9482A91E-411F-4CFA-81A1-53DA6722202C";
paths = (
{
closed = 1;
nodes = (
"268 540 LINE",
"385 604 LINE",
"402 582 OFFCURVE",
"418 512 OFFCURVE",
"418 485 CURVE",
"283 478 LINE",
"382 390 LINE",
"367 366 OFFCURVE",
"310 326 OFFCURVE",
"282 320 CURVE",
"235 435 LINE",
"189 322 LINE",
"161 329 OFFCURVE",
"102 369 OFFCURVE",
"89 393 CURVE",
"184 478 LINE",
"52 485 LINE",
"52 515 OFFCURVE",
"67 584 OFFCURVE",
"84 604 CURVE",
"199 542 LINE",
"173 672 LINE",
"197 683 OFFCURVE",
"269 680 OFFCURVE",
"294 672 CURVE"
);
}
);
width = 478;
},
{
layerId = "2F11256F-FD75-4935-B7A9-D8816F9A9CE0";
paths = (
{
closed = 1;
nodes = (
"216 547 LINE",
"320 588 LINE",
"328 581 OFFCURVE",
"336 554 OFFCURVE",
"335 539 CURVE",
"223 519 LINE",
"310 431 LINE",
"306 421 OFFCURVE",
"291 404 OFFCURVE",
"272 396 CURVE",
"200 501 LINE",
"137 393 LINE",
"126 395 OFFCURVE",
"106 406 OFFCURVE",
"94 422 CURVE",
"177 518 LINE",
"60 540 LINE",
"60 556 OFFCURVE",
"67 581 OFFCURVE",
"76 588 CURVE",
"186 548 LINE",
"170 671 LINE",
"179 676 OFFCURVE",
"202 681 OFFCURVE",
"222 676 CURVE"
);
}
);
width = 463;
}
);
unicode = 002A;
},
{
glyphname = plus;
layers = (
{
layerId = "9482A91E-411F-4CFA-81A1-53DA6722202C";
paths = (
{
closed = 1;
nodes = (
"349 583 LINE",
"349 389 LINE",
"558 389 LINE",
"558 294 LINE",
"349 294 LINE",
"349 100 LINE",
"254 100 LINE",
"254 294 LINE",
"45 294 LINE",
"45 389 LINE",
"254 389 LINE",
"254 583 LINE"
);
}
);
width = 603;
},
{
layerId = "2F11256F-FD75-4935-B7A9-D8816F9A9CE0";
paths = (
{
closed = 1;
nodes = (
"295 565 LINE",
"295 355 LINE",
"495 355 LINE",
"495 315 LINE",
"295 315 LINE",
"295 105 LINE",
"255 105 LINE",
"255 315 LINE",
"55 315 LINE",
"55 355 LINE",
"255 355 LINE",
"255 565 LINE"
);
}
);
width = 550;
}
);
unicode = 002B;
},
{
glyphname = comma;
layers = (
{
layerId = "9482A91E-411F-4CFA-81A1-53DA6722202C";
paths = (
{
closed = 1;
nodes = (
"183 -45 OFFCURVE",
"149 -109 OFFCURVE",
"91 -146 CURVE",
"54 -122 LINE",
"83 -98 OFFCURVE",
"97 -74 OFFCURVE",
"97 -39 CURVE SMOOTH",
"97 10 OFFCURVE",
"50 24 OFFCURVE",
"50 69 CURVE SMOOTH",
"50 99 OFFCURVE",
"73 122 OFFCURVE",
"105 122 CURVE SMOOTH",
"145 122 OFFCURVE",
"183 85 OFFCURVE",
"183 20 CURVE SMOOTH"
);
}
);
width = 233;
},
{
layerId = "2F11256F-FD75-4935-B7A9-D8816F9A9CE0";
paths = (
{
closed = 1;
nodes = (
"116 -32 OFFCURVE",
"90 -64 OFFCURVE",
"54 -89 CURVE",
"41 -77 LINE",
"64 -59 OFFCURVE",
"74 -44 OFFCURVE",
"74 -23 CURVE SMOOTH",
"74 7 OFFCURVE",
"40 17 OFFCURVE",
"40 47 CURVE SMOOTH",
"40 66 OFFCURVE",
"54 77 OFFCURVE",
"71 77 CURVE SMOOTH",
"88 77 OFFCURVE",
"116 58 OFFCURVE",
"116 14 CURVE SMOOTH"
);
}
);
width = 156;
}
);
unicode = 002C;
},
{
glyphname = hyphen;
layers = (
{
layerId = "9482A91E-411F-4CFA-81A1-53DA6722202C";
paths = (
{
closed = 1;
nodes = (
"437 260 LINE",
"437 355 LINE",
"55 355 LINE",
"55 260 LINE"
);
}
);
width = 492;
},
{
layerId = "2F11256F-FD75-4935-B7A9-D8816F9A9CE0";
paths = (
{
closed = 1;
nodes = (
"343 287 LINE",
"343 327 LINE",
"45 327 LINE",
"45 287 LINE"
);
}
);
width = 388;
}
);
unicode = 002D;
},
{
glyphname = period;
layers = (
{
layerId = "9482A91E-411F-4CFA-81A1-53DA6722202C";
paths = (
{
closed = 1;
nodes = (
"154 -18 OFFCURVE",
"184 13 OFFCURVE",
"184 49 CURVE SMOOTH",
"184 86 OFFCURVE",
"154 117 OFFCURVE",
"117 117 CURVE SMOOTH",
"80 117 OFFCURVE",
"50 86 OFFCURVE",
"50 49 CURVE SMOOTH",
"50 13 OFFCURVE",
"80 -18 OFFCURVE",
"117 -18 CURVE SMOOTH"
);
}
);
width = 234;
},
{
layerId = "2F11256F-FD75-4935-B7A9-D8816F9A9CE0";
paths = (
{
closed = 1;
nodes = (
"101 -1 OFFCURVE",
"118 16 OFFCURVE",
"118 38 CURVE SMOOTH",
"118 60 OFFCURVE",
"101 77 OFFCURVE",
"78 77 CURVE SMOOTH",
"56 77 OFFCURVE",
"40 60 OFFCURVE",
"40 38 CURVE SMOOTH",
"40 16 OFFCURVE",
"56 -1 OFFCURVE",
"78 -1 CURVE SMOOTH"
);
}
);
width = 158;
}
);
unicode = 002E;
},
{
glyphname = slash;
layers = (
{
layerId = "9482A91E-411F-4CFA-81A1-53DA6722202C";
paths = (
{
closed = 1;
nodes = (
"260 763 LINE",
"40 -107 LINE",
"163 -107 LINE",
"383 763 LINE"
);
}
);
width = 458;
},
{
layerId = "2F11256F-FD75-4935-B7A9-D8816F9A9CE0";
paths = (
{
closed = 1;
nodes = (
"297 675 LINE",
"126 -5 LINE",
"170 -5 LINE",
"342 675 LINE"
);
}
);
width = 469;
}
);
unicode = 002F;
},
{
glyphname = zero;
layers = (
{
anchors = (
{
name = top;
position = "{287, 650}";
}
);
layerId = "9482A91E-411F-4CFA-81A1-53DA6722202C";
paths = (
{
closed = 1;
nodes = (
"533 100 OFFCURVE",
"430 -13 OFFCURVE",
"285 -13 CURVE SMOOTH",
"141 -13 OFFCURVE",
"40 100 OFFCURVE",
"40 323 CURVE SMOOTH",
"40 546 OFFCURVE",
"141 664 OFFCURVE",
"285 664 CURVE SMOOTH",
"430 664 OFFCURVE",
"533 546 OFFCURVE",
"533 323 CURVE SMOOTH"
);
},
{
closed = 1;
nodes = (
"212 147 OFFCURVE",
"215 58 OFFCURVE",
"289 58 CURVE SMOOTH",
"361 58 OFFCURVE",
"365 144 OFFCURVE",
"363 324 CURVE SMOOTH",
"360 511 OFFCURVE",
"356 592 OFFCURVE",
"281 592 CURVE SMOOTH",
"211 592 OFFCURVE",
"206 508 OFFCURVE",
"210 323 CURVE SMOOTH"
);
}
);
width = 573;
},
{
anchors = (
{
name = top;
position = "{316, 601}";
}
);
layerId = "2F11256F-FD75-4935-B7A9-D8816F9A9CE0";
paths = (
{
closed = 1;
nodes = (
"441 120 OFFCURVE",
"380 -12 OFFCURVE",
"245 -12 CURVE SMOOTH",
"110 -12 OFFCURVE",
"50 120 OFFCURVE",
"50 300 CURVE SMOOTH",
"50 480 OFFCURVE",
"110 614 OFFCURVE",
"245 614 CURVE SMOOTH",
"380 614 OFFCURVE",
"441 480 OFFCURVE",
"441 300 CURVE SMOOTH"
);
},
{
closed = 1;
nodes = (
"106 131 OFFCURVE",
"153 22 OFFCURVE",
"250 22 CURVE SMOOTH",
"347 22 OFFCURVE",
"391 132 OFFCURVE",
"388 301 CURVE SMOOTH",
"385 469 OFFCURVE",
"337 580 OFFCURVE",
"240 580 CURVE SMOOTH",
"143 580 OFFCURVE",
"100 469 OFFCURVE",
"103 300 CURVE SMOOTH"
);
}
);
width = 491;
}
);
unicode = 0030;
},
{
glyphname = one;
layers = (
{
layerId = "9482A91E-411F-4CFA-81A1-53DA6722202C";
paths = (
{
closed = 1;
nodes = (
"270 42 LINE",
"266 79 LINE",
"294 66 OFFCURVE",
"326 60 OFFCURVE",
"357 57 CURVE",
"358 40 OFFCURVE",
"356 17 OFFCURVE",
"353 0 CURVE",
"11 0 LINE",
"10 18 OFFCURVE",
"11 40 OFFCURVE",
"17 57 CURVE",
"70 63 OFFCURVE",
"115 73 OFFCURVE",
"115 116 CURVE SMOOTH",
"115 560 LINE",
"162 528 LINE",
"17 504 LINE",
"16 523 OFFCURVE",
"16 534 OFFCURVE",
"21 547 CURVE",
"104 599 OFFCURVE",
"177 640 OFFCURVE",
"238 670 CURVE",
"270 657 LINE"
);
}
);
width = 368;
},
{
layerId = "2F11256F-FD75-4935-B7A9-D8816F9A9CE0";
paths = (
{
closed = 1;
nodes = (
"175 8 LINE",
"147 56 LINE",
"185 35 OFFCURVE",
"212 23 OFFCURVE",
"262 21 CURVE",
"262 14 OFFCURVE",
"261 6 OFFCURVE",
"259 0 CURVE",
"41 0 LINE",
"40 7 OFFCURVE",
"41 16 OFFCURVE",
"44 21 CURVE",
"106 27 OFFCURVE",
"127 36 OFFCURVE",
"127 66 CURVE SMOOTH",
"127 560 LINE",
"148 548 LINE",
"42 535 LINE",
"42 539 OFFCURVE",
"42 545 OFFCURVE",
"43 548 CURVE",
"83 570 OFFCURVE",
"119 591 OFFCURVE",
"163 611 CURVE",
"175 606 LINE"
);
}
);
width = 302;
}
);
unicode = 0031;
},
{
glyphname = two;
layers = (
{
layerId = "9482A91E-411F-4CFA-81A1-53DA6722202C";
paths = (
{
closed = 1;
nodes = (
"75 556 OFFCURVE",
"75 484 OFFCURVE",
"77 436 CURVE",
"88 435 OFFCURVE",
"114 434 OFFCURVE",
"126 435 CURVE",
"138 502 OFFCURVE",
"171 532 OFFCURVE",
"216 532 CURVE SMOOTH",
"261 532 OFFCURVE",
"294 498 OFFCURVE",
"294 441 CURVE SMOOTH",
"294 360 OFFCURVE",
"233 290 OFFCURVE",
"50 103 CURVE",
"50 85 OFFCURVE",
"54 41 OFFCURVE",
"61 0 CURVE",
"443 0 LINE",
"466 67 OFFCURVE",
"471 141 OFFCURVE",
"471 202 CURVE",
"460 207 OFFCURVE",
"448 210 OFFCURVE",
"437 210 CURVE",
"423 139 OFFCURVE",
"400 121 OFFCURVE",
"352 121 CURVE SMOOTH",
"115 121 LINE",
"120 85 LINE",
"356 297 OFFCURVE",
"459 361 OFFCURVE",
"459 479 CURVE SMOOTH",
"459 580 OFFCURVE",
"388 663 OFFCURVE",
"267 663 CURVE SMOOTH",
"196 663 OFFCURVE",
"131 641 OFFCURVE",
"81 603 CURVE"
);
}
);
width = 510;
},
{
layerId = "2F11256F-FD75-4935-B7A9-D8816F9A9CE0";
paths = (
{
closed = 1;
nodes = (
"62 540 OFFCURVE",
"61 503 OFFCURVE",
"61 472 CURVE",
"66 470 OFFCURVE",
"72 470 OFFCURVE",
"77 470 CURVE",
"96 536 OFFCURVE",
"144 564 OFFCURVE",
"201 564 CURVE SMOOTH",
"262 564 OFFCURVE",
"311 519 OFFCURVE",
"311 450 CURVE SMOOTH",
"311 383 OFFCURVE",
"289 325 OFFCURVE",
"30 38 CURVE",
"30 26 OFFCURVE",
"33 12 OFFCURVE",
"37 0 CURVE",
"365 0 LINE",
"372 43 OFFCURVE",
"376 100 OFFCURVE",
"376 141 CURVE",
"370 144 OFFCURVE",
"364 145 OFFCURVE",
"359 145 CURVE",
"348 72 OFFCURVE",
"326 45 OFFCURVE",
"254 45 CURVE SMOOTH",
"59 45 LINE",
"61 28 LINE",
"310 300 OFFCURVE",
"368 347 OFFCURVE",
"368 452 CURVE SMOOTH",
"368 544 OFFCURVE",
"297 613 OFFCURVE",
"209 613 CURVE SMOOTH",
"155 613 OFFCURVE",
"107 595 OFFCURVE",
"66 570 CURVE"
);
}
);
width = 436;
}
);
unicode = 0032;
},
{
glyphname = three;
layers = (
{
layerId = "9482A91E-411F-4CFA-81A1-53DA6722202C";
paths = (
{
closed = 1;
nodes = (
"439 443 OFFCURVE",
"385 374 OFFCURVE",
"284 332 CURVE",
"284 360 LINE",
"392 332 OFFCURVE",
"447 269 OFFCURVE",
"447 183 CURVE SMOOTH",
"447 75 OFFCURVE",
"351 -13 OFFCURVE",
"216 -13 CURVE SMOOTH",
"142 -13 OFFCURVE",
"84 21 OFFCURVE",
"33 64 CURVE",
"44 93 OFFCURVE",
"56 111 OFFCURVE",
"73 122 CURVE",
"106 99 OFFCURVE",
"147 84 OFFCURVE",
"198 84 CURVE SMOOTH",
"258 84 OFFCURVE",
"296 122 OFFCURVE",
"296 170 CURVE SMOOTH",
"296 239 OFFCURVE",
"248 278 OFFCURVE",
"166 278 CURVE",
"166 340 LINE",
"241 353 OFFCURVE",
"274 401 OFFCURVE",
"274 462 CURVE SMOOTH",
"274 514 OFFCURVE",
"244 552 OFFCURVE",
"201 552 CURVE SMOOTH",
"159 552 OFFCURVE",
"119 523 OFFCURVE",
"106 465 CURVE",
"94 464 OFFCURVE",
"68 465 OFFCURVE",
"57 466 CURVE",
"55 514 OFFCURVE",
"55 560 OFFCURVE",
"61 607 CURVE",
"114 640 OFFCURVE",
"174 663 OFFCURVE",
"257 663 CURVE SMOOTH",
"358 663 OFFCURVE",
"439 595 OFFCURVE",
"439 510 CURVE SMOOTH"
);
}
);
width = 484;
},
{
layerId = "2F11256F-FD75-4935-B7A9-D8816F9A9CE0";
paths = (
{
closed = 1;
nodes = (
"362 390 OFFCURVE",
"290 318 OFFCURVE",
"206 306 CURVE",
"206 314 LINE",
"331 297 OFFCURVE",
"384 231 OFFCURVE",
"384 145 CURVE SMOOTH",
"384 47 OFFCURVE",
"295 -13 OFFCURVE",
"197 -13 CURVE SMOOTH",
"133 -13 OFFCURVE",
"89 6 OFFCURVE",
"40 47 CURVE",
"43 56 OFFCURVE",
"48 64 OFFCURVE",
"54 68 CURVE",
"87 42 OFFCURVE",
"128 26 OFFCURVE",
"179 26 CURVE SMOOTH",
"269 26 OFFCURVE",
"330 71 OFFCURVE",
"330 152 CURVE SMOOTH",
"330 242 OFFCURVE",
"267 287 OFFCURVE",
"153 297 CURVE",
"153 322 LINE",
"242 322 OFFCURVE",
"308 385 OFFCURVE",
"308 461 CURVE SMOOTH",
"308 528 OFFCURVE",
"262 569 OFFCURVE",
"206 569 CURVE SMOOTH",
"145 569 OFFCURVE",
"104 540 OFFCURVE",
"84 470 CURVE",
"79 470 OFFCURVE",
"73 470 OFFCURVE",
"68 472 CURVE",
"68 503 OFFCURVE",
"69 543 OFFCURVE",
"73 573 CURVE",
"117 598 OFFCURVE",
"162 614 OFFCURVE",
"217 614 CURVE SMOOTH",
"298 614 OFFCURVE",
"362 558 OFFCURVE",
"362 473 CURVE SMOOTH"
);
}
);
width = 444;
}
);
unicode = 0033;
},
{
glyphname = four;
layers = (
{
layerId = "9482A91E-411F-4CFA-81A1-53DA6722202C";
paths = (
{
closed = 1;
nodes = (
"303 468 LINE",
"99 197 LINE",
"81 235 LINE",
"277 235 LINE",
"277 477 LINE"
);
},
{
closed = 1;
nodes = (
"411 235 LINE",
"500 235 LINE",
"508 198 OFFCURVE",
"508 179 OFFCURVE",
"504 155 CURVE",
"411 155 LINE",
"411 42 LINE",
"407 69 LINE",
"424 59 OFFCURVE",
"453 56 OFFCURVE",
"472 56 CURVE",
"473 40 OFFCURVE",
"471 16 OFFCURVE",
"468 0 CURVE",
"209 0 LINE",
"208 17 OFFCURVE",
"209 40 OFFCURVE",
"214 56 CURVE",
"252 62 OFFCURVE",
"277 72 OFFCURVE",
"277 116 CURVE SMOOTH",
"277 155 LINE",
"53 155 LINE",
"38 177 OFFCURVE",
"28 197 OFFCURVE",
"23 221 CURVE",
"332 650 LINE",
"411 650 LINE"
);
}
);
width = 528;
},
{
layerId = "2F11256F-FD75-4935-B7A9-D8816F9A9CE0";
paths = (
{
closed = 1;
nodes = (
"310 540 LINE",
"65 192 LINE",
"59 206 LINE",
"291 206 LINE",
"291 541 LINE"
);
},
{
closed = 1;
nodes = (
"340 206 LINE",
"429 206 LINE",
"433 194 OFFCURVE",
"435 187 OFFCURVE",
"433 171 CURVE",
"340 171 LINE",
"340 18 LINE",
"312 51 LINE",
"350 30 OFFCURVE",
"373 23 OFFCURVE",
"407 21 CURVE",
"407 14 OFFCURVE",
"406 6 OFFCURVE",
"404 0 CURVE",
"226 0 LINE",
"225 7 OFFCURVE",
"226 16 OFFCURVE",
"228 21 CURVE",
"276 27 OFFCURVE",
"291 36 OFFCURVE",
"291 66 CURVE",
"291 171 LINE",
"49 171 LINE",
"41 179 OFFCURVE",
"34 190 OFFCURVE",
"30 203 CURVE",
"312 610 LINE",
"340 610 LINE"
);
}
);
width = 464;
}
);
unicode = 0034;
},
{
glyphname = five;
layers = (
{
layerId = "9482A91E-411F-4CFA-81A1-53DA6722202C";
paths = (
{
closed = 1;
nodes = (
"223 410 OFFCURVE",
"195 401 OFFCURVE",
"157 384 CURVE",
"171 519 LINE",
"403 519 LINE",
"422 583 OFFCURVE",
"430 631 OFFCURVE",
"431 682 CURVE",
"420 687 OFFCURVE",
"408 690 OFFCURVE",
"397 690 CURVE",
"384 659 OFFCURVE",
"360 640 OFFCURVE",
"312 640 CURVE SMOOTH",
"104 640 LINE",
"69 290 LINE",
"90 280 LINE",
"129 303 OFFCURVE",
"156 316 OFFCURVE",
"196 316 CURVE SMOOTH",
"250 316 OFFCURVE",
"293 274 OFFCURVE",
"293 204 CURVE SMOOTH",
"293 127 OFFCURVE",
"245 84 OFFCURVE",
"185 84 CURVE SMOOTH",
"134 84 OFFCURVE",
"93 99 OFFCURVE",
"60 122 CURVE",
"44 109 OFFCURVE",
"32 91 OFFCURVE",
"20 64 CURVE",
"66 20 OFFCURVE",
"129 -13 OFFCURVE",
"203 -13 CURVE SMOOTH",
"338 -13 OFFCURVE",
"445 82 OFFCURVE",
"445 225 CURVE SMOOTH",
"445 344 OFFCURVE",
"364 410 OFFCURVE",
"272 410 CURVE SMOOTH"
);
}
);
width = 485;
},
{
layerId = "2F11256F-FD75-4935-B7A9-D8816F9A9CE0";
paths = (
{
closed = 1;
nodes = (
"208 384 OFFCURVE",
"160 364 OFFCURVE",
"118 325 CURVE",
"144 545 LINE",
"387 545 LINE",
"396 569 OFFCURVE",
"403 598 OFFCURVE",
"407 626 CURVE",
"401 628 OFFCURVE",
"394 628 OFFCURVE",
"389 628 CURVE",
"380 607 OFFCURVE",
"360 591 OFFCURVE",
"305 591 CURVE SMOOTH",
"111 591 LINE",
"81 289 LINE",
"98 281 LINE",
"145 316 OFFCURVE",
"196 341 OFFCURVE",
"244 341 CURVE SMOOTH",
"316 341 OFFCURVE",
"367 292 OFFCURVE",
"367 203 CURVE SMOOTH",
"367 105 OFFCURVE",
"297 27 OFFCURVE",
"195 27 CURVE SMOOTH",
"139 27 OFFCURVE",
"105 40 OFFCURVE",
"65 70 CURVE",
"57 63 OFFCURVE",
"52 55 OFFCURVE",
"50 47 CURVE",
"95 9 OFFCURVE",
"144 -12 OFFCURVE",
"203 -12 CURVE SMOOTH",
"327 -12 OFFCURVE",
"421 101 OFFCURVE",
"421 209 CURVE SMOOTH",
"421 326 OFFCURVE",
"329 384 OFFCURVE",
"255 384 CURVE SMOOTH"
);
}
);
width = 481;
}
);
unicode = 0035;
},
{
glyphname = six;
layers = (
{
layerId = "9482A91E-411F-4CFA-81A1-53DA6722202C";
paths = (
{
closed = 1;
nodes = (
"508 94 OFFCURVE",
"392 -13 OFFCURVE",
"266 -13 CURVE SMOOTH",
"155 -13 OFFCURVE",
"57 76 OFFCURVE",
"47 218 CURVE SMOOTH",
"32 426 OFFCURVE",
"193 606 OFFCURVE",
"371 675 CURVE",
"410 652 OFFCURVE",
"418 633 OFFCURVE",
"417 617 CURVE",
"247 542 OFFCURVE",
"184 358 OFFCURVE",
"195 206 CURVE SMOOTH",
"201 116 OFFCURVE",
"233 67 OFFCURVE",
"273 67 CURVE SMOOTH",
"313 67 OFFCURVE",
"358 118 OFFCURVE",
"352 204 CURVE SMOOTH",
"347 274 OFFCURVE",
"301 316 OFFCURVE",
"247 316 CURVE SMOOTH",
"207 316 OFFCURVE",
"181 303 OFFCURVE",
"144 280 CURVE",
"180 361 LINE",
"216 385 OFFCURVE",
"268 401 OFFCURVE",
"317 401 CURVE SMOOTH",
"409 401 OFFCURVE",
"490 344 OFFCURVE",
"497 240 CURVE SMOOTH"
);
}
);
width = 523;
},
{
layerId = "2F11256F-FD75-4935-B7A9-D8816F9A9CE0";
paths = (
{
closed = 1;
nodes = (
"410 74 OFFCURVE",
"311 -11 OFFCURVE",
"227 -11 CURVE SMOOTH",
"126 -11 OFFCURVE",
"60 73 OFFCURVE",
"60 220 CURVE SMOOTH",
"60 360 OFFCURVE",
"131 515 OFFCURVE",
"330 608 CURVE",
"342 599 OFFCURVE",
"345 592 OFFCURVE",
"346 585 CURVE",
"186 500 OFFCURVE",
"114 360 OFFCURVE",
"114 208 CURVE SMOOTH",
"114 110 OFFCURVE",
"155 27 OFFCURVE",
"226 27 CURVE SMOOTH",
"305 27 OFFCURVE",
"359 82 OFFCURVE",
"359 194 CURVE SMOOTH",
"359 274 OFFCURVE",
"311 333 OFFCURVE",
"247 333 CURVE SMOOTH",
"200 333 OFFCURVE",
"149 309 OFFCURVE",
"105 245 CURVE",
"112 286 LINE",
"147 341 OFFCURVE",
"205 376 OFFCURVE",
"256 376 CURVE SMOOTH",
"345 376 OFFCURVE",
"410 301 OFFCURVE",
"410 196 CURVE SMOOTH"
);
}
);
width = 460;
}
);
unicode = 0036;
},
{
glyphname = seven;
layers = (
{
layerId = "9482A91E-411F-4CFA-81A1-53DA6722202C";
paths = (
{
closed = 1;
nodes = (
"404 640 LINE",
"421 611 OFFCURVE",
"432 579 OFFCURVE",
"436 544 CURVE",
"224 0 LINE",
"176 -7 OFFCURVE",
"143 1 OFFCURVE",
"115 8 CURVE",
"282 413 LINE",
"342 533 LINE",
"361 519 LINE",
"164 519 LINE SMOOTH",
"118 519 OFFCURVE",
"94 501 OFFCURVE",
"80 430 CURVE",
"68 430 OFFCURVE",
"54 432 OFFCURVE",
"42 439 CURVE",
"42 486 OFFCURVE",
"44 589 OFFCURVE",
"51 640 CURVE"
);
}
);
width = 451;
},
{
layerId = "2F11256F-FD75-4935-B7A9-D8816F9A9CE0";
paths = (
{
closed = 1;
nodes = (
"367 601 LINE",
"376 591 OFFCURVE",
"383 579 OFFCURVE",
"386 566 CURVE",
"150 0 LINE",
"138 -2 OFFCURVE",
"114 1 OFFCURVE",
"102 6 CURVE",
"301 452 LINE",
"359 569 LINE",
"362 555 LINE",
"142 555 LINE SMOOTH",
"71 555 OFFCURVE",
"53 545 OFFCURVE",
"45 491 CURVE",
"41 491 OFFCURVE",
"35 492 OFFCURVE",
"29 495 CURVE",
"29 533 OFFCURVE",
"33 568 OFFCURVE",
"40 601 CURVE"
);
}
);
width = 401;
}
);
unicode = 0037;
},
{
glyphname = eight;
layers = (
{
layerId = "9482A91E-411F-4CFA-81A1-53DA6722202C";
paths = (
{
closed = 1;
nodes = (
"497 592 OFFCURVE",
"410 663 OFFCURVE",
"288 663 CURVE SMOOTH",
"152 663 OFFCURVE",
"49 590 OFFCURVE",
"49 482 CURVE SMOOTH",
"49 395 OFFCURVE",
"172 332 OFFCURVE",
"252 294 CURVE SMOOTH",
"314 263 OFFCURVE",
"357 219 OFFCURVE",
"357 156 CURVE SMOOTH",
"357 102 OFFCURVE",
"325 62 OFFCURVE",
"264 62 CURVE SMOOTH",
"218 62 OFFCURVE",
"184 98 OFFCURVE",
"184 144 CURVE SMOOTH",
"184 207 OFFCURVE",
"208 259 OFFCURVE",
"296 304 CURVE SMOOTH",
"418 366 OFFCURVE",
"497 412 OFFCURVE",
"497 498 CURVE SMOOTH"
);
},
{
closed = 1;
nodes = (
"201 555 OFFCURVE",
"224 588 OFFCURVE",
"274 588 CURVE SMOOTH",
"341 588 OFFCURVE",
"354 532 OFFCURVE",
"354 496 CURVE SMOOTH",
"354 436 OFFCURVE",
"293 380 OFFCURVE",
"246 354 CURVE SMOOTH",
"162 307 OFFCURVE",
"40 254 OFFCURVE",
"40 154 CURVE SMOOTH",
"40 68 OFFCURVE",
"133 -13 OFFCURVE",
"270 -13 CURVE SMOOTH",
"410 -13 OFFCURVE",
"506 77 OFFCURVE",
"506 167 CURVE SMOOTH",
"506 275 OFFCURVE",
"404 335 OFFCURVE",
"321 379 CURVE",
"264 407 OFFCURVE",
"201 446 OFFCURVE",
"201 512 CURVE SMOOTH"
);
}
);
width = 546;
},
{
layerId = "2F11256F-FD75-4935-B7A9-D8816F9A9CE0";
paths = (
{
closed = 1;
nodes = (
"436 547 OFFCURVE",
"375 612 OFFCURVE",
"278 612 CURVE SMOOTH",
"191 612 OFFCURVE",
"84 554 OFFCURVE",
"84 460 CURVE SMOOTH",
"84 387 OFFCURVE",
"160 329 OFFCURVE",
"229 302 CURVE SMOOTH",
"302 273 OFFCURVE",
"406 240 OFFCURVE",
"406 144 CURVE SMOOTH",
"406 72 OFFCURVE",
"354 24 OFFCURVE",
"252 24 CURVE SMOOTH",
"196 24 OFFCURVE",
"123 52 OFFCURVE",
"123 138 CURVE SMOOTH",
"123 199 OFFCURVE",
"171 237 OFFCURVE",
"269 299 CURVE",
"361 352 OFFCURVE",
"436 393 OFFCURVE",
"436 472 CURVE SMOOTH"
);
},
{
closed = 1;
nodes = (
"132 540 OFFCURVE",
"185 577 OFFCURVE",
"263 577 CURVE SMOOTH",
"353 577 OFFCURVE",
"390 524 OFFCURVE",
"390 465 CURVE SMOOTH",
"390 409 OFFCURVE",
"350 374 OFFCURVE",
"248 317 CURVE SMOOTH",
"140 257 OFFCURVE",
"76 209 OFFCURVE",
"76 132 CURVE SMOOTH",
"76 49 OFFCURVE",
"158 -11 OFFCURVE",
"244 -11 CURVE SMOOTH",
"363 -11 OFFCURVE",
"449 70 OFFCURVE",
"449 149 CURVE SMOOTH",
"449 247 OFFCURVE",
"357 298 OFFCURVE",
"286 325 CURVE SMOOTH",
"217 351 OFFCURVE",
"132 397 OFFCURVE",
"132 467 CURVE SMOOTH"
);
}
);
width = 518;
}
);
unicode = 0038;
},
{
glyphname = nine;
layers = (
{
layerId = "9482A91E-411F-4CFA-81A1-53DA6722202C";
paths = (
{
closed = 1;
nodes = (
"378 372 LINE",
"341 349 OFFCURVE",
"315 336 OFFCURVE",
"275 336 CURVE SMOOTH",
"221 336 OFFCURVE",
"174 378 OFFCURVE",
"167 448 CURVE SMOOTH",
"158 534 OFFCURVE",
"200 585 OFFCURVE",
"240 585 CURVE SMOOTH",
"280 585 OFFCURVE",
"314 536 OFFCURVE",
"324 446 CURVE SMOOTH",
"340 294 OFFCURVE",
"283 110 OFFCURVE",
"116 35 CURVE",
"116 19 OFFCURVE",
"125 0 OFFCURVE",
"164 -23 CURVE",
"340 46 OFFCURVE",
"494 226 OFFCURVE",
"472 434 CURVE SMOOTH",
"457 576 OFFCURVE",
"356 665 OFFCURVE",
"245 665 CURVE SMOOTH",
"119 665 OFFCURVE",
"7 558 OFFCURVE",
"22 412 CURVE SMOOTH",
"33 308 OFFCURVE",
"116 251 OFFCURVE",
"208 251 CURVE SMOOTH",
"257 251 OFFCURVE",
"309 267 OFFCURVE",
"344 291 CURVE"
);
}
);
width = 498;
},
{
layerId = "2F11256F-FD75-4935-B7A9-D8816F9A9CE0";
paths = (
{
closed = 1;
nodes = (
"355 357 LINE",
"301 280 OFFCURVE",
"250 269 OFFCURVE",
"201 269 CURVE SMOOTH",
"131 269 OFFCURVE",
"101 338 OFFCURVE",
"101 408 CURVE SMOOTH",
"101 520 OFFCURVE",
"155 575 OFFCURVE",
"234 575 CURVE SMOOTH",
"305 575 OFFCURVE",
"346 492 OFFCURVE",
"346 394 CURVE SMOOTH",
"346 242 OFFCURVE",
"274 102 OFFCURVE",
"114 17 CURVE",
"115 10 OFFCURVE",
"118 3 OFFCURVE",
"130 -6 CURVE",
"329 87 OFFCURVE",
"400 242 OFFCURVE",
"400 382 CURVE SMOOTH",
"400 529 OFFCURVE",
"334 613 OFFCURVE",
"233 613 CURVE SMOOTH",
"149 613 OFFCURVE",
"50 528 OFFCURVE",
"50 406 CURVE SMOOTH",
"50 314 OFFCURVE",
"101 226 OFFCURVE",
"183 226 CURVE SMOOTH",
"232 226 OFFCURVE",
"290 229 OFFCURVE",
"348 316 CURVE"
);
}
);
width = 460;
}
);
unicode = 0039;
},
{
glyphname = colon;
layers = (
{
layerId = "9482A91E-411F-4CFA-81A1-53DA6722202C";
paths = (
{
closed = 1;
nodes = (
"256 11 OFFCURVE",
"217 -28 OFFCURVE",
"169 -28 CURVE SMOOTH",
"122 -28 OFFCURVE",
"83 11 OFFCURVE",
"83 57 CURVE SMOOTH",
"83 105 OFFCURVE",
"122 145 OFFCURVE",
"169 145 CURVE SMOOTH",
"217 145 OFFCURVE",
"256 105 OFFCURVE",
"256 57 CURVE SMOOTH"
);
},
{
closed = 1;
nodes = (
"256 424 OFFCURVE",
"217 385 OFFCURVE",
"169 385 CURVE SMOOTH",
"122 385 OFFCURVE",
"83 424 OFFCURVE",
"83 471 CURVE SMOOTH",
"83 519 OFFCURVE",
"122 558 OFFCURVE",
"169 558 CURVE SMOOTH",
"218 558 OFFCURVE",
"256 519 OFFCURVE",
"256 471 CURVE SMOOTH"
);
}
);
width = 338;
},
{
layerId = "2F11256F-FD75-4935-B7A9-D8816F9A9CE0";
paths = (
{
closed = 1;
nodes = (
"164 88 OFFCURVE",
"146 72 OFFCURVE",
"124 72 CURVE SMOOTH",
"102 72 OFFCURVE",
"86 88 OFFCURVE",
"86 110 CURVE SMOOTH",
"86 132 OFFCURVE",
"102 149 OFFCURVE",
"124 149 CURVE SMOOTH",
"146 149 OFFCURVE",
"164 132 OFFCURVE",
"164 110 CURVE SMOOTH"
);
},
{
closed = 1;
nodes = (
"164 432 OFFCURVE",
"146 416 OFFCURVE",
"124 416 CURVE SMOOTH",
"102 416 OFFCURVE",
"86 432 OFFCURVE",
"86 454 CURVE SMOOTH",
"86 476 OFFCURVE",
"102 494 OFFCURVE",
"124 494 CURVE SMOOTH",
"146 494 OFFCURVE",
"164 476 OFFCURVE",
"164 454 CURVE SMOOTH"
);
}
);
width = 250;
}
);
unicode = 003A;
},
{
glyphname = less;
layers = (
{
layerId = "9482A91E-411F-4CFA-81A1-53DA6722202C";
paths = (
{
closed = 1;
nodes = (
"30 290 LINE",
"413 80 LINE",
"413 189 LINE",
"137 336 LINE",
"413 483 LINE",
"413 592 LINE",
"30 382 LINE"
);
}
);
width = 463;
},
{
layerId = "2F11256F-FD75-4935-B7A9-D8816F9A9CE0";
paths = (
{
closed = 1;
nodes = (
"30 297 LINE",
"407 97 LINE",
"407 142 LINE",
"72 318 LINE",
"407 494 LINE",
"407 539 LINE",
"30 339 LINE"
);
}
);
width = 447;
}
);
unicode = 003C;
},
{
glyphname = equal;
layers = (
{
layerId = "9482A91E-411F-4CFA-81A1-53DA6722202C";
paths = (
{
closed = 1;
nodes = (
"523 486 LINE",
"523 386 LINE",
"50 386 LINE",
"50 486 LINE"
);
},
{
closed = 1;
nodes = (
"523 276 LINE",
"523 176 LINE",
"50 176 LINE",
"50 276 LINE"
);
}
);
width = 573;
},
{
layerId = "2F11256F-FD75-4935-B7A9-D8816F9A9CE0";
paths = (
{
closed = 1;
nodes = (
"500 407 LINE",
"500 367 LINE",
"60 367 LINE",
"60 407 LINE"
);
},
{
closed = 1;
nodes = (
"500 247 LINE",
"500 207 LINE",
"60 207 LINE",
"60 247 LINE"
);
}
);
width = 560;
}
);
unicode = 003D;
},
{
glyphname = greater;
layers = (
{
layerId = "9482A91E-411F-4CFA-81A1-53DA6722202C";
paths = (
{
closed = 1;
nodes = (
"50 592 LINE",
"50 483 LINE",
"326 336 LINE",
"50 189 LINE",
"50 80 LINE",
"433 290 LINE",
"433 382 LINE"
);
}
);
width = 463;
},
{
layerId = "2F11256F-FD75-4935-B7A9-D8816F9A9CE0";
paths = (
{
closed = 1;
nodes = (
"40 539 LINE",
"40 494 LINE",
"375 318 LINE",
"40 142 LINE",
"40 97 LINE",
"417 297 LINE",
"417 339 LINE"
);
}
);
width = 447;
}
);
unicode = 003E;
},
{
glyphname = question;
layers = (
{
layerId = "9482A91E-411F-4CFA-81A1-53DA6722202C";
paths = (
{
closed = 1;
nodes = (
"85 561 LINE",
"123 591 OFFCURVE",
"155 608 OFFCURVE",
"200 608 CURVE SMOOTH",
"249 608 OFFCURVE",
"291 571 OFFCURVE",
"291 516 CURVE SMOOTH",
"291 466 OFFCURVE",
"275 442 OFFCURVE",
"236 407 CURVE SMOOTH",
"194 369 LINE SMOOTH",
"148 328 OFFCURVE",
"142 298 OFFCURVE",
"157 230 CURVE SMOOTH",
"170 166 LINE",
"247 166 LINE",
"247 243 LINE SMOOTH",
"247 282 OFFCURVE",
"254 299 OFFCURVE",
"284 318 CURVE SMOOTH",
"348 358 LINE SMOOTH",
"422 405 OFFCURVE",
"456 458 OFFCURVE",
"456 530 CURVE SMOOTH",
"456 627 OFFCURVE",
"390 721 OFFCURVE",
"255 721 CURVE SMOOTH",
"163 721 OFFCURVE",
"97 678 OFFCURVE",
"40 606 CURVE"
);
},
{
closed = 1;
nodes = (
"140 14 OFFCURVE",
"175 -20 OFFCURVE",
"215 -20 CURVE SMOOTH",
"257 -20 OFFCURVE",
"291 14 OFFCURVE",
"291 56 CURVE SMOOTH",
"291 96 OFFCURVE",
"257 131 OFFCURVE",
"215 131 CURVE SMOOTH",
"175 131 OFFCURVE",
"140 96 OFFCURVE",
"140 56 CURVE SMOOTH"
);
}
);
width = 508;
},
{
layerId = "2F11256F-FD75-4935-B7A9-D8816F9A9CE0";
paths = (
{
closed = 1;
nodes = (
"72 610 LINE",
"116 640 OFFCURVE",
"162 657 OFFCURVE",
"215 657 CURVE SMOOTH",
"297 657 OFFCURVE",
"354 603 OFFCURVE",
"354 528 CURVE SMOOTH",
"354 469 OFFCURVE",
"330 428 OFFCURVE",
"274 380 CURVE SMOOTH",
"209 325 LINE SMOOTH",
"166 289 OFFCURVE",
"162 270 OFFCURVE",
"168 215 CURVE SMOOTH",
"179 117 LINE",
"194 117 LINE",
"194 216 LINE SMOOTH",
"194 260 OFFCURVE",
"201 274 OFFCURVE",
"235 299 CURVE SMOOTH",
"306 350 LINE SMOOTH",
"372 398 OFFCURVE",
"407 448 OFFCURVE",
"407 528 CURVE SMOOTH",
"407 632 OFFCURVE",
"320 701 OFFCURVE",
"233 701 CURVE SMOOTH",
"165 701 OFFCURVE",
"114 675 OFFCURVE",
"60 622 CURVE"
);
},
{
closed = 1;
nodes = (
"148 5 OFFCURVE",
"164 -12 OFFCURVE",
"187 -12 CURVE SMOOTH",
"210 -12 OFFCURVE",
"228 5 OFFCURVE",
"228 27 CURVE SMOOTH",
"228 50 OFFCURVE",
"210 68 OFFCURVE",
"187 68 CURVE SMOOTH",
"164 68 OFFCURVE",
"148 50 OFFCURVE",
"148 27 CURVE SMOOTH"
);
}
);
width = 457;
}
);
unicode = 003F;
},
{
glyphname = at;
layers = (
{
layerId = "9482A91E-411F-4CFA-81A1-53DA6722202C";
paths = (
{
closed = 1;
nodes = (
"1022 127 OFFCURVE",
"866 -13 OFFCURVE",
"699 -13 CURVE SMOOTH",
"616 -13 OFFCURVE",
"560 26 OFFCURVE",
"573 117 CURVE SMOOTH",
"594 266 LINE SMOOTH",
"600 309 OFFCURVE",
"586 331 OFFCURVE",
"557 331 CURVE SMOOTH",
"516 331 OFFCURVE",
"482 291 OFFCURVE",
"469 210 CURVE SMOOTH",
"451 100 OFFCURVE",
"484 81 OFFCURVE",
"516 81 CURVE SMOOTH",
"578 81 OFFCURVE",
"592 167 OFFCURVE",
"630 210 CURVE",
"602 84 LINE",
"570 44 OFFCURVE",
"523 -14 OFFCURVE",
"450 -14 CURVE SMOOTH",
"357 -14 OFFCURVE",
"285 65 OFFCURVE",
"307 195 CURVE SMOOTH",
"329 327 OFFCURVE",
"444 423 OFFCURVE",
"573 423 CURVE SMOOTH",
"691 423 OFFCURVE",
"760 357 OFFCURVE",
"743 234 CURVE SMOOTH",
"728 130 LINE SMOOTH",
"722 86 OFFCURVE",
"730 64 OFFCURVE",
"760 64 CURVE SMOOTH",
"818 64 OFFCURVE",
"883 142 OFFCURVE",
"883 260 CURVE SMOOTH",
"883 416 OFFCURVE",
"800 527 OFFCURVE",
"610 527 CURVE SMOOTH",
"368 527 OFFCURVE",
"189 339 OFFCURVE",
"189 119 CURVE SMOOTH",
"189 -30 OFFCURVE",
"306 -110 OFFCURVE",
"438 -110 CURVE SMOOTH",
"518 -110 OFFCURVE",
"580 -97 OFFCURVE",
"634 -78 CURVE",
"646 -96 OFFCURVE",
"653 -125 OFFCURVE",
"652 -149 CURVE",
"577 -182 OFFCURVE",
"499 -200 OFFCURVE",
"409 -200 CURVE SMOOTH",
"229 -200 OFFCURVE",
"50 -95 OFFCURVE",
"50 126 CURVE SMOOTH",
"50 407 OFFCURVE",
"310 617 OFFCURVE",
"640 617 CURVE SMOOTH",
"873 617 OFFCURVE",
"1022 492 OFFCURVE",
"1022 314 CURVE SMOOTH"
);
}
);
width = 1072;
},
{
layerId = "2F11256F-FD75-4935-B7A9-D8816F9A9CE0";
paths = (
{
closed = 1;
nodes = (
"808 95 OFFCURVE",
"671 -12 OFFCURVE",
"571 -12 CURVE SMOOTH",
"526 -12 OFFCURVE",
"506 17 OFFCURVE",
"511 67 CURVE SMOOTH",
"533 283 LINE SMOOTH",
"539 340 OFFCURVE",
"521 379 OFFCURVE",
"464 379 CURVE SMOOTH",
"392 379 OFFCURVE",
"324 310 OFFCURVE",
"305 189 CURVE SMOOTH",
"287 75 OFFCURVE",
"330 24 OFFCURVE",
"380 24 CURVE SMOOTH",
"435 24 OFFCURVE",
"491 75 OFFCURVE",
"523 163 CURVE",
"538 141 LINE",
"517 52 OFFCURVE",
"446 -12 OFFCURVE",
"373 -12 CURVE SMOOTH",
"288 -12 OFFCURVE",
"232 66 OFFCURVE",
"252 187 CURVE SMOOTH",
"273 313 OFFCURVE",
"366 412 OFFCURVE",
"472 412 CURVE SMOOTH",
"554 412 OFFCURVE",
"594 358 OFFCURVE",
"586 283 CURVE SMOOTH",
"562 59 LINE SMOOTH",
"559 35 OFFCURVE",
"561 22 OFFCURVE",
"583 22 CURVE SMOOTH",
"647 22 OFFCURVE",
"757 100 OFFCURVE",
"765 263 CURVE SMOOTH",
"774 428 OFFCURVE",
"666 544 OFFCURVE",
"498 544 CURVE SMOOTH",
"261 544 OFFCURVE",
"115 359 OFFCURVE",
"104 144 CURVE SMOOTH",
"93 -59 OFFCURVE",
"208 -137 OFFCURVE",
"341 -137 CURVE SMOOTH",
"406 -137 OFFCURVE",
"464 -129 OFFCURVE",
"529 -110 CURVE",
"533 -115 OFFCURVE",
"537 -122 OFFCURVE",
"536 -132 CURVE",
"472 -159 OFFCURVE",
"412 -175 OFFCURVE",
"331 -175 CURVE SMOOTH",
"175 -175 OFFCURVE",
"40 -78 OFFCURVE",
"51 130 CURVE SMOOTH",
"64 376 OFFCURVE",
"258 580 OFFCURVE",
"504 580 CURVE SMOOTH",
"686 580 OFFCURVE",
"827 453 OFFCURVE",
"817 267 CURVE SMOOTH"
);
}
);
width = 868;
}
);
unicode = 0040;
},
{
glyphname = A;
layers = (
{
anchors = (
{
name = ogonek;
position = "{648, 0}";
},
{
name = top;
position = "{325, 650}";
}
);
layerId = "9482A91E-411F-4CFA-81A1-53DA6722202C";
paths = (
{
closed = 1;
nodes = (
"577 120 LINE SMOOTH",
"592 73 OFFCURVE",
"606 58 OFFCURVE",
"652 57 CURVE",
"652 36 OFFCURVE",
"650 20 OFFCURVE",
"648 0 CURVE",
"339 0 LINE",
"339 20 OFFCURVE",
"339 36 OFFCURVE",
"342 57 CURVE",
"379 66 OFFCURVE",
"420 77 OFFCURVE",
"443 99 CURVE",
"422 72 LINE",
"259 618 LINE",
"294 599 LINE",
"276 504 LINE",
"139 41 LINE",
"119 96 LINE",
"147 59 OFFCURVE",
"178 57 OFFCURVE",
"229 57 CURVE",
"229 36 OFFCURVE",
"228 20 OFFCURVE",
"225 0 CURVE",
"1 0 LINE",
"0 20 OFFCURVE",
"1 38 OFFCURVE",
"4 57 CURVE",
"45 69 OFFCURVE",
"62 88 OFFCURVE",
"75 123 CURVE",
"246 649 LINE",
"287 657 OFFCURVE",
"359 662 OFFCURVE",
"407 663 CURVE"
);
},
{
closed = 1;
nodes = (
"409 224 LINE",
"173 224 LINE",
"173 293 LINE",
"409 293 LINE"
);
}
);
width = 652;
},
{
anchors = (
{
name = ogonek;
position = "{552, 0}";
},
{
name = top;
position = "{276, 601}";
}
);
layerId = "2F11256F-FD75-4935-B7A9-D8816F9A9CE0";
paths = (
{
closed = 1;
nodes = (
"473 76 LINE",
"485 38 OFFCURVE",
"512 25 OFFCURVE",
"557 21 CURVE",
"556 14 OFFCURVE",
"555 6 OFFCURVE",
"552 0 CURVE",
"363 0 LINE",
"363 7 OFFCURVE",
"364 16 OFFCURVE",
"367 21 CURVE",
"403 27 OFFCURVE",
"433 34 OFFCURVE",
"454 58 CURVE",
"442 22 LINE",
"255 585 LINE",
"275 583 LINE",
"256 506 LINE",
"92 13 LINE",
"77 50 LINE",
"107 31 OFFCURVE",
"142 23 OFFCURVE",
"173 21 CURVE",
"173 14 OFFCURVE",
"171 6 OFFCURVE",
"169 0 CURVE",
"-4 0 LINE",
"-4 7 OFFCURVE",
"-2 16 OFFCURVE",
"0 21 CURVE",
"49 27 OFFCURVE",
"67 47 OFFCURVE",
"76 74 CURVE SMOOTH",
"256 606 LINE",
"266 612 OFFCURVE",
"281 614 OFFCURVE",
"295 614 CURVE"
);
},
{
closed = 1;
nodes = (
"387 201 LINE",
"155 201 LINE",
"155 228 LINE",
"387 228 LINE"
);
}
);
width = 553;
}
);
unicode = 0041;
},
{
glyphname = B;
layers = (
{
layerId = "9482A91E-411F-4CFA-81A1-53DA6722202C";
paths = (
{
closed = 1;
nodes = (
"585 399 OFFCURVE",
"543 352 OFFCURVE",
"455 325 CURVE",
"444 353 LINE",
"553 337 OFFCURVE",
"610 274 OFFCURVE",
"610 180 CURVE SMOOTH",
"610 66 OFFCURVE",
"514 0 OFFCURVE",
"321 0 CURVE SMOOTH",
"43 0 LINE",
"42 18 OFFCURVE",
"43 40 OFFCURVE",
"48 57 CURVE",
"83 63 OFFCURVE",
"111 73 OFFCURVE",
"111 117 CURVE SMOOTH",
"111 592 LINE",
"115 581 LINE",
"97 591 OFFCURVE",
"60 594 OFFCURVE",
"41 594 CURVE",
"40 610 OFFCURVE",
"42 634 OFFCURVE",
"45 650 CURVE",
"307 650 LINE SMOOTH",
"509 650 OFFCURVE",
"585 571 OFFCURVE",
"585 474 CURVE SMOOTH"
);
},
{
closed = 1;
nodes = (
"256 588 LINE",
"271 614 LINE",
"271 37 LINE",
"256 63 LINE",
"314 63 LINE SMOOTH",
"396 63 OFFCURVE",
"447 99 OFFCURVE",
"447 180 CURVE SMOOTH",
"447 261 OFFCURVE",
"396 298 OFFCURVE",
"314 298 CURVE SMOOTH",
"266 298 LINE",
"266 361 LINE",
"341 361 LINE",
"387 380 OFFCURVE",
"421 423 OFFCURVE",
"421 474 CURVE SMOOTH",
"421 547 OFFCURVE",
"376 588 OFFCURVE",
"307 588 CURVE SMOOTH"
);
}
);
width = 661;
},
{
layerId = "2F11256F-FD75-4935-B7A9-D8816F9A9CE0";
paths = (
{
closed = 1;
nodes = (
"441 370 OFFCURVE",
"382 319 OFFCURVE",
"317 306 CURVE",
"310 316 LINE",
"415 315 OFFCURVE",
"470 237 OFFCURVE",
"470 161 CURVE SMOOTH",
"470 84 OFFCURVE",
"413 0 OFFCURVE",
"270 0 CURVE SMOOTH",
"32 0 LINE",
"32 7 OFFCURVE",
"32 16 OFFCURVE",
"34 21 CURVE",
"82 27 OFFCURVE",
"97 36 OFFCURVE",
"97 66 CURVE SMOOTH",
"97 576 LINE",
"103 562 LINE",
"77 574 OFFCURVE",
"56 579 OFFCURVE",
"30 580 CURVE",
"30 587 OFFCURVE",
"31 597 OFFCURVE",
"32 601 CURVE",
"241 601 LINE SMOOTH",
"393 601 OFFCURVE",
"441 525 OFFCURVE",
"441 447 CURVE SMOOTH"
);
},
{
closed = 1;
nodes = (
"136 575 LINE",
"145 582 LINE",
"145 20 LINE",
"132 28 LINE",
"270 28 LINE SMOOTH",
"376 28 OFFCURVE",
"413 92 OFFCURVE",
"413 161 CURVE SMOOTH",
"413 230 OFFCURVE",
"376 295 OFFCURVE",
"270 295 CURVE SMOOTH",
"117 295 LINE",
"117 323 LINE",
"292 322 LINE",
"351 341 OFFCURVE",
"385 380 OFFCURVE",
"385 448 CURVE SMOOTH",
"385 517 OFFCURVE",
"349 575 OFFCURVE",
"241 575 CURVE SMOOTH"
);
}
);
width = 529;
}
);
unicode = 0042;
},
{
glyphname = C;
layers = (
{
anchors = (
{
name = bottom;
position = "{318, 0}";
},
{
name = top;
position = "{398, 650}";
}
);
layerId = "9482A91E-411F-4CFA-81A1-53DA6722202C";
paths = (
{
closed = 1;
nodes = (
"589 566 OFFCURVE",
"582 509 OFFCURVE",
"569 438 CURVE",
"567 438 OFFCURVE",
"521 438 OFFCURVE",
"518 439 CURVE",
"514 517 OFFCURVE",
"477 580 OFFCURVE",
"392 580 CURVE SMOOTH",
"302 580 OFFCURVE",
"221 500 OFFCURVE",
"221 335 CURVE SMOOTH",
"221 159 OFFCURVE",
"309 90 OFFCURVE",
"418 90 CURVE SMOOTH",
"469 90 OFFCURVE",
"530 105 OFFCURVE",
"570 133 CURVE",
"605 93 LINE",
"551 32 OFFCURVE",
"458 -13 OFFCURVE",
"363 -13 CURVE SMOOTH",
"204 -13 OFFCURVE",
"50 98 OFFCURVE",
"50 319 CURVE SMOOTH",
"50 535 OFFCURVE",
"206 664 OFFCURVE",
"399 664 CURVE SMOOTH",
"465 664 OFFCURVE",
"550 652 OFFCURVE",
"592 628 CURVE"
);
}
);
width = 628;
},
{
anchors = (
{
name = bottom;
position = "{318, 0}";
},
{
name = top;
position = "{365, 599}";
}
);
layerId = "2F11256F-FD75-4935-B7A9-D8816F9A9CE0";
paths = (
{
closed = 1;
nodes = (
"507 555 OFFCURVE",
"501 507 OFFCURVE",
"493 476 CURVE",
"491 476 OFFCURVE",
"482 476 OFFCURVE",
"479 477 CURVE",
"479 545 OFFCURVE",
"424 578 OFFCURVE",
"362 578 CURVE SMOOTH",
"210 578 OFFCURVE",
"113 466 OFFCURVE",
"113 295 CURVE SMOOTH",
"113 131 OFFCURVE",
"215 28 OFFCURVE",
"342 28 CURVE SMOOTH",
"404 28 OFFCURVE",
"453 43 OFFCURVE",
"509 79 CURVE",
"522 67 LINE",
"473 18 OFFCURVE",
"416 -12 OFFCURVE",
"334 -12 CURVE SMOOTH",
"185 -12 OFFCURVE",
"56 105 OFFCURVE",
"56 295 CURVE SMOOTH",
"56 482 OFFCURVE",
"193 614 OFFCURVE",
"361 614 CURVE SMOOTH",
"416 614 OFFCURVE",
"470 601 OFFCURVE",
"507 585 CURVE"
);
}
);
width = 567;
}
);
unicode = 0043;
},
{
glyphname = D;
layers = (
{
anchors = (
{
name = top;
position = "{355, 650}";
}
);
layerId = "9482A91E-411F-4CFA-81A1-53DA6722202C";
paths = (
{
closed = 1;
nodes = (
"335 650 LINE SMOOTH",
"525 650 OFFCURVE",
"677 538 OFFCURVE",
"677 325 CURVE SMOOTH",
"677 112 OFFCURVE",
"532 0 OFFCURVE",
"351 0 CURVE SMOOTH",
"43 0 LINE",
"42 18 OFFCURVE",
"43 40 OFFCURVE",
"48 57 CURVE",
"83 63 OFFCURVE",
"111 73 OFFCURVE",
"111 117 CURVE SMOOTH",
"111 592 LINE",
"115 581 LINE",
"97 591 OFFCURVE",
"60 594 OFFCURVE",
"41 594 CURVE",
"40 610 OFFCURVE",
"42 634 OFFCURVE",
"45 650 CURVE"
);
},
{
closed = 1;
nodes = (
"271 588 LINE",
"271 63 LINE",
"322 63 LINE SMOOTH",
"444 63 OFFCURVE",
"506 155 OFFCURVE",
"506 325 CURVE SMOOTH",
"506 496 OFFCURVE",
"444 588 OFFCURVE",
"314 588 CURVE SMOOTH"
);
}
);
width = 712;
},
{
anchors = (
{
name = top;
position = "{275, 599}";
}
);
layerId = "2F11256F-FD75-4935-B7A9-D8816F9A9CE0";
paths = (
{
closed = 1;
nodes = (
"237 601 LINE",
"416 601 OFFCURVE",
"538 494 OFFCURVE",
"538 302 CURVE SMOOTH",
"538 108 OFFCURVE",
"417 0 OFFCURVE",
"238 0 CURVE SMOOTH",
"33 0 LINE",
"32 7 OFFCURVE",
"33 16 OFFCURVE",
"35 21 CURVE",
"83 27 OFFCURVE",
"98 36 OFFCURVE",
"98 66 CURVE SMOOTH",
"98 572 LINE",
"102 563 LINE",
"77 575 OFFCURVE",
"56 579 OFFCURVE",
"30 580 CURVE",
"30 587 OFFCURVE",
"31 597 OFFCURVE",
"32 601 CURVE"
);
},
{
closed = 1;
nodes = (
"146 575 LINE",
"146 28 LINE",
"236 28 LINE SMOOTH",
"398 28 OFFCURVE",
"481 140 OFFCURVE",
"481 302 CURVE SMOOTH",
"481 461 OFFCURVE",
"398 575 OFFCURVE",
"236 575 CURVE SMOOTH"
);
}
);
width = 558;
}
);
unicode = 0044;
},
{
glyphname = E;
layers = (
{
anchors = (
{
name = bottom;
position = "{301, 0}";
},
{
name = ogonek;
position = "{563, 0}";
},
{
name = top;
position = "{329, 650}";
}
);
layerId = "9482A91E-411F-4CFA-81A1-53DA6722202C";
paths = (
{
closed = 1;
nodes = (
"446 283 LINE",
"403 283 LINE",
"250 294 LINE",
"250 355 LINE",
"403 371 LINE",
"446 371 LINE"
);
},
{
closed = 1;
nodes = (
"538 463 OFFCURVE",
"501 462 OFFCURVE",
"483 462 CURVE",
"476 533 OFFCURVE",
"477 588 OFFCURVE",
"404 588 CURVE SMOOTH",
"224 588 LINE",
"271 635 LINE",
"271 16 LINE",
"225 63 LINE",
"406 63 LINE SMOOTH",
"478 63 OFFCURVE",
"481 121 OFFCURVE",
"489 198 CURVE",
"507 199 OFFCURVE",
"547 197 OFFCURVE",
"559 194 CURVE",
"564 127 OFFCURVE",
"565 66 OFFCURVE",
"563 0 CURVE",
"42 0 LINE",
"41 18 OFFCURVE",
"42 40 OFFCURVE",
"48 57 CURVE",
"83 63 OFFCURVE",
"111 73 OFFCURVE",
"111 117 CURVE SMOOTH",
"111 592 LINE",
"114 581 LINE",
"97 591 OFFCURVE",
"60 594 OFFCURVE",
"40 594 CURVE",
"39 610 OFFCURVE",
"41 634 OFFCURVE",
"45 650 CURVE",
"556 650 LINE",
"557 589 OFFCURVE",
"556 526 OFFCURVE",
"550 464 CURVE"
);
}
);
width = 598;
},
{
anchors = (
{
name = bottom;
position = "{259, 0}";
},
{
name = ogonek;
position = "{443, 0}";
},
{
name = top;
position = "{260, 601}";
}
);
layerId = "2F11256F-FD75-4935-B7A9-D8816F9A9CE0";
paths = (
{
closed = 1;
nodes = (
"347 289 LINE",
"321 289 LINE",
"125 293 LINE",
"125 321 LINE",
"321 327 LINE",
"347 327 LINE"
);
},
{
closed = 1;
nodes = (
"418 480 OFFCURVE",
"410 480 OFFCURVE",
"405 480 CURVE",
"399 548 OFFCURVE",
"382 575 OFFCURVE",
"314 575 CURVE SMOOTH",
"136 575 LINE",
"148 583 LINE",
"148 19 LINE",
"134 28 LINE",
"331 28 LINE SMOOTH",
"399 28 OFFCURVE",
"415 54 OFFCURVE",
"422 122 CURVE",
"428 122 OFFCURVE",
"435 122 OFFCURVE",
"441 121 CURVE",
"444 81 OFFCURVE",
"445 41 OFFCURVE",
"443 0 CURVE",
"34 0 LINE",
"33 7 OFFCURVE",
"34 16 OFFCURVE",
"37 21 CURVE",
"85 27 OFFCURVE",
"100 36 OFFCURVE",
"100 66 CURVE SMOOTH",
"100 580 LINE",
"105 562 LINE",
"80 574 OFFCURVE",
"58 579 OFFCURVE",
"31 580 CURVE",
"31 587 OFFCURVE",
"32 597 OFFCURVE",
"34 601 CURVE",
"426 601 LINE",
"428 561 OFFCURVE",
"427 520 OFFCURVE",
"422 482 CURVE"
);
}
);
width = 497;
}
);
unicode = 0045;
},
{
glyphname = F;
layers = (
{
layerId = "9482A91E-411F-4CFA-81A1-53DA6722202C";
paths = (
{
closed = 1;
nodes = (
"447 263 LINE",
"403 263 LINE",
"250 274 LINE",
"250 335 LINE",
"403 351 LINE",
"447 351 LINE"
);
},
{
closed = 1;
nodes = (
"111 592 LINE",
"114 581 LINE",
"97 591 OFFCURVE",
"60 594 OFFCURVE",
"40 594 CURVE",
"39 610 OFFCURVE",
"41 634 OFFCURVE",
"45 650 CURVE",
"556 650 LINE",
"557 589 OFFCURVE",
"556 526 OFFCURVE",
"550 464 CURVE",
"538 463 OFFCURVE",
"501 462 OFFCURVE",
"483 462 CURVE",
"476 533 OFFCURVE",
"477 588 OFFCURVE",
"405 588 CURVE SMOOTH",
"256 588 LINE",
"271 603 LINE",
"271 42 LINE",
"267 77 LINE",
"293 69 OFFCURVE",
"347 59 OFFCURVE",
"378 57 CURVE",
"379 40 OFFCURVE",
"377 17 OFFCURVE",
"374 0 CURVE",
"43 0 LINE",
"42 18 OFFCURVE",
"43 40 OFFCURVE",
"48 57 CURVE",
"83 63 OFFCURVE",
"111 73 OFFCURVE",
"111 116 CURVE SMOOTH"
);
}
);
width = 570;
},
{
layerId = "2F11256F-FD75-4935-B7A9-D8816F9A9CE0";
paths = (
{
closed = 1;
nodes = (
"337 269 LINE",
"306 269 LINE",
"125 273 LINE",
"125 301 LINE",
"306 307 LINE",
"337 307 LINE"
);
},
{
closed = 1;
nodes = (
"100 580 LINE",
"105 562 LINE",
"81 574 OFFCURVE",
"59 579 OFFCURVE",
"31 580 CURVE",
"31 587 OFFCURVE",
"32 597 OFFCURVE",
"34 601 CURVE",
"426 601 LINE",
"428 561 OFFCURVE",
"427 520 OFFCURVE",
"422 482 CURVE",
"418 480 OFFCURVE",
"410 480 OFFCURVE",
"405 480 CURVE",
"399 548 OFFCURVE",
"382 575 OFFCURVE",
"315 575 CURVE SMOOTH",
"138 575 LINE",
"148 581 LINE",
"148 21 LINE",
"142 48 LINE",
"181 32 OFFCURVE",
"209 28 OFFCURVE",
"247 23 CURVE",
"247 15 OFFCURVE",
"247 6 OFFCURVE",
"245 0 CURVE",
"31 0 LINE",
"30 7 OFFCURVE",
"31 17 OFFCURVE",
"33 23 CURVE",
"84 29 OFFCURVE",
"100 39 OFFCURVE",
"100 70 CURVE SMOOTH"
);
}
);
width = 466;
}
);
unicode = 0046;
},
{
glyphname = G;
layers = (
{
anchors = (
{
name = bottom;
position = "{358, 0}";
},
{
name = top;
position = "{378, 650}";
}
);
layerId = "9482A91E-411F-4CFA-81A1-53DA6722202C";
paths = (
{
closed = 1;
nodes = (
"636 573 OFFCURVE",
"629 516 OFFCURVE",
"615 445 CURVE",
"602 444 OFFCURVE",
"580 445 OFFCURVE",
"564 446 CURVE",
"545 529 OFFCURVE",
"490 579 OFFCURVE",
"405 579 CURVE SMOOTH",
"298 579 OFFCURVE",
"221 490 OFFCURVE",
"221 335 CURVE SMOOTH",
"221 146 OFFCURVE",
"294 71 OFFCURVE",
"402 71 CURVE SMOOTH",
"438 71 OFFCURVE",
"472 81 OFFCURVE",
"501 97 CURVE",
"490 73 LINE",
"490 272 LINE",
"500 251 LINE",
"471 262 OFFCURVE",
"434 265 OFFCURVE",
"402 265 CURVE",
"402 283 OFFCURVE",
"403 309 OFFCURVE",
"406 328 CURVE",
"700 328 LINE",
"701 308 OFFCURVE",
"699 283 OFFCURVE",
"695 265 CURVE",
"663 256 OFFCURVE",
"628 250 OFFCURVE",
"628 204 CURVE SMOOTH",
"628 0 LINE",
"542 0 LINE",
"505 49 LINE",
"545 41 LINE",
"494 9 OFFCURVE",
"439 -13 OFFCURVE",
"368 -13 CURVE SMOOTH",
"199 -13 OFFCURVE",
"50 109 OFFCURVE",
"50 320 CURVE SMOOTH",
"50 535 OFFCURVE",
"223 664 OFFCURVE",
"406 664 CURVE SMOOTH",
"501 664 OFFCURVE",
"572 650 OFFCURVE",
"639 629 CURVE"
);
}
);
width = 715;
},
{
anchors = (
{
name = bottom;
position = "{321, 0}";
},
{
name = top;
position = "{329, 601}";
}
);
layerId = "2F11256F-FD75-4935-B7A9-D8816F9A9CE0";
paths = (
{
closed = 1;
nodes = (
"507 555 OFFCURVE",
"501 507 OFFCURVE",
"493 476 CURVE",
"491 476 OFFCURVE",
"483 476 OFFCURVE",
"479 477 CURVE",
"479 545 OFFCURVE",
"424 578 OFFCURVE",
"362 578 CURVE SMOOTH",
"200 578 OFFCURVE",
"113 466 OFFCURVE",
"113 295 CURVE SMOOTH",
"113 121 OFFCURVE",
"205 28 OFFCURVE",
"322 28 CURVE SMOOTH",
"376 28 OFFCURVE",
"431 45 OFFCURVE",
"470 71 CURVE",
"464 55 LINE",
"464 276 LINE",
"492 245 LINE",
"453 265 OFFCURVE",
"430 273 OFFCURVE",
"396 275 CURVE",
"396 282 OFFCURVE",
"397 291 OFFCURVE",
"398 297 CURVE",
"576 297 LINE",
"577 290 OFFCURVE",
"576 280 OFFCURVE",
"574 275 CURVE",
"526 269 OFFCURVE",
"511 260 OFFCURVE",
"511 231 CURVE SMOOTH",
"511 0 LINE",
"488 0 LINE",
"468 42 LINE",
"480 48 LINE",
"441 14 OFFCURVE",
"375 -12 OFFCURVE",
"314 -12 CURVE SMOOTH",
"180 -12 OFFCURVE",
"56 95 OFFCURVE",
"56 295 CURVE SMOOTH",
"56 482 OFFCURVE",
"193 614 OFFCURVE",
"361 614 CURVE SMOOTH",
"416 614 OFFCURVE",
"470 601 OFFCURVE",
"507 585 CURVE"
);
}
);
width = 597;
}
);
unicode = 0047;
},
{
glyphname = H;
layers = (
{
layerId = "9482A91E-411F-4CFA-81A1-53DA6722202C";
paths = (
{
closed = 1;
nodes = (
"198 361 LINE",
"587 361 LINE",
"587 284 LINE",
"198 284 LINE"
);
},
{
closed = 1;
nodes = (
"271 43 LINE",
"268 69 LINE",
"285 59 OFFCURVE",
"322 57 OFFCURVE",
"341 57 CURVE",
"342 40 OFFCURVE",
"340 17 OFFCURVE",
"337 0 CURVE",
"42 0 LINE",
"41 18 OFFCURVE",
"42 40 OFFCURVE",
"48 57 CURVE",
"83 63 OFFCURVE",
"111 73 OFFCURVE",
"111 117 CURVE SMOOTH",
"111 592 LINE",
"113 582 LINE",
"96 591 OFFCURVE",
"60 594 OFFCURVE",
"40 594 CURVE",
"39 610 OFFCURVE",
"41 634 OFFCURVE",
"45 650 CURVE",
"339 650 LINE",
"340 633 OFFCURVE",
"339 610 OFFCURVE",
"334 594 CURVE",
"299 588 OFFCURVE",
"271 578 OFFCURVE",
"271 534 CURVE SMOOTH"
);
},
{
closed = 1;
nodes = (
"663 43 LINE",
"660 69 LINE",
"677 59 OFFCURVE",
"714 57 OFFCURVE",
"733 57 CURVE",
"734 40 OFFCURVE",
"732 17 OFFCURVE",
"729 0 CURVE",
"434 0 LINE",
"433 18 OFFCURVE",
"434 40 OFFCURVE",
"439 57 CURVE",
"474 63 OFFCURVE",
"502 73 OFFCURVE",
"502 117 CURVE SMOOTH",
"502 592 LINE",
"505 582 LINE",
"488 591 OFFCURVE",
"451 594 OFFCURVE",
"432 594 CURVE",
"431 610 OFFCURVE",
"433 634 OFFCURVE",
"436 650 CURVE",
"731 650 LINE",
"732 633 OFFCURVE",
"731 610 OFFCURVE",
"726 594 CURVE",
"690 588 OFFCURVE",
"663 578 OFFCURVE",
"663 534 CURVE SMOOTH"
);
}
);
width = 773;
},
{
layerId = "2F11256F-FD75-4935-B7A9-D8816F9A9CE0";
paths = (
{
closed = 1;
nodes = (
"135 316 LINE",
"472 316 LINE",
"472 288 LINE",
"135 288 LINE"
);
},
{
closed = 1;
nodes = (
"148 8 LINE",
"120 51 LINE",
"158 30 OFFCURVE",
"182 23 OFFCURVE",
"215 21 CURVE",
"215 14 OFFCURVE",
"214 6 OFFCURVE",
"212 0 CURVE",
"34 0 LINE",
"33 7 OFFCURVE",
"34 16 OFFCURVE",
"37 21 CURVE",
"85 27 OFFCURVE",
"100 36 OFFCURVE",
"100 66 CURVE SMOOTH",
"100 582 LINE",
"126 551 LINE",
"88 571 OFFCURVE",
"65 578 OFFCURVE",
"31 580 CURVE",
"31 587 OFFCURVE",
"32 597 OFFCURVE",
"34 601 CURVE",
"212 601 LINE",
"212 596 OFFCURVE",
"212 586 OFFCURVE",
"210 580 CURVE",
"163 575 OFFCURVE",
"148 566 OFFCURVE",
"148 537 CURVE SMOOTH"
);
},
{
closed = 1;
nodes = (
"508 8 LINE",
"481 51 LINE",
"518 30 OFFCURVE",
"542 23 OFFCURVE",
"575 21 CURVE",
"575 14 OFFCURVE",
"574 6 OFFCURVE",
"574 0 CURVE",
"395 0 LINE",
"395 7 OFFCURVE",
"395 16 OFFCURVE",
"396 21 CURVE",
"444 27 OFFCURVE",
"459 36 OFFCURVE",
"459 66 CURVE SMOOTH",
"459 582 LINE",
"487 551 LINE",
"449 571 OFFCURVE",
"425 578 OFFCURVE",
"392 580 CURVE",
"392 587 OFFCURVE",
"393 597 OFFCURVE",
"395 601 CURVE",
"573 601 LINE",
"574 596 OFFCURVE",
"573 586 OFFCURVE",
"571 580 CURVE",
"522 575 OFFCURVE",
"508 566 OFFCURVE",
"508 537 CURVE SMOOTH"
);
}
);
width = 606;
}
);
unicode = 0048;
},
{
glyphname = I;
layers = (
{
anchors = (
{
name = ogonek;
position = "{337, 0}";
},
{
name = top;
position = "{191, 650}";
}
);
layerId = "9482A91E-411F-4CFA-81A1-53DA6722202C";
paths = (
{
closed = 1;
nodes = (
"271 43 LINE",
"268 69 LINE",
"285 59 OFFCURVE",
"322 57 OFFCURVE",
"341 57 CURVE",
"342 40 OFFCURVE",
"340 17 OFFCURVE",
"337 0 CURVE",
"42 0 LINE",
"41 18 OFFCURVE",
"42 40 OFFCURVE",
"48 57 CURVE",
"83 63 OFFCURVE",
"111 73 OFFCURVE",
"111 117 CURVE SMOOTH",
"111 592 LINE",
"113 582 LINE",
"96 591 OFFCURVE",
"60 594 OFFCURVE",
"40 594 CURVE",
"39 610 OFFCURVE",
"41 634 OFFCURVE",
"45 650 CURVE",
"339 650 LINE",
"340 633 OFFCURVE",
"339 610 OFFCURVE",
"334 594 CURVE",
"299 588 OFFCURVE",
"271 578 OFFCURVE",
"271 534 CURVE SMOOTH"
);
}
);
width = 382;
},
{
anchors = (
{
name = ogonek;
position = "{212, 0}";
},
{
name = top;
position = "{124, 601}";
}
);
layerId = "2F11256F-FD75-4935-B7A9-D8816F9A9CE0";
paths = (
{
closed = 1;
nodes = (
"148 8 LINE",
"120 51 LINE",
"158 30 OFFCURVE",
"182 23 OFFCURVE",
"215 21 CURVE",
"215 14 OFFCURVE",
"214 6 OFFCURVE",
"212 0 CURVE",
"34 0 LINE",
"33 7 OFFCURVE",
"34 16 OFFCURVE",
"37 21 CURVE",
"85 27 OFFCURVE",
"100 36 OFFCURVE",
"100 66 CURVE SMOOTH",
"100 582 LINE",
"126 551 LINE",
"88 571 OFFCURVE",
"65 578 OFFCURVE",
"31 580 CURVE",
"31 587 OFFCURVE",
"32 597 OFFCURVE",
"34 601 CURVE",
"212 601 LINE",
"212 596 OFFCURVE",
"212 586 OFFCURVE",
"210 580 CURVE",
"163 575 OFFCURVE",
"148 566 OFFCURVE",
"148 537 CURVE SMOOTH"
);
}
);
width = 247;
}
);
unicode = 0049;
},
{
glyphname = J;
layers = (
{
layerId = "9482A91E-411F-4CFA-81A1-53DA6722202C";
paths = (
{
closed = 1;
nodes = (
"271 80 LINE SMOOTH",
"271 -81 OFFCURVE",
"160 -171 OFFCURVE",
"24 -210 CURVE",
"9 -199 OFFCURVE",
"-9 -181 OFFCURVE",
"-21 -164 CURVE",
"85 -104 OFFCURVE",
"111 -45 OFFCURVE",
"111 80 CURVE SMOOTH",
"111 592 LINE",
"113 582 LINE",
"96 591 OFFCURVE",
"60 594 OFFCURVE",
"40 594 CURVE",
"39 610 OFFCURVE",
"41 634 OFFCURVE",
"45 650 CURVE",
"339 650 LINE",
"340 633 OFFCURVE",
"339 610 OFFCURVE",
"334 594 CURVE",
"299 588 OFFCURVE",
"271 578 OFFCURVE",
"271 534 CURVE SMOOTH"
);
}
);
width = 376;
},
{
layerId = "2F11256F-FD75-4935-B7A9-D8816F9A9CE0";
paths = (
{
closed = 1;
nodes = (
"148 -20 LINE SMOOTH",
"148 -134 OFFCURVE",
"103 -189 OFFCURVE",
"2 -221 CURVE",
"1 -217 OFFCURVE",
"-1 -212 OFFCURVE",
"-2 -208 CURVE",
"92 -157 OFFCURVE",
"100 -93 OFFCURVE",
"100 -22 CURVE SMOOTH",
"100 582 LINE",
"126 551 LINE",
"88 571 OFFCURVE",
"65 578 OFFCURVE",
"31 580 CURVE",
"31 587 OFFCURVE",
"32 597 OFFCURVE",
"34 601 CURVE",
"212 601 LINE",
"212 596 OFFCURVE",
"212 586 OFFCURVE",
"210 580 CURVE",
"163 575 OFFCURVE",
"148 566 OFFCURVE",
"148 537 CURVE SMOOTH"
);
}
);
width = 235;
}
);
unicode = 004A;
},
{
glyphname = K;
layers = (
{
anchors = (
{
name = bottom;
position = "{396, 0}";
},
{
name = top;
position = "{396, 650}";
}
);
layerId = "9482A91E-411F-4CFA-81A1-53DA6722202C";
paths = (
{
closed = 1;
nodes = (
"299 588 OFFCURVE",
"271 578 OFFCURVE",
"271 534 CURVE SMOOTH",
"271 43 LINE",
"268 69 LINE",
"285 59 OFFCURVE",
"322 57 OFFCURVE",
"341 57 CURVE",
"342 40 OFFCURVE",
"340 17 OFFCURVE",
"337 0 CURVE",
"42 0 LINE",
"41 18 OFFCURVE",
"42 40 OFFCURVE",
"48 57 CURVE",
"83 63 OFFCURVE",
"111 73 OFFCURVE",
"111 117 CURVE SMOOTH",
"111 592 LINE",
"113 582 LINE",
"96 591 OFFCURVE",
"60 594 OFFCURVE",
"40 594 CURVE",
"39 610 OFFCURVE",
"41 634 OFFCURVE",
"45 650 CURVE",
"339 650 LINE",
"340 633 OFFCURVE",
"339 610 OFFCURVE",
"334 594 CURVE"
);
},
{
closed = 1;
nodes = (
"659 595 OFFCURVE",
"627 583 OFFCURVE",
"587 546 CURVE SMOOTH",
"215 196 LINE",
"148 220 LINE",
"531 588 LINE",
"539 575 LINE",
"514 594 OFFCURVE",
"487 595 OFFCURVE",
"458 595 CURVE",
"454 610 OFFCURVE",
"456 635 OFFCURVE",
"462 650 CURVE",
"705 650 LINE",
"705 631 OFFCURVE",
"705 612 OFFCURVE",
"702 595 CURVE"
);
},
{
closed = 1;
nodes = (
"709 40 OFFCURVE",
"707 20 OFFCURVE",
"702 0 CURVE",
"490 0 LINE",
"326 255 LINE SMOOTH",
"315 272 OFFCURVE",
"308 279 OFFCURVE",
"285 279 CURVE",
"370 392 LINE",
"425 392 OFFCURVE",
"454 364 OFFCURVE",
"481 321 CURVE SMOOTH",
"611 119 LINE SMOOTH",
"643 68 OFFCURVE",
"662 59 OFFCURVE",
"707 57 CURVE"
);
}
);
width = 746;
},
{
anchors = (
{
name = bottom;
position = "{279, 0}";
},
{
name = top;
position = "{279, 601}";
}
);
layerId = "2F11256F-FD75-4935-B7A9-D8816F9A9CE0";
paths = (
{
closed = 1;
nodes = (
"163 575 OFFCURVE",
"148 566 OFFCURVE",
"148 537 CURVE SMOOTH",
"148 8 LINE",
"120 51 LINE",
"158 30 OFFCURVE",
"182 23 OFFCURVE",
"215 21 CURVE",
"215 14 OFFCURVE",
"214 6 OFFCURVE",
"212 0 CURVE",
"34 0 LINE",
"33 7 OFFCURVE",
"34 16 OFFCURVE",
"37 21 CURVE",
"85 27 OFFCURVE",
"100 36 OFFCURVE",
"100 66 CURVE SMOOTH",
"100 582 LINE",
"126 551 LINE",
"88 571 OFFCURVE",
"65 578 OFFCURVE",
"31 580 CURVE",
"31 587 OFFCURVE",
"32 597 OFFCURVE",
"34 601 CURVE",
"212 601 LINE",
"212 596 OFFCURVE",
"212 586 OFFCURVE",
"210 580 CURVE"
);
},
{
closed = 1;
nodes = (
"467 580 OFFCURVE",
"441 569 OFFCURVE",
"417 544 CURVE SMOOTH",
"138 251 LINE",
"108 264 LINE",
"391 566 LINE",
"399 556 LINE",
"375 572 OFFCURVE",
"349 578 OFFCURVE",
"322 580 CURVE",
"322 587 OFFCURVE",
"323 596 OFFCURVE",
"326 601 CURVE",
"513 601 LINE",
"513 593 OFFCURVE",
"512 587 OFFCURVE",
"510 580 CURVE"
);
},
{
closed = 1;
nodes = (
"514 16 OFFCURVE",
"513 7 OFFCURVE",
"510 0 CURVE",
"414 0 LINE",
"208 271 LINE SMOOTH",
"197 286 OFFCURVE",
"188 291 OFFCURVE",
"170 290 CURVE",
"202 322 LINE",
"226 321 OFFCURVE",
"239 313 OFFCURVE",
"254 293 CURVE SMOOTH",
"413 79 LINE SMOOTH",
"447 35 OFFCURVE",
"470 26 OFFCURVE",
"514 23 CURVE"
);
}
);
width = 558;
}
);
unicode = 004B;
},
{
glyphname = L;
layers = (
{
anchors = (
{
name = bottom;
position = "{284, 0}";
},
{
name = commaaccent;
position = "{390, 650}";
},
{
name = top;
position = "{200, 650}";
}
);
layerId = "9482A91E-411F-4CFA-81A1-53DA6722202C";
paths = (
{
closed = 1;
nodes = (
"299 588 OFFCURVE",
"271 578 OFFCURVE",
"271 534 CURVE SMOOTH",
"271 15 LINE",
"225 62 LINE",
"414 62 LINE SMOOTH",
"485 62 OFFCURVE",
"484 117 OFFCURVE",
"491 188 CURVE",
"509 188 OFFCURVE",
"536 186 OFFCURVE",
"548 185 CURVE",
"553 123 OFFCURVE",
"556 60 OFFCURVE",
"554 0 CURVE",
"43 0 LINE",
"42 18 OFFCURVE",
"43 40 OFFCURVE",
"48 57 CURVE",
"83 63 OFFCURVE",
"111 73 OFFCURVE",
"111 117 CURVE SMOOTH",
"111 592 LINE",
"113 582 LINE",
"97 591 OFFCURVE",
"60 594 OFFCURVE",
"41 594 CURVE",
"40 610 OFFCURVE",
"42 634 OFFCURVE",
"45 650 CURVE",
"339 650 LINE",
"341 633 OFFCURVE",
"339 610 OFFCURVE",
"334 594 CURVE"
);
}
);
width = 573;
},
{
anchors = (
{
name = bottom;
position = "{244, 0}";
},
{
name = commaaccent;
position = "{260, 601}";
},
{
name = top;
position = "{126, 599}";
}
);
layerId = "2F11256F-FD75-4935-B7A9-D8816F9A9CE0";
paths = (
{
closed = 1;
nodes = (
"161 575 OFFCURVE",
"146 566 OFFCURVE",
"146 537 CURVE SMOOTH",
"146 19 LINE",
"135 28 LINE",
"342 28 LINE SMOOTH",
"409 28 OFFCURVE",
"426 54 OFFCURVE",
"432 121 CURVE",
"437 121 OFFCURVE",
"445 121 OFFCURVE",
"449 120 CURVE",
"454 81 OFFCURVE",
"456 41 OFFCURVE",
"453 0 CURVE",
"33 0 LINE",
"32 7 OFFCURVE",
"33 16 OFFCURVE",
"35 21 CURVE",
"83 27 OFFCURVE",
"98 36 OFFCURVE",
"98 66 CURVE SMOOTH",
"98 582 LINE",
"124 551 LINE",
"87 571 OFFCURVE",
"63 578 OFFCURVE",
"30 580 CURVE",
"30 587 OFFCURVE",
"31 597 OFFCURVE",
"32 601 CURVE",
"210 601 LINE",
"211 596 OFFCURVE",
"210 586 OFFCURVE",
"208 580 CURVE"
);
}
);
width = 484;
}
);
unicode = 004C;
},
{
glyphname = M;
layers = (
{
layerId = "9482A91E-411F-4CFA-81A1-53DA6722202C";
paths = (
{
closed = 1;
nodes = (
"330 650 LINE",
"466 241 LINE",
"431 218 LINE",
"600 650 LINE",
"855 650 LINE",
"858 631 OFFCURVE",
"858 615 OFFCURVE",
"856 595 CURVE",
"821 588 OFFCURVE",
"794 581 OFFCURVE",
"796 536 CURVE SMOOTH",
"817 50 LINE",
"809 65 LINE",
"835 57 OFFCURVE",
"866 57 OFFCURVE",
"894 57 CURVE",
"896 39 OFFCURVE",
"896 19 OFFCURVE",
"895 0 CURVE",
"571 0 LINE",
"569 20 OFFCURVE",
"569 38 OFFCURVE",
"570 57 CURVE",
"603 63 OFFCURVE",
"654 70 OFFCURVE",
"654 117 CURVE SMOOTH",
"654 633 LINE",
"684 607 LINE",
"622 448 LINE",
"446 0 LINE",
"403 0 LINE",
"254 424 LINE",
"194 594 LINE",
"220 580 LINE",
"189 21 LINE",
"171 72 LINE",
"198 57 OFFCURVE",
"234 57 OFFCURVE",
"265 57 CURVE",
"264 39 OFFCURVE",
"262 19 OFFCURVE",
"258 0 CURVE",
"30 0 LINE",
"31 20 OFFCURVE",
"31 38 OFFCURVE",
"36 57 CURVE",
"66 63 OFFCURVE",
"100 70 OFFCURVE",
"102 116 CURVE SMOOTH",
"122 584 LINE",
"100 592 OFFCURVE",
"84 595 OFFCURVE",
"62 595 CURVE",
"61 615 OFFCURVE",
"64 633 OFFCURVE",
"69 650 CURVE"
);
}
);
width = 925;
},
{
layerId = "2F11256F-FD75-4935-B7A9-D8816F9A9CE0";
paths = (
{
closed = 1;
nodes = (
"190 601 LINE",
"395 44 LINE",
"368 44 LINE",
"590 601 LINE",
"688 601 LINE",
"690 596 OFFCURVE",
"692 587 OFFCURVE",
"692 579 CURVE",
"661 577 OFFCURVE",
"644 563 OFFCURVE",
"646 530 CURVE SMOOTH",
"689 26 LINE",
"661 51 LINE",
"700 31 OFFCURVE",
"725 23 OFFCURVE",
"758 21 CURVE",
"759 15 OFFCURVE",
"759 6 OFFCURVE",
"757 0 CURVE",
"579 0 LINE",
"578 7 OFFCURVE",
"578 16 OFFCURVE",
"579 21 CURVE",
"627 27 OFFCURVE",
"641 36 OFFCURVE",
"639 66 CURVE SMOOTH",
"595 584 LINE",
"608 563 LINE",
"568 455 LINE",
"386 0 LINE",
"368 0 LINE",
"193 474 LINE",
"159 573 LINE",
"167 576 LINE",
"121 25 LINE",
"99 50 LINE",
"128 31 OFFCURVE",
"165 23 OFFCURVE",
"197 21 CURVE",
"197 15 OFFCURVE",
"195 6 OFFCURVE",
"193 0 CURVE",
"11 0 LINE",
"11 7 OFFCURVE",
"13 16 OFFCURVE",
"15 21 CURVE",
"64 27 OFFCURVE",
"89 45 OFFCURVE",
"91 73 CURVE SMOOTH",
"133 566 LINE",
"117 572 OFFCURVE",
"108 575 OFFCURVE",
"86 578 CURVE",
"84 586 OFFCURVE",
"84 595 OFFCURVE",
"86 601 CURVE"
);
}
);
width = 777;
}
);
unicode = 004D;
},
{
glyphname = N;
layers = (
{
anchors = (
{
name = bottom;
position = "{392, 0}";
},
{
name = top;
position = "{398, 650}";
}
);
layerId = "9482A91E-411F-4CFA-81A1-53DA6722202C";
paths = (
{
closed = 1;
nodes = (
"508 350 LINE",
"590 230 LINE",
"562 125 LINE",
"562 592 LINE",
"565 582 LINE",
"548 591 OFFCURVE",
"511 594 OFFCURVE",
"492 594 CURVE",
"491 610 OFFCURVE",
"493 634 OFFCURVE",
"496 650 CURVE",
"717 650 LINE",
"718 633 OFFCURVE",
"717 610 OFFCURVE",
"712 594 CURVE",
"676 588 OFFCURVE",
"649 578 OFFCURVE",
"649 534 CURVE SMOOTH",
"649 0 LINE",
"581 0 LINE",
"276 386 LINE",
"163 548 LINE",
"209 580 LINE",
"209 43 LINE",
"206 69 LINE",
"223 59 OFFCURVE",
"260 57 OFFCURVE",
"279 57 CURVE",
"280 40 OFFCURVE",
"278 17 OFFCURVE",
"275 0 CURVE",
"54 0 LINE",
"53 18 OFFCURVE",
"54 40 OFFCURVE",
"59 57 CURVE",
"95 63 OFFCURVE",
"122 73 OFFCURVE",
"122 117 CURVE SMOOTH",
"122 603 LINE",
"145 578 LINE",
"123 595 OFFCURVE",
"82 595 OFFCURVE",
"48 595 CURVE",
"49 615 OFFCURVE",
"50 632 OFFCURVE",
"55 650 CURVE",
"271 650 LINE"
);
}
);
width = 765;
},
{
anchors = (
{
name = bottom;
position = "{329, 0}";
},
{
name = top;
position = "{330, 601}";
}
);
layerId = "2F11256F-FD75-4935-B7A9-D8816F9A9CE0";
paths = (
{
closed = 1;
nodes = (
"418 226 LINE",
"528 61 LINE",
"505 63 LINE",
"505 581 LINE",
"511 561 LINE",
"485 574 OFFCURVE",
"455 578 OFFCURVE",
"427 580 CURVE",
"427 587 OFFCURVE",
"428 597 OFFCURVE",
"430 601 CURVE",
"612 601 LINE",
"612 596 OFFCURVE",
"612 586 OFFCURVE",
"610 580 CURVE",
"561 575 OFFCURVE",
"539 557 OFFCURVE",
"539 528 CURVE SMOOTH",
"539 0 LINE",
"517 0 LINE",
"183 479 LINE",
"127 566 LINE",
"138 566 LINE",
"138 20 LINE",
"131 41 LINE",
"157 29 OFFCURVE",
"188 23 OFFCURVE",
"215 21 CURVE",
"215 14 OFFCURVE",
"214 6 OFFCURVE",
"212 0 CURVE",
"32 0 LINE",
"31 7 OFFCURVE",
"32 16 OFFCURVE",
"34 21 CURVE",
"82 27 OFFCURVE",
"104 44 OFFCURVE",
"104 73 CURVE SMOOTH",
"104 575 LINE",
"110 562 LINE",
"85 573 OFFCURVE",
"64 579 OFFCURVE",
"38 580 CURVE",
"38 587 OFFCURVE",
"39 597 OFFCURVE",
"40 601 CURVE",
"156 601 LINE"
);
}
);
width = 631;
}
);
unicode = 004E;
},
{
glyphname = O;
layers = (
{
anchors = (
{
name = top;
position = "{357, 650}";
}
);
layerId = "9482A91E-411F-4CFA-81A1-53DA6722202C";
paths = (
{
closed = 1;
nodes = (
"176 -14 OFFCURVE",
"50 119 OFFCURVE",
"50 323 CURVE SMOOTH",
"50 527 OFFCURVE",
"176 664 OFFCURVE",
"355 664 CURVE SMOOTH",
"533 664 OFFCURVE",
"663 527 OFFCURVE",
"663 323 CURVE SMOOTH",
"663 119 OFFCURVE",
"533 -14 OFFCURVE",
"355 -14 CURVE SMOOTH"
);
},
{
closed = 1;
nodes = (
"469 528 OFFCURVE",
"425 600 OFFCURVE",
"350 600 CURVE SMOOTH",
"275 600 OFFCURVE",
"240 526 OFFCURVE",
"242 323 CURVE SMOOTH",
"244 120 OFFCURVE",
"284 50 OFFCURVE",
"359 50 CURVE SMOOTH",
"434 50 OFFCURVE",
"473 118 OFFCURVE",
"471 324 CURVE SMOOTH"
);
}
);
width = 712;
},
{
anchors = (
{
name = top;
position = "{323, 601}";
}
);
layerId = "2F11256F-FD75-4935-B7A9-D8816F9A9CE0";
paths = (
{
closed = 1;
nodes = (
"156 -13 OFFCURVE",
"57 119 OFFCURVE",
"57 299 CURVE SMOOTH",
"57 479 OFFCURVE",
"155 614 OFFCURVE",
"322 614 CURVE SMOOTH",
"489 614 OFFCURVE",
"589 479 OFFCURVE",
"589 299 CURVE SMOOTH",
"589 119 OFFCURVE",
"489 -13 OFFCURVE",
"323 -13 CURVE SMOOTH"
);
},
{
closed = 1;
nodes = (
"531 488 OFFCURVE",
"440 580 OFFCURVE",
"314 580 CURVE SMOOTH",
"187 580 OFFCURVE",
"105 459 OFFCURVE",
"110 299 CURVE SMOOTH",
"114 101 OFFCURVE",
"204 21 OFFCURVE",
"331 21 CURVE SMOOTH",
"459 21 OFFCURVE",
"540 129 OFFCURVE",
"536 300 CURVE SMOOTH"
);
}
);
width = 646;
}
);
unicode = 004F;
},
{
glyphname = P;
layers = (
{
layerId = "9482A91E-411F-4CFA-81A1-53DA6722202C";
paths = (
{
closed = 1;
nodes = (
"604 341 OFFCURVE",
"490 266 OFFCURVE",
"335 266 CURVE SMOOTH",
"256 266 LINE",
"252 281 OFFCURVE",
"251 310 OFFCURVE",
"251 328 CURVE",
"307 328 LINE SMOOTH",
"387 328 OFFCURVE",
"433 376 OFFCURVE",
"433 457 CURVE SMOOTH",
"433 541 OFFCURVE",
"388 587 OFFCURVE",
"307 587 CURVE SMOOTH",
"256 587 LINE",
"271 602 LINE",
"271 63 LINE",
"268 77 LINE",
"291 67 OFFCURVE",
"330 59 OFFCURVE",
"358 57 CURVE",
"359 40 OFFCURVE",
"357 17 OFFCURVE",
"353 0 CURVE",
"43 0 LINE",
"42 18 OFFCURVE",
"43 40 OFFCURVE",
"48 57 CURVE",
"83 63 OFFCURVE",
"111 73 OFFCURVE",
"111 117 CURVE SMOOTH",
"111 592 LINE",
"114 582 LINE",
"96 591 OFFCURVE",
"60 594 OFFCURVE",
"41 594 CURVE",
"40 610 OFFCURVE",
"42 634 OFFCURVE",
"45 650 CURVE",
"334 650 LINE SMOOTH",
"489 650 OFFCURVE",
"604 573 OFFCURVE",
"604 457 CURVE SMOOTH"
);
}
);
width = 611;
},
{
layerId = "2F11256F-FD75-4935-B7A9-D8816F9A9CE0";
paths = (
{
closed = 1;
nodes = (
"466 343 OFFCURVE",
"393 258 OFFCURVE",
"265 258 CURVE SMOOTH",
"130 258 LINE",
"126 266 OFFCURVE",
"125 276 OFFCURVE",
"125 286 CURVE",
"251 286 LINE SMOOTH",
"360 286 OFFCURVE",
"408 353 OFFCURVE",
"408 429 CURVE SMOOTH",
"408 508 OFFCURVE",
"362 575 OFFCURVE",
"251 575 CURVE SMOOTH",
"136 575 LINE",
"146 581 LINE",
"146 21 LINE",
"138 45 LINE",
"173 30 OFFCURVE",
"208 23 OFFCURVE",
"247 21 CURVE",
"247 14 OFFCURVE",
"246 6 OFFCURVE",
"244 0 CURVE",
"33 0 LINE",
"32 7 OFFCURVE",
"33 16 OFFCURVE",
"35 21 CURVE",
"83 27 OFFCURVE",
"98 36 OFFCURVE",
"98 66 CURVE SMOOTH",
"98 579 LINE",
"124 551 LINE",
"87 570 OFFCURVE",
"63 579 OFFCURVE",
"30 580 CURVE",
"30 587 OFFCURVE",
"31 597 OFFCURVE",
"32 601 CURVE",
"265 601 LINE SMOOTH",
"393 601 OFFCURVE",
"466 517 OFFCURVE",
"466 429 CURVE SMOOTH"
);
}
);
width = 495;
}
);
unicode = 0050;
},
{
glyphname = Q;
layers = (
{
components = (
{
name = O;
alignment = -1;
}
);
layerId = "9482A91E-411F-4CFA-81A1-53DA6722202C";
paths = (
{
closed = 1;
nodes = (
"452 10 LINE",
"464 -44 OFFCURVE",
"488 -73 OFFCURVE",
"519 -73 CURVE SMOOTH",
"547 -73 OFFCURVE",
"585 -63 OFFCURVE",
"613 -50 CURVE",
"634 -94 LINE",
"586 -131 OFFCURVE",
"529 -158 OFFCURVE",
"457 -158 CURVE SMOOTH",
"379 -158 OFFCURVE",
"313 -85 OFFCURVE",
"293 -1 CURVE"
);
}
);
width = 712;
},
{
components = (
{
name = O;
alignment = -1;
}
);
layerId = "2F11256F-FD75-4935-B7A9-D8816F9A9CE0";
paths = (
{
closed = 1;
nodes = (
"345 -7 LINE",
"355 -59 OFFCURVE",
"381 -113 OFFCURVE",
"425 -113 CURVE SMOOTH",
"449 -113 OFFCURVE",
"489 -106 OFFCURVE",
"520 -95 CURVE",
"530 -111 LINE",
"498 -133 OFFCURVE",
"457 -150 OFFCURVE",
"418 -150 CURVE SMOOTH",
"359 -150 OFFCURVE",
"309 -79 OFFCURVE",
"295 -7 CURVE"
);
}
);
width = 646;
}
);
unicode = 0051;
},
{
glyphname = R;
layers = (
{
anchors = (
{
name = bottom;
position = "{352, 0}";
},
{
name = top;
position = "{343, 650}";
}
);
layerId = "9482A91E-411F-4CFA-81A1-53DA6722202C";
paths = (
{
closed = 1;
nodes = (
"604 361 OFFCURVE",
"509 296 OFFCURVE",
"355 296 CURVE SMOOTH",
"235 296 LINE",
"231 311 OFFCURVE",
"230 340 OFFCURVE",
"230 358 CURVE",
"328 358 LINE SMOOTH",
"390 358 OFFCURVE",
"434 393 OFFCURVE",
"434 473 CURVE SMOOTH",
"434 553 OFFCURVE",
"390 587 OFFCURVE",
"328 587 CURVE SMOOTH",
"245 587 LINE",
"271 602 LINE",
"271 42 LINE",
"267 77 LINE",
"291 67 OFFCURVE",
"330 59 OFFCURVE",
"357 57 CURVE",
"359 40 OFFCURVE",
"356 17 OFFCURVE",
"353 0 CURVE",
"42 0 LINE",
"41 18 OFFCURVE",
"42 40 OFFCURVE",
"48 57 CURVE",
"83 63 OFFCURVE",
"111 73 OFFCURVE",
"111 117 CURVE SMOOTH",
"111 592 LINE",
"113 582 LINE",
"96 591 OFFCURVE",
"60 594 OFFCURVE",
"40 594 CURVE",
"39 610 OFFCURVE",
"41 634 OFFCURVE",
"45 650 CURVE",
"355 650 LINE SMOOTH",
"509 650 OFFCURVE",
"604 586 OFFCURVE",
"604 473 CURVE SMOOTH"
);
},
{
closed = 1;
nodes = (
"347 263 LINE SMOOTH",
"337 285 OFFCURVE",
"326 296 OFFCURVE",
"303 296 CURVE",
"410 327 LINE",
"469 328 OFFCURVE",
"502 294 OFFCURVE",
"528 243 CURVE SMOOTH",
"586 127 LINE SMOOTH",
"612 75 OFFCURVE",
"633 63 OFFCURVE",
"672 63 CURVE",
"672 42 OFFCURVE",
"670 20 OFFCURVE",
"666 0 CURVE",
"471 0 LINE"
);
}
);
width = 702;
},
{
anchors = (
{
name = bottom;
position = "{291, 0}";
},
{
name = top;
position = "{283, 599}";
}
);
layerId = "2F11256F-FD75-4935-B7A9-D8816F9A9CE0";
paths = (
{
closed = 1;
nodes = (
"435 351 OFFCURVE",
"377 282 OFFCURVE",
"250 282 CURVE SMOOTH",
"128 282 LINE",
"125 290 OFFCURVE",
"123 300 OFFCURVE",
"123 310 CURVE",
"236 310 LINE SMOOTH",
"344 310 OFFCURVE",
"379 366 OFFCURVE",
"379 441 CURVE SMOOTH",
"379 516 OFFCURVE",
"344 575 OFFCURVE",
"236 575 CURVE SMOOTH",
"137 575 LINE",
"148 581 LINE",
"148 20 LINE",
"139 45 LINE",
"169 31 OFFCURVE",
"193 24 OFFCURVE",
"228 21 CURVE",
"229 14 OFFCURVE",
"228 6 OFFCURVE",
"226 0 CURVE",
"34 0 LINE",
"33 7 OFFCURVE",
"34 16 OFFCURVE",
"37 21 CURVE",
"85 27 OFFCURVE",
"100 36 OFFCURVE",
"100 66 CURVE SMOOTH",
"100 575 LINE",
"125 551 LINE",
"89 570 OFFCURVE",
"65 579 OFFCURVE",
"31 580 CURVE",
"31 587 OFFCURVE",
"32 597 OFFCURVE",
"34 601 CURVE",
"250 601 LINE SMOOTH",
"377 601 OFFCURVE",
"435 531 OFFCURVE",
"435 441 CURVE SMOOTH"
);
},
{
closed = 1;
nodes = (
"310 228 LINE SMOOTH",
"293 261 OFFCURVE",
"279 282 OFFCURVE",
"222 282 CURVE",
"282 296 LINE",
"326 292 OFFCURVE",
"343 271 OFFCURVE",
"361 237 CURVE SMOOTH",
"448 73 LINE SMOOTH",
"470 32 OFFCURVE",
"486 20 OFFCURVE",
"525 20 CURVE",
"525 14 OFFCURVE",
"525 7 OFFCURVE",
"523 0 CURVE",
"428 0 LINE"
);
}
);
width = 530;
}
);
unicode = 0052;
},
{
glyphname = S;
layers = (
{
anchors = (
{
name = bottom;
position = "{260, 0}";
},
{
name = top;
position = "{279, 650}";
}
);
layerId = "9482A91E-411F-4CFA-81A1-53DA6722202C";
paths = (
{
closed = 1;
nodes = (
"457 580 OFFCURVE",
"450 510 OFFCURVE",
"443 460 CURVE",
"426 460 OFFCURVE",
"408 461 OFFCURVE",
"391 463 CURVE",
"377 567 OFFCURVE",
"330 594 OFFCURVE",
"277 594 CURVE SMOOTH",
"227 594 OFFCURVE",
"183 569 OFFCURVE",
"183 523 CURVE SMOOTH",
"183 379 OFFCURVE",
"491 406 OFFCURVE",
"491 184 CURVE SMOOTH",
"491 57 OFFCURVE",
"374 -14 OFFCURVE",
"253 -14 CURVE SMOOTH",
"195 -14 OFFCURVE",
"125 0 OFFCURVE",
"52 17 CURVE",
"49 81 OFFCURVE",
"55 174 OFFCURVE",
"60 221 CURVE",
"83 221 OFFCURVE",
"102 219 OFFCURVE",
"127 215 CURVE",
"124 96 OFFCURVE",
"180 60 OFFCURVE",
"258 60 CURVE SMOOTH",
"315 60 OFFCURVE",
"350 86 OFFCURVE",
"350 131 CURVE SMOOTH",
"350 280 OFFCURVE",
"50 252 OFFCURVE",
"50 481 CURVE SMOOTH",
"50 600 OFFCURVE",
"148 664 OFFCURVE",
"278 664 CURVE SMOOTH",
"347 664 OFFCURVE",
"402 651 OFFCURVE",
"457 635 CURVE"
);
}
);
width = 534;
},
{
anchors = (
{
name = bottom;
position = "{237, 0}";
},
{
name = top;
position = "{251, 601}";
}
);
layerId = "2F11256F-FD75-4935-B7A9-D8816F9A9CE0";
paths = (
{
closed = 1;
nodes = (
"393 541 OFFCURVE",
"390 509 OFFCURVE",
"384 476 CURVE",
"379 476 OFFCURVE",
"372 476 OFFCURVE",
"369 478 CURVE",
"356 547 OFFCURVE",
"309 579 OFFCURVE",
"235 579 CURVE SMOOTH",
"159 579 OFFCURVE",
"116 538 OFFCURVE",
"116 473 CURVE SMOOTH",
"116 318 OFFCURVE",
"411 348 OFFCURVE",
"411 156 CURVE SMOOTH",
"411 58 OFFCURVE",
"332 -7 OFFCURVE",
"215 -7 CURVE SMOOTH",
"154 -7 OFFCURVE",
"107 7 OFFCURVE",
"56 37 CURVE",
"54 86 OFFCURVE",
"58 131 OFFCURVE",
"64 169 CURVE",
"69 169 OFFCURVE",
"73 169 OFFCURVE",
"79 167 CURVE",
"77 55 OFFCURVE",
"139 22 OFFCURVE",
"224 22 CURVE SMOOTH",
"303 22 OFFCURVE",
"362 74 OFFCURVE",
"362 145 CURVE SMOOTH",
"362 310 OFFCURVE",
"69 282 OFFCURVE",
"69 466 CURVE SMOOTH",
"69 555 OFFCURVE",
"145 610 OFFCURVE",
"242 610 CURVE SMOOTH",
"303 610 OFFCURVE",
"352 596 OFFCURVE",
"394 579 CURVE"
);
}
);
width = 456;
}
);
unicode = 0053;
},
{
glyphname = T;
layers = (
{
anchors = (
{
name = bottom;
position = "{295, 0}";
},
{
name = top;
position = "{295, 650}";
}
);
layerId = "9482A91E-411F-4CFA-81A1-53DA6722202C";
paths = (
{
closed = 1;
nodes = (
"375 42 LINE",
"371 69 LINE",
"389 60 OFFCURVE",
"425 57 OFFCURVE",
"444 57 CURVE",
"445 40 OFFCURVE",
"443 17 OFFCURVE",
"440 0 CURVE",
"148 0 LINE",
"147 18 OFFCURVE",
"148 40 OFFCURVE",
"154 57 CURVE",
"187 63 OFFCURVE",
"215 73 OFFCURVE",
"215 117 CURVE SMOOTH",
"215 631 LINE",
"375 631 LINE"
);
},
{
closed = 1;
nodes = (
"574 650 LINE",
"581 598 OFFCURVE",
"581 524 OFFCURVE",
"578 477 CURVE",
"567 473 OFFCURVE",
"536 470 OFFCURVE",
"524 472 CURVE",
"516 561 OFFCURVE",
"490 587 OFFCURVE",
"437 587 CURVE SMOOTH",
"153 587 LINE SMOOTH",
"100 587 OFFCURVE",
"73 561 OFFCURVE",
"66 472 CURVE",
"54 470 OFFCURVE",
"23 473 OFFCURVE",
"11 477 CURVE",
"8 524 OFFCURVE",
"8 598 OFFCURVE",
"16 650 CURVE"
);
}
);
width = 590;
},
{
anchors = (
{
name = bottom;
position = "{247, 0}";
},
{
name = top;
position = "{247, 601}";
}
);
layerId = "2F11256F-FD75-4935-B7A9-D8816F9A9CE0";
paths = (
{
closed = 1;
nodes = (
"271 20 LINE",
"262 44 LINE",
"298 30 OFFCURVE",
"333 23 OFFCURVE",
"371 21 CURVE",
"371 14 OFFCURVE",
"371 6 OFFCURVE",
"369 0 CURVE",
"121 0 LINE",
"121 7 OFFCURVE",
"121 16 OFFCURVE",
"124 21 CURVE",
"205 27 OFFCURVE",
"223 36 OFFCURVE",
"223 66 CURVE SMOOTH",
"223 587 LINE",
"271 587 LINE"
);
},
{
closed = 1;
nodes = (
"472 601 LINE",
"475 562 OFFCURVE",
"474 520 OFFCURVE",
"470 483 CURVE",
"464 481 OFFCURVE",
"458 480 OFFCURVE",
"453 481 CURVE",
"446 550 OFFCURVE",
"428 575 OFFCURVE",
"362 575 CURVE SMOOTH",
"132 575 LINE SMOOTH",
"66 575 OFFCURVE",
"47 550 OFFCURVE",
"41 481 CURVE",
"37 480 OFFCURVE",
"29 481 OFFCURVE",
"24 483 CURVE",
"19 520 OFFCURVE",
"18 562 OFFCURVE",
"22 601 CURVE"
);
}
);
width = 494;
}
);
unicode = 0054;
},
{
glyphname = U;
layers = (
{
anchors = (
{
name = ogonek;
position = "{481, 0}";
},
{
name = top;
position = "{367, 650}";
}
);
layerId = "9482A91E-411F-4CFA-81A1-53DA6722202C";
paths = (
{
closed = 1;
nodes = (
"643 202 LINE SMOOTH",
"643 47 OFFCURVE",
"529 -13 OFFCURVE",
"366 -13 CURVE SMOOTH",
"203 -13 OFFCURVE",
"91 47 OFFCURVE",
"91 202 CURVE SMOOTH",
"91 592 LINE",
"93 582 LINE",
"76 591 OFFCURVE",
"40 594 OFFCURVE",
"21 594 CURVE",
"19 610 OFFCURVE",
"22 634 OFFCURVE",
"25 650 CURVE",
"319 650 LINE",
"320 633 OFFCURVE",
"319 610 OFFCURVE",
"314 594 CURVE",
"279 588 OFFCURVE",
"251 578 OFFCURVE",
"251 534 CURVE SMOOTH",
"251 202 LINE SMOOTH",
"251 96 OFFCURVE",
"297 62 OFFCURVE",
"366 62 CURVE SMOOTH",
"435 62 OFFCURVE",
"482 96 OFFCURVE",
"482 202 CURVE SMOOTH",
"482 592 LINE",
"485 582 LINE",
"468 591 OFFCURVE",
"431 594 OFFCURVE",
"412 594 CURVE",
"411 610 OFFCURVE",
"413 634 OFFCURVE",
"416 650 CURVE",
"711 650 LINE",
"712 633 OFFCURVE",
"711 610 OFFCURVE",
"706 594 CURVE",
"670 588 OFFCURVE",
"643 578 OFFCURVE",
"643 534 CURVE SMOOTH"
);
}
);
width = 729;
},
{
anchors = (
{
name = ogonek;
position = "{398, 0}";
},
{
name = top;
position = "{319, 601}";
}
);
layerId = "2F11256F-FD75-4935-B7A9-D8816F9A9CE0";
paths = (
{
closed = 1;
nodes = (
"526 208 LINE SMOOTH",
"526 50 OFFCURVE",
"434 -12 OFFCURVE",
"319 -12 CURVE SMOOTH",
"204 -12 OFFCURVE",
"111 50 OFFCURVE",
"111 208 CURVE SMOOTH",
"111 582 LINE",
"137 551 LINE",
"99 571 OFFCURVE",
"76 578 OFFCURVE",
"43 580 CURVE",
"42 587 OFFCURVE",
"44 597 OFFCURVE",
"45 601 CURVE",
"223 601 LINE",
"223 596 OFFCURVE",
"223 586 OFFCURVE",
"221 580 CURVE",
"174 575 OFFCURVE",
"159 566 OFFCURVE",
"159 537 CURVE",
"159 200 LINE SMOOTH",
"159 77 OFFCURVE",
"226 22 OFFCURVE",
"319 22 CURVE SMOOTH",
"412 22 OFFCURVE",
"477 78 OFFCURVE",
"477 200 CURVE SMOOTH",
"477 582 LINE",
"505 551 LINE",
"467 571 OFFCURVE",
"443 578 OFFCURVE",
"410 580 CURVE",
"410 587 OFFCURVE",
"411 597 OFFCURVE",
"413 601 CURVE",
"591 601 LINE",
"592 596 OFFCURVE",
"591 586 OFFCURVE",
"589 580 CURVE",
"540 575 OFFCURVE",
"526 566 OFFCURVE",
"526 537 CURVE"
);
}
);
width = 633;
}
);
unicode = 0055;
},
{
glyphname = V;
layers = (
{
layerId = "9482A91E-411F-4CFA-81A1-53DA6722202C";
paths = (
{
closed = 1;
nodes = (
"247 589 OFFCURVE",
"228 568 OFFCURVE",
"247 524 CURVE SMOOTH",
"369 244 LINE SMOOTH",
"379 220 OFFCURVE",
"384 201 OFFCURVE",
"389 178 CURVE",
"393 178 LINE",
"573 623 LINE",
"562 578 LINE",
"533 588 OFFCURVE",
"513 594 OFFCURVE",
"479 595 CURVE",
"479 615 OFFCURVE",
"478 632 OFFCURVE",
"482 650 CURVE",
"685 650 LINE",
"683 630 OFFCURVE",
"680 614 OFFCURVE",
"675 595 CURVE",
"642 588 OFFCURVE",
"623 571 OFFCURVE",
"608 536 CURVE SMOOTH",
"374 -6 LINE",
"311 -6 LINE",
"39 623 LINE",
"76 576 LINE",
"47 590 OFFCURVE",
"32 593 OFFCURVE",
"1 595 CURVE",
"-4 616 OFFCURVE",
"-6 629 OFFCURVE",
"-4 650 CURVE",
"310 650 LINE",
"314 634 OFFCURVE",
"314 614 OFFCURVE",
"313 595 CURVE"
);
}
);
width = 680;
},
{
layerId = "2F11256F-FD75-4935-B7A9-D8816F9A9CE0";
paths = (
{
closed = 1;
nodes = (
"120 574 OFFCURVE",
"112 569 OFFCURVE",
"124 536 CURVE SMOOTH",
"268 141 LINE SMOOTH",
"274 124 OFFCURVE",
"282 102 OFFCURVE",
"286 80 CURVE",
"289 80 LINE",
"469 585 LINE",
"467 562 LINE",
"445 572 OFFCURVE",
"423 577 OFFCURVE",
"397 579 CURVE",
"397 587 OFFCURVE",
"398 595 OFFCURVE",
"400 601 CURVE",
"557 601 LINE",
"557 594 OFFCURVE",
"556 587 OFFCURVE",
"554 579 CURVE",
"520 574 OFFCURVE",
"497 568 OFFCURVE",
"483 531 CURVE SMOOTH",
"290 -6 LINE",
"273 -6 LINE",
"54 587 LINE",
"93 554 LINE",
"69 566 OFFCURVE",
"32 576 OFFCURVE",
"7 579 CURVE",
"6 587 OFFCURVE",
"4 595 OFFCURVE",
"6 601 CURVE",
"167 601 LINE",
"169 594 OFFCURVE",
"170 587 OFFCURVE",
"170 579 CURVE"
);
}
);
width = 562;
}
);
unicode = 0056;
},
{
glyphname = W;
layers = (
{
layerId = "9482A91E-411F-4CFA-81A1-53DA6722202C";
paths = (
{
closed = 1;
nodes = (
"264 589 OFFCURVE",
"247 568 OFFCURVE",
"262 524 CURVE SMOOTH",
"347 274 LINE SMOOTH",
"354 254 OFFCURVE",
"357 235 OFFCURVE",
"359 215 CURVE",
"362 215 LINE",
"540 620 LINE",
"603 620 LINE",
"726 282 LINE SMOOTH",
"734 260 OFFCURVE",
"740 240 OFFCURVE",
"741 215 CURVE",
"744 215 LINE",
"876 625 LINE",
"887 575 LINE",
"855 586 OFFCURVE",
"832 593 OFFCURVE",
"804 595 CURVE",
"805 615 OFFCURVE",
"807 632 OFFCURVE",
"811 650 CURVE",
"983 650 LINE",
"984 631 OFFCURVE",
"983 615 OFFCURVE",
"980 595 CURVE",
"948 588 OFFCURVE",
"929 574 OFFCURVE",
"916 536 CURVE SMOOTH",
"727 -6 LINE",
"664 -6 LINE",
"499 418 LINE",
"523 431 LINE",
"328 -6 LINE",
"265 -6 LINE",
"49 628 LINE",
"94 574 LINE",
"58 590 OFFCURVE",
"36 594 OFFCURVE",
"9 595 CURVE",
"5 616 OFFCURVE",
"3 629 OFFCURVE",
"6 650 CURVE",
"325 650 LINE",
"330 629 OFFCURVE",
"332 614 OFFCURVE",
"332 595 CURVE"
);
}
);
width = 988;
},
{
layerId = "2F11256F-FD75-4935-B7A9-D8816F9A9CE0";
paths = (
{
closed = 1;
nodes = (
"120 574 OFFCURVE",
"112 568 OFFCURVE",
"121 536 CURVE SMOOTH",
"232 154 LINE SMOOTH",
"238 135 OFFCURVE",
"244 111 OFFCURVE",
"247 86 CURVE",
"250 86 LINE",
"428 569 LINE",
"443 569 LINE",
"594 139 LINE SMOOTH",
"600 122 OFFCURVE",
"605 102 OFFCURVE",
"607 81 CURVE",
"609 81 LINE",
"756 585 LINE",
"760 554 LINE",
"741 566 OFFCURVE",
"721 575 OFFCURVE",
"694 579 CURVE",
"695 587 OFFCURVE",
"697 595 OFFCURVE",
"699 601 CURVE",
"837 601 LINE",
"838 594 OFFCURVE",
"836 587 OFFCURVE",
"835 579 CURVE",
"796 572 OFFCURVE",
"781 565 OFFCURVE",
"769 525 CURVE SMOOTH",
"610 -6 LINE",
"595 -6 LINE",
"420 496 LINE",
"434 496 LINE",
"245 -6 LINE",
"229 -6 LINE",
"57 585 LINE",
"92 551 LINE",
"67 566 OFFCURVE",
"32 576 OFFCURVE",
"6 579 CURVE",
"5 587 OFFCURVE",
"4 595 OFFCURVE",
"5 601 CURVE",
"171 601 LINE",
"174 594 OFFCURVE",
"175 587 OFFCURVE",
"175 579 CURVE"
);
}
);
width = 842;
}
);
unicode = 0057;
},
{
glyphname = X;
layers = (
{
layerId = "9482A91E-411F-4CFA-81A1-53DA6722202C";
paths = (
{
closed = 1;
nodes = (
"349 385 LINE",
"510 609 LINE",
"505 586 LINE",
"483 590 OFFCURVE",
"463 593 OFFCURVE",
"444 594 CURVE",
"440 611 OFFCURVE",
"439 633 OFFCURVE",
"440 650 CURVE",
"636 650 LINE",
"636 629 OFFCURVE",
"633 610 OFFCURVE",
"626 594 CURVE",
"596 594 OFFCURVE",
"569 583 OFFCURVE",
"544 549 CURVE SMOOTH",
"388 331 LINE"
);
},
{
closed = 1;
nodes = (
"301 268 LINE",
"139 41 LINE",
"144 65 LINE",
"165 59 OFFCURVE",
"185 58 OFFCURVE",
"204 57 CURVE",
"208 39 OFFCURVE",
"210 18 OFFCURVE",
"208 0 CURVE",
"13 0 LINE",
"12 21 OFFCURVE",
"15 40 OFFCURVE",
"22 57 CURVE",
"52 56 OFFCURVE",
"79 69 OFFCURVE",
"104 102 CURVE",
"262 320 LINE"
);
},
{
closed = 1;
nodes = (
"246 589 OFFCURVE",
"243 572 OFFCURVE",
"253 558 CURVE SMOOTH",
"600 54 LINE",
"583 69 LINE",
"602 60 OFFCURVE",
"617 58 OFFCURVE",
"635 57 CURVE",
"638 44 OFFCURVE",
"640 18 OFFCURVE",
"638 0 CURVE",
"360 0 LINE",
"355 17 OFFCURVE",
"356 39 OFFCURVE",
"356 57 CURVE",
"397 64 OFFCURVE",
"399 78 OFFCURVE",
"390 92 CURVE SMOOTH",
"40 598 LINE",
"58 583 LINE",
"39 591 OFFCURVE",
"24 594 OFFCURVE",
"7 595 CURVE",
"4 613 OFFCURVE",
"2 633 OFFCURVE",
"5 650 CURVE",
"283 650 LINE",
"287 634 OFFCURVE",
"287 612 OFFCURVE",
"287 595 CURVE"
);
}
);
width = 643;
},
{
layerId = "2F11256F-FD75-4935-B7A9-D8816F9A9CE0";
paths = (
{
closed = 1;
nodes = (
"289 327 LINE",
"487 594 LINE",
"486 554 LINE",
"458 568 OFFCURVE",
"430 578 OFFCURVE",
"396 580 CURVE",
"396 587 OFFCURVE",
"397 595 OFFCURVE",
"399 601 CURVE",
"552 601 LINE",
"553 594 OFFCURVE",
"552 587 OFFCURVE",
"550 580 CURVE",
"516 575 OFFCURVE",
"503 564 OFFCURVE",
"479 532 CURVE SMOOTH",
"309 303 LINE"
);
},
{
closed = 1;
nodes = (
"293 280 LINE",
"105 15 LINE",
"102 48 LINE",
"129 32 OFFCURVE",
"158 23 OFFCURVE",
"191 21 CURVE",
"191 14 OFFCURVE",
"190 7 OFFCURVE",
"188 0 CURVE",
"35 0 LINE",
"34 7 OFFCURVE",
"35 15 OFFCURVE",
"37 21 CURVE",
"71 27 OFFCURVE",
"83 38 OFFCURVE",
"109 70 CURVE",
"270 303 LINE"
);
},
{
closed = 1;
nodes = (
"143 574 OFFCURVE",
"135 565 OFFCURVE",
"155 538 CURVE SMOOTH",
"524 14 LINE",
"467 46 LINE",
"489 36 OFFCURVE",
"525 26 OFFCURVE",
"549 21 CURVE",
"551 15 OFFCURVE",
"553 7 OFFCURVE",
"552 0 CURVE",
"390 0 LINE",
"386 7 OFFCURVE",
"386 15 OFFCURVE",
"386 21 CURVE",
"444 27 OFFCURVE",
"452 35 OFFCURVE",
"432 64 CURVE SMOOTH",
"59 593 LINE",
"120 554 LINE",
"97 566 OFFCURVE",
"62 576 OFFCURVE",
"38 579 CURVE",
"35 587 OFFCURVE",
"33 595 OFFCURVE",
"35 601 CURVE",
"198 601 LINE",
"201 594 OFFCURVE",
"202 587 OFFCURVE",
"202 580 CURVE"
);
}
);
width = 587;
}
);
unicode = 0058;
},
{
glyphname = Y;
layers = (
{
anchors = (
{
name = top;
position = "{374, 650}";
}
);
layerId = "9482A91E-411F-4CFA-81A1-53DA6722202C";
paths = (
{
closed = 1;
nodes = (
"266 589 OFFCURVE",
"256 562 OFFCURVE",
"277 524 CURVE SMOOTH",
"380 335 LINE",
"384 335 LINE",
"392 364 OFFCURVE",
"407 395 OFFCURVE",
"423 422 CURVE SMOOTH",
"541 626 LINE",
"551 577 LINE",
"514 588 OFFCURVE",
"503 594 OFFCURVE",
"466 595 CURVE",
"467 615 OFFCURVE",
"469 632 OFFCURVE",
"473 650 CURVE",
"669 650 LINE",
"668 631 OFFCURVE",
"666 615 OFFCURVE",
"661 595 CURVE",
"612 588 OFFCURVE",
"600 568 OFFCURVE",
"580 536 CURVE SMOOTH",
"426 279 LINE",
"426 64 LINE",
"449 57 OFFCURVE",
"478 57 OFFCURVE",
"504 57 CURVE",
"504 39 OFFCURVE",
"503 19 OFFCURVE",
"500 0 CURVE",
"177 0 LINE",
"176 20 OFFCURVE",
"177 38 OFFCURVE",
"180 57 CURVE",
"212 63 OFFCURVE",
"250 70 OFFCURVE",
"250 117 CURVE SMOOTH",
"250 279 LINE",
"42 626 LINE",
"99 574 LINE",
"63 591 OFFCURVE",
"40 596 OFFCURVE",
"10 595 CURVE",
"7 615 OFFCURVE",
"5 632 OFFCURVE",
"5 650 CURVE",
"326 650 LINE",
"330 631 OFFCURVE",
"333 615 OFFCURVE",
"333 595 CURVE"
);
}
);
width = 675;
},
{
anchors = (
{
name = top;
position = "{265, 601}";
}
);
layerId = "2F11256F-FD75-4935-B7A9-D8816F9A9CE0";
paths = (
{
closed = 1;
nodes = (
"115 574 OFFCURVE",
"105 565 OFFCURVE",
"123 532 CURVE SMOOTH",
"270 267 LINE",
"271 267 LINE",
"276 281 OFFCURVE",
"284 297 OFFCURVE",
"291 308 CURVE SMOOTH",
"464 580 LINE",
"468 559 LINE",
"443 570 OFFCURVE",
"424 577 OFFCURVE",
"391 579 CURVE",
"391 587 OFFCURVE",
"392 595 OFFCURVE",
"393 601 CURVE",
"541 601 LINE",
"542 594 OFFCURVE",
"541 587 OFFCURVE",
"539 579 CURVE",
"504 574 OFFCURVE",
"491 566 OFFCURVE",
"469 531 CURVE SMOOTH",
"288 245 LINE",
"288 38 LINE",
"312 28 OFFCURVE",
"331 23 OFFCURVE",
"356 21 CURVE",
"356 15 OFFCURVE",
"355 6 OFFCURVE",
"353 0 CURVE",
"174 0 LINE",
"173 7 OFFCURVE",
"174 16 OFFCURVE",
"176 21 CURVE",
"224 27 OFFCURVE",
"239 36 OFFCURVE",
"239 66 CURVE SMOOTH",
"239 232 LINE",
"34 593 LINE",
"82 554 LINE",
"58 566 OFFCURVE",
"22 576 OFFCURVE",
"-3 579 CURVE",
"-4 587 OFFCURVE",
"-6 595 OFFCURVE",
"-6 601 CURVE",
"164 601 LINE",
"167 594 OFFCURVE",
"168 587 OFFCURVE",
"168 579 CURVE"
);
}
);
width = 536;
}
);
unicode = 0059;
},
{
glyphname = Z;
layers = (
{
anchors = (
{
name = top;
position = "{309, 650}";
}
);
layerId = "9482A91E-411F-4CFA-81A1-53DA6722202C";
paths = (
{
closed = 1;
nodes = (
"513 650 LINE",
"520 632 OFFCURVE",
"524 608 OFFCURVE",
"523 579 CURVE",
"214 51 LINE",
"213 80 LINE",
"408 80 LINE SMOOTH",
"455 80 OFFCURVE",
"479 97 OFFCURVE",
"492 169 CURVE",
"505 169 OFFCURVE",
"519 166 OFFCURVE",
"530 160 CURVE",
"530 113 OFFCURVE",
"529 53 OFFCURVE",
"522 0 CURVE",
"55 0 LINE",
"48 19 OFFCURVE",
"44 42 OFFCURVE",
"45 71 CURVE",
"355 602 LINE",
"383 571 LINE",
"169 571 LINE SMOOTH",
"122 571 OFFCURVE",
"99 552 OFFCURVE",
"84 481 CURVE",
"72 481 OFFCURVE",
"58 484 OFFCURVE",
"46 489 CURVE",
"46 538 OFFCURVE",
"48 598 OFFCURVE",
"55 650 CURVE"
);
}
);
width = 569;
},
{
anchors = (
{
name = top;
position = "{301, 601}";
}
);
layerId = "2F11256F-FD75-4935-B7A9-D8816F9A9CE0";
paths = (
{
closed = 1;
nodes = (
"466 601 LINE",
"469 594 OFFCURVE",
"470 585 OFFCURVE",
"470 576 CURVE",
"98 11 LINE",
"92 29 LINE",
"355 29 LINE SMOOTH",
"422 29 OFFCURVE",
"442 54 OFFCURVE",
"452 121 CURVE",
"457 121 OFFCURVE",
"463 120 OFFCURVE",
"467 118 CURVE",
"467 80 OFFCURVE",
"465 40 OFFCURVE",
"458 0 CURVE",
"60 0 LINE",
"56 6 OFFCURVE",
"53 16 OFFCURVE",
"53 25 CURVE",
"424 588 LINE",
"433 574 LINE",
"188 574 LINE SMOOTH",
"122 574 OFFCURVE",
"101 547 OFFCURVE",
"91 480 CURVE",
"87 480 OFFCURVE",
"81 481 OFFCURVE",
"75 484 CURVE",
"75 522 OFFCURVE",
"79 563 OFFCURVE",
"86 601 CURVE"
);
}
);
width = 530;
}
);
unicode = 005A;
},
{
glyphname = bracketleft;
layers = (
{
layerId = "9482A91E-411F-4CFA-81A1-53DA6722202C";
paths = (
{
closed = 1;
nodes = (
"255 713 LINE",
"384 713 LINE",
"384 789 LINE",
"100 789 LINE",
"100 -140 LINE",
"384 -140 LINE",
"384 -64 LINE",
"255 -64 LINE"
);
}
);
width = 414;
},
{
layerId = "2F11256F-FD75-4935-B7A9-D8816F9A9CE0";
paths = (
{
closed = 1;
nodes = (
"150 743 LINE",
"265 743 LINE",
"265 770 LINE",
"100 770 LINE",
"100 -128 LINE",
"265 -128 LINE",
"265 -101 LINE",
"150 -101 LINE"
);
}
);
width = 295;
}
);
unicode = 005B;
},
{
glyphname = backslash;
layers = (
{
layerId = "9482A91E-411F-4CFA-81A1-53DA6722202C";
paths = (
{
closed = 1;
nodes = (
"164 763 LINE",
"383 -107 LINE",
"261 -107 LINE",
"40 763 LINE"
);
}
);
width = 445;
},
{
layerId = "2F11256F-FD75-4935-B7A9-D8816F9A9CE0";
paths = (
{
closed = 1;
nodes = (
"171 675 LINE",
"342 -5 LINE",
"298 -5 LINE",
"126 675 LINE"
);
}
);
width = 465;
}
);
unicode = 005C;
},
{
glyphname = bracketright;
layers = (
{
layerId = "9482A91E-411F-4CFA-81A1-53DA6722202C";
paths = (
{
closed = 1;
nodes = (
"30 -64 LINE",
"30 -140 LINE",
"314 -140 LINE",
"314 789 LINE",
"30 789 LINE",
"30 713 LINE",
"159 713 LINE",
"159 -64 LINE"
);
}
);
width = 414;
},
{
layerId = "2F11256F-FD75-4935-B7A9-D8816F9A9CE0";
paths = (
{
closed = 1;
nodes = (
"30 -101 LINE",
"30 -128 LINE",
"195 -128 LINE",
"195 770 LINE",
"30 770 LINE",
"30 743 LINE",
"145 743 LINE",
"145 -101 LINE"
);
}
);
width = 295;
}
);
unicode = 005D;
},
{
glyphname = asciicircum;
layers = (
{
layerId = "9482A91E-411F-4CFA-81A1-53DA6722202C";
paths = (
{
closed = 1;
nodes = (
"40 230 LINE",
"149 230 LINE",
"276 506 LINE",
"403 230 LINE",
"512 230 LINE",
"322 613 LINE",
"230 613 LINE"
);
}
);
width = 552;
},
{
layerId = "2F11256F-FD75-4935-B7A9-D8816F9A9CE0";
paths = (
{
closed = 1;
nodes = (
"30 213 LINE",
"75 213 LINE",
"221 548 LINE",
"367 213 LINE",
"412 213 LINE",
"242 590 LINE",
"200 590 LINE"
);
}
);
width = 442;
}
);
unicode = 005E;
},
{
glyphname = grave;
layers = (
{
anchors = (
{
name = _top;
position = "{171, 461}";
}
);
layerId = "9482A91E-411F-4CFA-81A1-53DA6722202C";
paths = (
{
closed = 1;
nodes = (
"212 536 LINE",
"172 512 LINE",
"10 651 LINE",
"10 672 LINE",
"29 691 OFFCURVE",
"79 721 OFFCURVE",
"116 721 CURVE"
);
}
);
width = 222;
},
{
anchors = (
{
name = _top;
position = "{150, 453}";
}
);
layerId = "2F11256F-FD75-4935-B7A9-D8816F9A9CE0";
paths = (
{
closed = 1;
nodes = (
"176 504 LINE",
"160 494 LINE",
"10 629 LINE",
"10 638 LINE",
"22 649 OFFCURVE",
"45 660 OFFCURVE",
"63 665 CURVE"
);
}
);
width = 186;
}
);
unicode = 0060;
},
{
glyphname = a;
layers = (
{
anchors = (
{
name = ogonek;
position = "{458, 0}";
},
{
name = top;
position = "{264, 461}";
}
);
layerId = "9482A91E-411F-4CFA-81A1-53DA6722202C";
paths = (
{
closed = 1;
nodes = (
"302 221 LINE",
"253 206 LINE SMOOTH",
"212 193 OFFCURVE",
"189 166 OFFCURVE",
"189 130 CURVE SMOOTH",
"189 100 OFFCURVE",
"207 81 OFFCURVE",
"230 81 CURVE SMOOTH",
"256 81 OFFCURVE",
"276 92 OFFCURVE",
"295 125 CURVE",
"298 61 LINE",
"265 13 OFFCURVE",
"229 -13 OFFCURVE",
"166 -13 CURVE SMOOTH",
"78 -13 OFFCURVE",
"24 43 OFFCURVE",
"24 117 CURVE SMOOTH",
"24 191 OFFCURVE",
"73 231 OFFCURVE",
"164 249 CURVE SMOOTH",
"299 276 LINE"
);
},
{
closed = 1;
nodes = (
"435 128 LINE SMOOTH",
"435 90 OFFCURVE",
"451 79 OFFCURVE",
"466 79 CURVE SMOOTH",
"478 79 OFFCURVE",
"487 82 OFFCURVE",
"503 85 CURVE",
"517 51 LINE",
"487 16 OFFCURVE",
"457 -13 OFFCURVE",
"402 -13 CURVE SMOOTH",
"343 -13 OFFCURVE",
"281 16 OFFCURVE",
"281 72 CURVE SMOOTH",
"281 302 LINE SMOOTH",
"281 349 OFFCURVE",
"254 367 OFFCURVE",
"205 367 CURVE SMOOTH",
"163 367 OFFCURVE",
"129 360 OFFCURVE",
"90 347 CURVE",
"58 394 LINE",
"118 448 OFFCURVE",
"184 474 OFFCURVE",
"269 474 CURVE SMOOTH",
"382 474 OFFCURVE",
"435 411 OFFCURVE",
"435 305 CURVE SMOOTH"
);
}
);
width = 510;
},
{
anchors = (
{
name = ogonek;
position = "{388, 0}";
},
{
name = top;
position = "{218, 453}";
}
);
layerId = "2F11256F-FD75-4935-B7A9-D8816F9A9CE0";
paths = (
{
closed = 1;
nodes = (
"300 253 LINE",
"212 231 LINE SMOOTH",
"133 211 OFFCURVE",
"103 171 OFFCURVE",
"103 116 CURVE SMOOTH",
"103 61 OFFCURVE",
"138 31 OFFCURVE",
"192 31 CURVE SMOOTH",
"239 31 OFFCURVE",
"279 48 OFFCURVE",
"314 97 CURVE",
"317 70 LINE",
"291 29 OFFCURVE",
"240 -12 OFFCURVE",
"181 -12 CURVE SMOOTH",
"102 -12 OFFCURVE",
"50 43 OFFCURVE",
"50 109 CURVE SMOOTH",
"50 191 OFFCURVE",
"99 236 OFFCURVE",
"206 260 CURVE SMOOTH",
"300 282 LINE"
);
},
{
closed = 1;
nodes = (
"346 85 LINE SMOOTH",
"346 45 OFFCURVE",
"354 30 OFFCURVE",
"378 30 CURVE SMOOTH",
"388 30 OFFCURVE",
"401 32 OFFCURVE",
"415 35 CURVE",
"418 28 LINE",
"404 7 OFFCURVE",
"379 -12 OFFCURVE",
"354 -12 CURVE SMOOTH",
"320 -12 OFFCURVE",
"295 14 OFFCURVE",
"295 63 CURVE SMOOTH",
"295 329 LINE SMOOTH",
"295 389 OFFCURVE",
"276 422 OFFCURVE",
"214 422 CURVE SMOOTH",
"172 422 OFFCURVE",
"126 412 OFFCURVE",
"83 396 CURVE",
"74 409 LINE",
"118 444 OFFCURVE",
"175 465 OFFCURVE",
"229 465 CURVE SMOOTH",
"301 465 OFFCURVE",
"346 417 OFFCURVE",
"346 338 CURVE SMOOTH"
);
}
);
width = 453;
}
);
unicode = 0061;
},
{
glyphname = b;
layers = (
{
layerId = "9482A91E-411F-4CFA-81A1-53DA6722202C";
paths = (
{
closed = 1;
nodes = (
"162 71 LINE",
"138 32 OFFCURVE",
"102 3 OFFCURVE",
"66 -10 CURVE",
"43 13 LINE",
"56 49 OFFCURVE",
"61 87 OFFCURVE",
"61 125 CURVE SMOOTH",
"61 643 LINE",
"64 625 LINE",
"45 628 OFFCURVE",
"19 627 OFFCURVE",
"-6 626 CURVE",
"-5 642 OFFCURVE",
"-2 667 OFFCURVE",
"4 682 CURVE",
"69 705 OFFCURVE",
"128 717 OFFCURVE",
"216 720 CURVE",
"216 57 LINE"
);
},
{
closed = 1;
nodes = (
"541 79 OFFCURVE",
"417 -11 OFFCURVE",
"273 -11 CURVE SMOOTH",
"210 -11 OFFCURVE",
"155 13 OFFCURVE",
"114 56 CURVE",
"187 91 LINE",
"213 67 OFFCURVE",
"244 57 OFFCURVE",
"278 57 CURVE SMOOTH",
"327 57 OFFCURVE",
"375 105 OFFCURVE",
"375 235 CURVE SMOOTH",
"375 364 OFFCURVE",
"327 389 OFFCURVE",
"291 389 CURVE SMOOTH",
"259 389 OFFCURVE",
"224 362 OFFCURVE",
"216 309 CURVE",
"216 411 LINE",
"242 449 OFFCURVE",
"286 474 OFFCURVE",
"340 474 CURVE SMOOTH",
"449 474 OFFCURVE",
"541 388 OFFCURVE",
"541 235 CURVE SMOOTH"
);
}
);
width = 564;
},
{
layerId = "2F11256F-FD75-4935-B7A9-D8816F9A9CE0";
paths = (
{
closed = 1;
nodes = (
"122 40 LINE",
"111 17 OFFCURVE",
"93 1 OFFCURVE",
"66 -11 CURVE",
"57 -3 LINE",
"73 30 OFFCURVE",
"80 69 OFFCURVE",
"80 107 CURVE",
"80 671 LINE",
"89 656 LINE",
"63 658 OFFCURVE",
"38 658 OFFCURVE",
"9 657 CURVE",
"9 665 OFFCURVE",
"10 671 OFFCURVE",
"13 677 CURVE",
"51 694 OFFCURVE",
"89 706 OFFCURVE",
"130 714 CURVE",
"130 40 LINE"
);
},
{
closed = 1;
nodes = (
"451 76 OFFCURVE",
"346 -12 OFFCURVE",
"231 -12 CURVE SMOOTH",
"188 -12 OFFCURVE",
"145 1 OFFCURVE",
"104 27 CURVE",
"116 62 LINE",
"156 36 OFFCURVE",
"196 27 OFFCURVE",
"241 27 CURVE SMOOTH",
"326 27 OFFCURVE",
"393 96 OFFCURVE",
"393 236 CURVE SMOOTH",
"393 375 OFFCURVE",
"328 427 OFFCURVE",
"265 427 CURVE SMOOTH",
"203 427 OFFCURVE",
"142 384 OFFCURVE",
"130 276 CURVE",
"117 296 LINE",
"130 405 OFFCURVE",
"195 465 OFFCURVE",
"269 465 CURVE SMOOTH",
"354 465 OFFCURVE",
"451 396 OFFCURVE",
"451 236 CURVE SMOOTH"
);
}
);
width = 499;
}
);
unicode = 0062;
},
{
glyphname = c;
layers = (
{
anchors = (
{
name = bottom;
position = "{239, 0}";
},
{
name = top;
position = "{264, 462}";
}
);
layerId = "9482A91E-411F-4CFA-81A1-53DA6722202C";
paths = (
{
closed = 1;
nodes = (
"416 397 OFFCURVE",
"407 338 OFFCURVE",
"401 301 CURVE",
"390 301 OFFCURVE",
"375 303 OFFCURVE",
"364 306 CURVE",
"357 365 OFFCURVE",
"325 400 OFFCURVE",
"283 400 CURVE SMOOTH",
"232 400 OFFCURVE",
"189 362 OFFCURVE",
"189 235 CURVE SMOOTH",
"189 113 OFFCURVE",
"239 81 OFFCURVE",
"290 81 CURVE SMOOTH",
"327 81 OFFCURVE",
"377 94 OFFCURVE",
"418 110 CURVE",
"441 74 LINE",
"392 23 OFFCURVE",
"318 -13 OFFCURVE",
"244 -13 CURVE SMOOTH",
"144 -13 OFFCURVE",
"24 59 OFFCURVE",
"24 219 CURVE SMOOTH",
"24 379 OFFCURVE",
"147 474 OFFCURVE",
"286 474 CURVE SMOOTH",
"333 474 OFFCURVE",
"375 464 OFFCURVE",
"417 446 CURVE"
);
}
);
width = 448;
},
{
anchors = (
{
name = bottom;
position = "{234, 0}";
},
{
name = top;
position = "{268, 463}";
}
);
layerId = "2F11256F-FD75-4935-B7A9-D8816F9A9CE0";
paths = (
{
closed = 1;
nodes = (
"406 400 OFFCURVE",
"403 354 OFFCURVE",
"398 325 CURVE",
"392 326 OFFCURVE",
"387 327 OFFCURVE",
"382 328 CURVE",
"384 394 OFFCURVE",
"331 433 OFFCURVE",
"263 433 CURVE SMOOTH",
"165 433 OFFCURVE",
"100 349 OFFCURVE",
"100 221 CURVE SMOOTH",
"100 109 OFFCURVE",
"160 23 OFFCURVE",
"254 23 CURVE SMOOTH",
"314 23 OFFCURVE",
"353 38 OFFCURVE",
"400 68 CURVE",
"410 58 LINE",
"361 13 OFFCURVE",
"319 -12 OFFCURVE",
"246 -12 CURVE SMOOTH",
"133 -12 OFFCURVE",
"46 81 OFFCURVE",
"46 219 CURVE SMOOTH",
"46 366 OFFCURVE",
"136 465 OFFCURVE",
"269 465 CURVE SMOOTH",
"320 465 OFFCURVE",
"373 450 OFFCURVE",
"406 423 CURVE"
);
}
);
width = 453;
}
);
unicode = 0063;
},
{
glyphname = d;
layers = (
{
anchors = (
{
name = commaaccent;
position = "{540, 650}";
}
);
layerId = "9482A91E-411F-4CFA-81A1-53DA6722202C";
paths = (
{
closed = 1;
nodes = (
"392 378 LINE",
"364 386 OFFCURVE",
"329 395 OFFCURVE",
"291 395 CURVE SMOOTH",
"221 395 OFFCURVE",
"189 362 OFFCURVE",
"189 235 CURVE SMOOTH",
"189 113 OFFCURVE",
"228 81 OFFCURVE",
"278 81 CURVE SMOOTH",
"318 81 OFFCURVE",
"345 97 OFFCURVE",
"378 131 CURVE",
"382 66 LINE",
"341 23 OFFCURVE",
"289 -11 OFFCURVE",
"224 -11 CURVE SMOOTH",
"134 -11 OFFCURVE",
"24 59 OFFCURVE",
"24 219 CURVE SMOOTH",
"24 379 OFFCURVE",
"147 474 OFFCURVE",
"320 474 CURVE SMOOTH",
"348 474 OFFCURVE",
"375 471 OFFCURVE",
"402 466 CURVE"
);
},
{
closed = 1;
nodes = (
"490 128 LINE SMOOTH",
"490 90 OFFCURVE",
"505 79 OFFCURVE",
"520 79 CURVE SMOOTH",
"532 79 OFFCURVE",
"541 82 OFFCURVE",
"557 84 CURVE",
"572 51 LINE",
"541 16 OFFCURVE",
"512 -13 OFFCURVE",
"456 -13 CURVE SMOOTH",
"397 -13 OFFCURVE",
"351 15 OFFCURVE",
"335 63 CURVE",
"335 643 LINE",
"338 625 LINE",
"319 628 OFFCURVE",
"293 627 OFFCURVE",
"268 626 CURVE",
"269 642 OFFCURVE",
"272 667 OFFCURVE",
"277 682 CURVE",
"343 705 OFFCURVE",
"402 717 OFFCURVE",
"490 720 CURVE"
);
}
);
width = 592;
},
{
anchors = (
{
name = commaaccent;
position = "{454, 700}";
}
);
layerId = "2F11256F-FD75-4935-B7A9-D8816F9A9CE0";
paths = (
{
closed = 1;
nodes = (
"385 409 LINE",
"347 421 OFFCURVE",
"324 426 OFFCURVE",
"283 426 CURVE SMOOTH",
"172 426 OFFCURVE",
"99 368 OFFCURVE",
"99 230 CURVE SMOOTH",
"99 91 OFFCURVE",
"156 29 OFFCURVE",
"245 29 CURVE SMOOTH",
"299 29 OFFCURVE",
"338 48 OFFCURVE",
"372 88 CURVE",
"375 63 LINE",
"347 23 OFFCURVE",
"301 -12 OFFCURVE",
"229 -12 CURVE SMOOTH",
"129 -12 OFFCURVE",
"47 67 OFFCURVE",
"47 216 CURVE SMOOTH",
"47 382 OFFCURVE",
"170 465 OFFCURVE",
"304 465 CURVE SMOOTH",
"328 465 OFFCURVE",
"352 462 OFFCURVE",
"373 457 CURVE"
);
},
{
closed = 1;
nodes = (
"407 85 LINE",
"407 45 OFFCURVE",
"415 30 OFFCURVE",
"438 30 CURVE SMOOTH",
"448 30 OFFCURVE",
"461 32 OFFCURVE",
"475 35 CURVE",
"480 28 LINE",
"464 7 OFFCURVE",
"440 -12 OFFCURVE",
"415 -12 CURVE SMOOTH",
"383 -12 OFFCURVE",
"358 14 OFFCURVE",
"357 54 CURVE",
"357 671 LINE",
"366 656 LINE",
"340 658 OFFCURVE",
"315 658 OFFCURVE",
"286 657 CURVE",
"286 665 OFFCURVE",
"287 671 OFFCURVE",
"289 677 CURVE",
"328 694 OFFCURVE",
"366 706 OFFCURVE",
"407 714 CURVE"
);
}
);
width = 516;
}
);
unicode = 0064;
},
{
glyphname = e;
layers = (
{
anchors = (
{
name = bottom;
position = "{255, 0}";
},
{
name = ogonek;
position = "{346, 0}";
},
{
name = top;
position = "{278, 461}";
}
);
layerId = "9482A91E-411F-4CFA-81A1-53DA6722202C";
paths = (
{
closed = 1;
nodes = (
"465 264 OFFCURVE",
"458 249 OFFCURVE",
"450 237 CURVE",
"155 237 LINE",
"155 288 LINE",
"270 297 LINE",
"413 302 LINE",
"314 284 LINE",
"316 371 OFFCURVE",
"299 400 OFFCURVE",
"270 400 CURVE SMOOTH",
"231 400 OFFCURVE",
"189 361 OFFCURVE",
"189 235 CURVE SMOOTH",
"189 112 OFFCURVE",
"242 80 OFFCURVE",
"305 80 CURVE SMOOTH",
"348 80 OFFCURVE",
"397 92 OFFCURVE",
"444 110 CURVE",
"467 74 LINE",
"418 24 OFFCURVE",
"348 -13 OFFCURVE",
"261 -13 CURVE SMOOTH",
"160 -13 OFFCURVE",
"24 59 OFFCURVE",
"24 219 CURVE SMOOTH",
"24 378 OFFCURVE",
"143 474 OFFCURVE",
"282 474 CURVE SMOOTH",
"370 474 OFFCURVE",
"470 431 OFFCURVE",
"470 278 CURVE"
);
}
);
width = 499;
},
{
anchors = (
{
name = bottom;
position = "{237, 0}";
},
{
name = ogonek;
position = "{312, 0}";
},
{
name = top;
position = "{254, 453}";
}
);
layerId = "2F11256F-FD75-4935-B7A9-D8816F9A9CE0";
paths = (
{
closed = 1;
nodes = (
"418 272 OFFCURVE",
"415 267 OFFCURVE",
"412 264 CURVE",
"94 264 LINE",
"94 290 LINE",
"232 299 LINE",
"382 299 LINE",
"364 293 LINE",
"366 396 OFFCURVE",
"307 434 OFFCURVE",
"246 434 CURVE SMOOTH",
"183 434 OFFCURVE",
"100 379 OFFCURVE",
"100 235 CURVE SMOOTH",
"100 110 OFFCURVE",
"155 31 OFFCURVE",
"257 31 CURVE SMOOTH",
"311 31 OFFCURVE",
"360 48 OFFCURVE",
"409 83 CURVE",
"414 70 LINE",
"372 22 OFFCURVE",
"316 -12 OFFCURVE",
"242 -12 CURVE SMOOTH",
"150 -12 OFFCURVE",
"47 60 OFFCURVE",
"47 219 CURVE SMOOTH",
"47 391 OFFCURVE",
"170 465 OFFCURVE",
"254 465 CURVE SMOOTH",
"350 465 OFFCURVE",
"420 397 OFFCURVE",
"420 275 CURVE"
);
}
);
width = 466;
}
);
unicode = 0065;
},
{
glyphname = f;
layers = (
{
layerId = "9482A91E-411F-4CFA-81A1-53DA6722202C";
paths = (
{
closed = 1;
nodes = (
"248 42 LINE",
"244 76 LINE",
"268 67 OFFCURVE",
"307 59 OFFCURVE",
"334 57 CURVE",
"335 40 OFFCURVE",
"333 17 OFFCURVE",
"330 0 CURVE",
"25 0 LINE",
"24 18 OFFCURVE",
"25 40 OFFCURVE",
"30 57 CURVE",
"65 63 OFFCURVE",
"93 73 OFFCURVE",
"93 116 CURVE SMOOTH",
"93 427 LINE",
"114 378 LINE",
"89 386 OFFCURVE",
"63 387 OFFCURVE",
"37 387 CURVE",
"36 401 OFFCURVE",
"37 425 OFFCURVE",
"39 437 CURVE",
"56 446 OFFCURVE",
"74 453 OFFCURVE",
"93 456 CURVE",
"93 508 LINE SMOOTH",
"93 639 OFFCURVE",
"177 715 OFFCURVE",
"294 715 CURVE SMOOTH",
"338 715 OFFCURVE",
"390 694 OFFCURVE",
"420 670 CURVE",
"418 628 OFFCURVE",
"410 593 OFFCURVE",
"398 558 CURVE",
"389 558 OFFCURVE",
"358 561 OFFCURVE",
"347 564 CURVE",
"352 613 OFFCURVE",
"334 643 OFFCURVE",
"299 643 CURVE SMOOTH",
"265 643 OFFCURVE",
"248 614 OFFCURVE",
"248 565 CURVE SMOOTH"
);
},
{
closed = 1;
nodes = (
"214 459 LINE",
"254 459 OFFCURVE",
"303 461 OFFCURVE",
"367 470 CURVE",
"367 439 OFFCURVE",
"364 411 OFFCURVE",
"356 389 CURVE",
"214 389 LINE"
);
}
);
width = 367;
},
{
layerId = "2F11256F-FD75-4935-B7A9-D8816F9A9CE0";
paths = (
{
closed = 1;
nodes = (
"147 21 LINE",
"139 48 LINE",
"178 32 OFFCURVE",
"215 25 OFFCURVE",
"256 23 CURVE",
"256 15 OFFCURVE",
"256 6 OFFCURVE",
"254 0 CURVE",
"28 0 LINE",
"27 7 OFFCURVE",
"28 17 OFFCURVE",
"30 23 CURVE",
"81 29 OFFCURVE",
"97 39 OFFCURVE",
"97 70 CURVE SMOOTH",
"97 427 LINE",
"122 410 LINE",
"93 417 OFFCURVE",
"60 419 OFFCURVE",
"30 419 CURVE",
"30 425 OFFCURVE",
"31 429 OFFCURVE",
"31 432 CURVE",
"52 439 OFFCURVE",
"74 444 OFFCURVE",
"97 446 CURVE",
"97 518 LINE",
"97 659 OFFCURVE",
"177 709 OFFCURVE",
"240 709 CURVE SMOOTH",
"277 709 OFFCURVE",
"315 689 OFFCURVE",
"339 664 CURVE",
"338 635 OFFCURVE",
"335 610 OFFCURVE",
"328 580 CURVE",
"322 580 OFFCURVE",
"312 581 OFFCURVE",
"306 582 CURVE",
"309 646 OFFCURVE",
"283 675 OFFCURVE",
"238 675 CURVE SMOOTH",
"181 675 OFFCURVE",
"147 644 OFFCURVE",
"147 550 CURVE"
);
},
{
closed = 1;
nodes = (
"134 447 LINE",
"191 447 OFFCURVE",
"244 448 OFFCURVE",
"294 452 CURVE",
"294 434 OFFCURVE",
"293 428 OFFCURVE",
"286 415 CURVE",
"134 415 LINE"
);
}
);
width = 285;
}
);
unicode = 0066;
},
{
glyphname = g;
layers = (
{
anchors = (
{
name = top;
position = "{268, 461}";
}
);
layerId = "9482A91E-411F-4CFA-81A1-53DA6722202C";
paths = (
{
closed = 1;
nodes = (
"294 212 OFFCURVE",
"315 234 OFFCURVE",
"314 317 CURVE SMOOTH",
"312 399 OFFCURVE",
"287 421 OFFCURVE",
"259 421 CURVE SMOOTH",
"231 421 OFFCURVE",
"209 399 OFFCURVE",
"212 317 CURVE SMOOTH",
"215 233 OFFCURVE",
"239 212 OFFCURVE",
"267 212 CURVE SMOOTH"
);
},
{
closed = 1;
nodes = (
"477 217 OFFCURVE",
"384 158 OFFCURVE",
"263 158 CURVE SMOOTH",
"142 158 OFFCURVE",
"47 217 OFFCURVE",
"47 317 CURVE SMOOTH",
"47 417 OFFCURVE",
"142 474 OFFCURVE",
"263 474 CURVE SMOOTH",
"384 474 OFFCURVE",
"477 417 OFFCURVE",
"477 317 CURVE SMOOTH"
);
},
{
closed = 1;
nodes = (
"395 435 LINE",
"438 477 OFFCURVE",
"504 489 OFFCURVE",
"551 489 CURVE",
"554 475 OFFCURVE",
"551 433 OFFCURVE",
"548 410 CURVE",
"423 395 LINE"
);
},
{
closed = 1;
nodes = (
"170 0 LINE",
"144 -15 OFFCURVE",
"134 -49 OFFCURVE",
"134 -67 CURVE SMOOTH",
"134 -109 OFFCURVE",
"178 -133 OFFCURVE",
"266 -133 CURVE SMOOTH",
"369 -133 OFFCURVE",
"420 -94 OFFCURVE",
"420 -57 CURVE SMOOTH",
"420 -35 OFFCURVE",
"407 -19 OFFCURVE",
"375 -19 CURVE SMOOTH",
"185 -19 LINE SMOOTH",
"83 -19 OFFCURVE",
"51 32 OFFCURVE",
"51 87 CURVE SMOOTH",
"51 143 OFFCURVE",
"93 186 OFFCURVE",
"151 199 CURVE",
"184 175 LINE",
"160 166 OFFCURVE",
"146 150 OFFCURVE",
"146 132 CURVE SMOOTH",
"146 113 OFFCURVE",
"162 100 OFFCURVE",
"185 100 CURVE SMOOTH",
"383 100 LINE SMOOTH",
"479 100 OFFCURVE",
"515 60 OFFCURVE",
"515 -7 CURVE SMOOTH",
"515 -128 OFFCURVE",
"393 -252 OFFCURVE",
"217 -252 CURVE SMOOTH",
"105 -252 OFFCURVE",
"21 -203 OFFCURVE",
"21 -115 CURVE SMOOTH",
"21 -42 OFFCURVE",
"79 0 OFFCURVE",
"163 28 CURVE"
);
}
);
width = 536;
},
{
anchors = (
{
name = top;
position = "{247, 453}";
}
);
layerId = "2F11256F-FD75-4935-B7A9-D8816F9A9CE0";
paths = (
{
closed = 1;
nodes = (
"305 168 OFFCURVE",
"360 216 OFFCURVE",
"355 305 CURVE SMOOTH",
"349 393 OFFCURVE",
"296 441 OFFCURVE",
"228 441 CURVE SMOOTH",
"160 441 OFFCURVE",
"108 391 OFFCURVE",
"111 305 CURVE SMOOTH",
"114 218 OFFCURVE",
"170 168 OFFCURVE",
"238 168 CURVE SMOOTH"
);
},
{
closed = 1;
nodes = (
"408 205 OFFCURVE",
"329 144 OFFCURVE",
"233 144 CURVE SMOOTH",
"137 144 OFFCURVE",
"57 205 OFFCURVE",
"57 305 CURVE SMOOTH",
"57 405 OFFCURVE",
"137 465 OFFCURVE",
"233 465 CURVE SMOOTH",
"329 465 OFFCURVE",
"408 405 OFFCURVE",
"408 305 CURVE SMOOTH"
);
},
{
closed = 1;
nodes = (
"334 422 LINE",
"375 455 OFFCURVE",
"439 471 OFFCURVE",
"483 471 CURVE",
"484 459 OFFCURVE",
"482 441 OFFCURVE",
"479 425 CURVE",
"352 412 LINE"
);
},
{
closed = 1;
nodes = (
"148 16 LINE",
"98 -7 OFFCURVE",
"67 -45 OFFCURVE",
"67 -92 CURVE SMOOTH",
"67 -152 OFFCURVE",
"125 -195 OFFCURVE",
"226 -195 CURVE SMOOTH",
"347 -195 OFFCURVE",
"433 -118 OFFCURVE",
"432 -58 CURVE SMOOTH",
"432 -23 OFFCURVE",
"412 0 OFFCURVE",
"367 0 CURVE SMOOTH",
"160 -1 LINE SMOOTH",
"93 -2 OFFCURVE",
"54 32 OFFCURVE",
"54 82 CURVE SMOOTH",
"54 130 OFFCURVE",
"105 165 OFFCURVE",
"155 181 CURVE",
"167 164 LINE",
"120 144 OFFCURVE",
"99 124 OFFCURVE",
"99 95 CURVE SMOOTH",
"99 67 OFFCURVE",
"119 42 OFFCURVE",
"174 42 CURVE SMOOTH",
"367 44 LINE SMOOTH",
"445 45 OFFCURVE",
"484 7 OFFCURVE",
"484 -45 CURVE SMOOTH",
"483 -133 OFFCURVE",
"359 -233 OFFCURVE",
"218 -233 CURVE SMOOTH",
"107 -233 OFFCURVE",
"36 -180 OFFCURVE",
"36 -100 CURVE SMOOTH",
"36 -42 OFFCURVE",
"71 1 OFFCURVE",
"132 25 CURVE"
);
}
);
width = 494;
}
);
unicode = 0067;
},
{
glyphname = h;
layers = (
{
layerId = "9482A91E-411F-4CFA-81A1-53DA6722202C";
paths = (
{
closed = 1;
nodes = (
"558 41 LINE",
"554 69 LINE",
"587 60 OFFCURVE",
"602 57 OFFCURVE",
"625 57 CURVE",
"626 40 OFFCURVE",
"624 17 OFFCURVE",
"620 0 CURVE",
"349 0 LINE",
"347 18 OFFCURVE",
"349 40 OFFCURVE",
"353 57 CURVE",
"384 63 OFFCURVE",
"403 73 OFFCURVE",
"403 116 CURVE SMOOTH",
"403 296 LINE SMOOTH",
"403 350 OFFCURVE",
"375 374 OFFCURVE",
"338 374 CURVE SMOOTH",
"303 374 OFFCURVE",
"270 345 OFFCURVE",
"248 284 CURVE",
"228 336 LINE",
"258 434 OFFCURVE",
"326 474 OFFCURVE",
"403 474 CURVE SMOOTH",
"494 474 OFFCURVE",
"558 417 OFFCURVE",
"558 316 CURVE SMOOTH"
);
},
{
closed = 1;
nodes = (
"248 42 LINE",
"244 69 LINE",
"262 60 OFFCURVE",
"285 57 OFFCURVE",
"304 57 CURVE",
"305 40 OFFCURVE",
"303 17 OFFCURVE",
"300 0 CURVE",
"25 0 LINE",
"24 18 OFFCURVE",
"25 40 OFFCURVE",
"30 57 CURVE",
"65 63 OFFCURVE",
"93 73 OFFCURVE",
"93 116 CURVE SMOOTH",
"93 643 LINE",
"95 625 LINE",
"77 628 OFFCURVE",
"51 627 OFFCURVE",
"26 626 CURVE",
"27 642 OFFCURVE",
"30 667 OFFCURVE",
"35 682 CURVE",
"100 705 OFFCURVE",
"160 717 OFFCURVE",
"248 720 CURVE"
);
}
);
width = 650;
},
{
layerId = "2F11256F-FD75-4935-B7A9-D8816F9A9CE0";
paths = (
{
closed = 1;
nodes = (
"434 21 LINE",
"426 43 LINE",
"456 30 OFFCURVE",
"477 25 OFFCURVE",
"505 23 CURVE",
"505 15 OFFCURVE",
"504 6 OFFCURVE",
"503 0 CURVE",
"317 0 LINE",
"316 7 OFFCURVE",
"317 17 OFFCURVE",
"318 23 CURVE",
"369 28 OFFCURVE",
"384 38 OFFCURVE",
"384 69 CURVE SMOOTH",
"384 316 LINE SMOOTH",
"384 387 OFFCURVE",
"348 423 OFFCURVE",
"291 423 CURVE SMOOTH",
"224 423 OFFCURVE",
"177 382 OFFCURVE",
"149 313 CURVE",
"138 329 LINE",
"165 406 OFFCURVE",
"223 465 OFFCURVE",
"305 465 CURVE SMOOTH",
"375 465 OFFCURVE",
"434 419 OFFCURVE",
"434 318 CURVE SMOOTH"
);
},
{
closed = 1;
nodes = (
"151 21 LINE",
"143 43 LINE",
"172 30 OFFCURVE",
"194 25 OFFCURVE",
"222 23 CURVE",
"222 15 OFFCURVE",
"221 6 OFFCURVE",
"219 0 CURVE",
"33 0 LINE",
"32 7 OFFCURVE",
"33 17 OFFCURVE",
"34 23 CURVE",
"85 28 OFFCURVE",
"101 38 OFFCURVE",
"101 69 CURVE SMOOTH",
"101 667 LINE",
"109 653 LINE",
"84 654 OFFCURVE",
"59 655 OFFCURVE",
"30 654 CURVE",
"30 661 OFFCURVE",
"31 667 OFFCURVE",
"33 673 CURVE",
"79 691 OFFCURVE",
"97 699 OFFCURVE",
"151 709 CURVE"
);
}
);
width = 530;
}
);
unicode = 0068;
},
{
glyphname = i;
layers = (
{
anchors = (
{
name = ogonek;
position = "{300, 0}";
}
);
layerId = "9482A91E-411F-4CFA-81A1-53DA6722202C";
paths = (
{
closed = 1;
nodes = (
"257 645 OFFCURVE",
"219 684 OFFCURVE",
"170 684 CURVE SMOOTH",
"122 684 OFFCURVE",
"82 645 OFFCURVE",
"82 596 CURVE SMOOTH",
"82 548 OFFCURVE",
"122 509 OFFCURVE",
"170 509 CURVE SMOOTH",
"219 509 OFFCURVE",
"257 548 OFFCURVE",
"257 596 CURVE SMOOTH"
);
},
{
closed = 1;
nodes = (
"248 42 LINE",
"244 69 LINE",
"262 60 OFFCURVE",
"285 57 OFFCURVE",
"304 57 CURVE",
"305 40 OFFCURVE",
"303 17 OFFCURVE",
"300 0 CURVE",
"25 0 LINE",
"24 18 OFFCURVE",
"25 40 OFFCURVE",
"30 57 CURVE",
"65 63 OFFCURVE",
"93 73 OFFCURVE",
"93 116 CURVE SMOOTH",
"93 392 LINE",
"95 375 LINE",
"77 377 OFFCURVE",
"51 377 OFFCURVE",
"26 376 CURVE",
"27 391 OFFCURVE",
"30 416 OFFCURVE",
"35 432 CURVE",
"100 454 OFFCURVE",
"160 466 OFFCURVE",
"248 470 CURVE"
);
}
);
width = 340;
},
{
anchors = (
{
name = ogonek;
position = "{219, 0}";
}
);
layerId = "2F11256F-FD75-4935-B7A9-D8816F9A9CE0";
paths = (
{
closed = 1;
nodes = (
"169 632 OFFCURVE",
"149 652 OFFCURVE",
"124 652 CURVE SMOOTH",
"100 652 OFFCURVE",
"80 632 OFFCURVE",
"80 607 CURVE SMOOTH",
"80 583 OFFCURVE",
"100 562 OFFCURVE",
"124 562 CURVE SMOOTH",
"149 562 OFFCURVE",
"169 583 OFFCURVE",
"169 607 CURVE SMOOTH"
);
},
{
closed = 1;
nodes = (
"151 21 LINE",
"143 43 LINE",
"172 30 OFFCURVE",
"194 25 OFFCURVE",
"222 23 CURVE",
"222 15 OFFCURVE",
"221 6 OFFCURVE",
"219 0 CURVE",
"33 0 LINE",
"32 7 OFFCURVE",
"33 17 OFFCURVE",
"34 23 CURVE",
"85 28 OFFCURVE",
"101 38 OFFCURVE",
"101 69 CURVE SMOOTH",
"101 415 LINE",
"109 401 LINE",
"84 402 OFFCURVE",
"59 403 OFFCURVE",
"30 402 CURVE",
"30 409 OFFCURVE",
"31 415 OFFCURVE",
"33 422 CURVE",
"70 436 OFFCURVE",
"110 449 OFFCURVE",
"151 459 CURVE"
);
}
);
width = 260;
}
);
unicode = 0069;
},
{
glyphname = j;
layers = (
{
layerId = "9482A91E-411F-4CFA-81A1-53DA6722202C";
paths = (
{
closed = 1;
nodes = (
"122 509 OFFCURVE",
"82 548 OFFCURVE",
"82 596 CURVE SMOOTH",
"82 645 OFFCURVE",
"122 684 OFFCURVE",
"170 684 CURVE SMOOTH",
"219 684 OFFCURVE",
"257 645 OFFCURVE",
"257 596 CURVE SMOOTH",
"257 548 OFFCURVE",
"219 509 OFFCURVE",
"170 509 CURVE SMOOTH"
);
},
{
closed = 1;
nodes = (
"248 34 LINE SMOOTH",
"248 -98 OFFCURVE",
"167 -195 OFFCURVE",
"32 -247 CURVE",
"-4 -198 LINE",
"55 -154 OFFCURVE",
"93 -111 OFFCURVE",
"93 13 CURVE SMOOTH",
"93 392 LINE",
"95 375 LINE",
"77 377 OFFCURVE",
"51 377 OFFCURVE",
"26 376 CURVE",
"27 391 OFFCURVE",
"30 416 OFFCURVE",
"35 432 CURVE",
"100 454 OFFCURVE",
"160 466 OFFCURVE",
"248 470 CURVE"
);
}
);
width = 317;
},
{
layerId = "2F11256F-FD75-4935-B7A9-D8816F9A9CE0";
paths = (
{
closed = 1;
nodes = (
"100 562 OFFCURVE",
"80 583 OFFCURVE",
"80 607 CURVE SMOOTH",
"80 632 OFFCURVE",
"100 652 OFFCURVE",
"124 652 CURVE SMOOTH",
"149 652 OFFCURVE",
"169 632 OFFCURVE",
"169 607 CURVE SMOOTH",
"169 583 OFFCURVE",
"149 562 OFFCURVE",
"124 562 CURVE SMOOTH"
);
},
{
closed = 1;
nodes = (
"151 2 LINE SMOOTH",
"151 -112 OFFCURVE",
"103 -182 OFFCURVE",
"-17 -216 CURVE",
"-21 -202 LINE",
"89 -146 OFFCURVE",
"100 -79 OFFCURVE",
"100 -1 CURVE SMOOTH",
"100 415 LINE",
"109 401 LINE",
"84 402 OFFCURVE",
"59 403 OFFCURVE",
"30 402 CURVE",
"30 409 OFFCURVE",
"31 415 OFFCURVE",
"33 422 CURVE",
"70 436 OFFCURVE",
"110 449 OFFCURVE",
"151 459 CURVE"
);
}
);
width = 242;
}
);
unicode = 006A;
},
{
glyphname = k;
layers = (
{
anchors = (
{
name = bottom;
position = "{332, 0}";
}
);
layerId = "9482A91E-411F-4CFA-81A1-53DA6722202C";
paths = (
{
closed = 1;
nodes = (
"248 42 LINE",
"244 69 LINE",
"262 60 OFFCURVE",
"285 57 OFFCURVE",
"304 57 CURVE",
"305 40 OFFCURVE",
"303 17 OFFCURVE",
"300 0 CURVE",
"25 0 LINE",
"24 18 OFFCURVE",
"25 40 OFFCURVE",
"30 57 CURVE",
"65 63 OFFCURVE",
"93 73 OFFCURVE",
"93 116 CURVE SMOOTH",
"93 643 LINE",
"95 625 LINE",
"77 628 OFFCURVE",
"51 627 OFFCURVE",
"26 626 CURVE",
"27 642 OFFCURVE",
"30 667 OFFCURVE",
"35 682 CURVE",
"100 705 OFFCURVE",
"160 717 OFFCURVE",
"248 720 CURVE"
);
},
{
closed = 1;
nodes = (
"534 407 OFFCURVE",
"500 396 OFFCURVE",
"462 358 CURVE SMOOTH",
"224 120 LINE",
"157 144 LINE",
"413 400 LINE",
"426 392 LINE",
"395 395 OFFCURVE",
"361 404 OFFCURVE",
"335 416 CURVE",
"335 434 OFFCURVE",
"337 450 OFFCURVE",
"341 462 CURVE",
"580 462 LINE",
"580 443 OFFCURVE",
"580 424 OFFCURVE",
"577 407 CURVE"
);
},
{
closed = 1;
nodes = (
"617 40 OFFCURVE",
"615 20 OFFCURVE",
"610 0 CURVE",
"419 0 LINE",
"308 173 LINE SMOOTH",
"297 190 OFFCURVE",
"290 197 OFFCURVE",
"267 197 CURVE",
"339 299 LINE",
"393 299 OFFCURVE",
"424 270 OFFCURVE",
"451 227 CURVE SMOOTH",
"519 119 LINE SMOOTH",
"551 69 OFFCURVE",
"570 59 OFFCURVE",
"615 57 CURVE"
);
}
);
width = 632;
},
{
anchors = (
{
name = bottom;
position = "{281, 0}";
}
);
layerId = "2F11256F-FD75-4935-B7A9-D8816F9A9CE0";
paths = (
{
closed = 1;
nodes = (
"151 21 LINE",
"143 43 LINE",
"172 30 OFFCURVE",
"194 25 OFFCURVE",
"222 23 CURVE",
"222 15 OFFCURVE",
"221 6 OFFCURVE",
"219 0 CURVE",
"33 0 LINE",
"32 7 OFFCURVE",
"33 17 OFFCURVE",
"34 23 CURVE",
"85 28 OFFCURVE",
"101 38 OFFCURVE",
"101 69 CURVE SMOOTH",
"101 671 LINE",
"109 656 LINE",
"84 658 OFFCURVE",
"59 658 OFFCURVE",
"30 657 CURVE",
"30 665 OFFCURVE",
"31 671 OFFCURVE",
"33 677 CURVE",
"71 694 OFFCURVE",
"110 706 OFFCURVE",
"151 714 CURVE"
);
},
{
closed = 1;
nodes = (
"438 429 OFFCURVE",
"410 417 OFFCURVE",
"385 393 CURVE SMOOTH",
"140 164 LINE",
"110 177 LINE",
"362 418 LINE",
"370 408 LINE",
"343 414 OFFCURVE",
"317 423 OFFCURVE",
"293 435 CURVE",
"293 441 OFFCURVE",
"294 449 OFFCURVE",
"296 453 CURVE",
"484 453 LINE",
"484 445 OFFCURVE",
"483 436 OFFCURVE",
"481 429 CURVE"
);
},
{
closed = 1;
nodes = (
"500 16 OFFCURVE",
"499 7 OFFCURVE",
"496 0 CURVE",
"398 0 LINE",
"231 217 LINE SMOOTH",
"219 233 OFFCURVE",
"211 237 OFFCURVE",
"193 236 CURVE",
"225 268 LINE",
"248 267 OFFCURVE",
"261 259 OFFCURVE",
"277 238 CURVE SMOOTH",
"399 81 LINE SMOOTH",
"433 38 OFFCURVE",
"456 26 OFFCURVE",
"500 23 CURVE"
);
}
);
width = 506;
}
);
unicode = 006B;
},
{
glyphname = l;
layers = (
{
anchors = (
{
name = bottom;
position = "{170, 0}";
},
{
name = commaaccent;
position = "{298, 650}";
},
{
name = top;
position = "{180, 706}";
}
);
layerId = "9482A91E-411F-4CFA-81A1-53DA6722202C";
paths = (
{
closed = 1;
nodes = (
"248 42 LINE",
"244 69 LINE",
"262 60 OFFCURVE",
"285 57 OFFCURVE",
"304 57 CURVE",
"305 40 OFFCURVE",
"303 17 OFFCURVE",
"300 0 CURVE",
"25 0 LINE",
"24 18 OFFCURVE",
"25 40 OFFCURVE",
"30 57 CURVE",
"65 63 OFFCURVE",
"93 73 OFFCURVE",
"93 116 CURVE SMOOTH",
"93 643 LINE",
"95 625 LINE",
"77 628 OFFCURVE",
"51 627 OFFCURVE",
"26 626 CURVE",
"27 642 OFFCURVE",
"30 667 OFFCURVE",
"35 682 CURVE",
"100 705 OFFCURVE",
"160 717 OFFCURVE",
"248 720 CURVE"
);
}
);
width = 340;
},
{
anchors = (
{
name = bottom;
position = "{131, 0}";
},
{
name = commaaccent;
position = "{198, 700}";
},
{
name = top;
position = "{131, 687}";
}
);
layerId = "2F11256F-FD75-4935-B7A9-D8816F9A9CE0";
paths = (
{
closed = 1;
nodes = (
"151 21 LINE",
"143 43 LINE",
"172 30 OFFCURVE",
"194 25 OFFCURVE",
"222 23 CURVE",
"222 15 OFFCURVE",
"221 6 OFFCURVE",
"219 0 CURVE",
"33 0 LINE",
"32 7 OFFCURVE",
"33 17 OFFCURVE",
"34 23 CURVE",
"85 28 OFFCURVE",
"101 38 OFFCURVE",
"101 69 CURVE SMOOTH",
"101 671 LINE",
"109 656 LINE",
"84 658 OFFCURVE",
"59 658 OFFCURVE",
"30 657 CURVE",
"30 665 OFFCURVE",
"31 671 OFFCURVE",
"33 677 CURVE",
"71 694 OFFCURVE",
"110 706 OFFCURVE",
"151 714 CURVE"
);
}
);
width = 259;
}
);
unicode = 006C;
},
{
glyphname = m;
layers = (
{
layerId = "9482A91E-411F-4CFA-81A1-53DA6722202C";
paths = (
{
closed = 1;
nodes = (
"248 42 LINE",
"244 69 LINE",
"262 60 OFFCURVE",
"285 57 OFFCURVE",
"304 57 CURVE",
"305 40 OFFCURVE",
"303 17 OFFCURVE",
"300 0 CURVE",
"25 0 LINE",
"24 18 OFFCURVE",
"25 40 OFFCURVE",
"30 57 CURVE",
"65 63 OFFCURVE",
"93 73 OFFCURVE",
"93 116 CURVE SMOOTH",
"93 391 LINE",
"95 374 LINE",
"77 376 OFFCURVE",
"51 376 OFFCURVE",
"26 375 CURVE",
"27 390 OFFCURVE",
"30 415 OFFCURVE",
"35 430 CURVE",
"96 452 OFFCURVE",
"164 465 OFFCURVE",
"234 468 CURVE",
"245 410 OFFCURVE",
"248 361 OFFCURVE",
"248 305 CURVE SMOOTH"
);
},
{
closed = 1;
nodes = (
"558 41 LINE",
"554 69 LINE",
"572 60 OFFCURVE",
"595 57 OFFCURVE",
"614 57 CURVE",
"616 40 OFFCURVE",
"614 17 OFFCURVE",
"610 0 CURVE",
"349 0 LINE",
"347 18 OFFCURVE",
"349 40 OFFCURVE",
"353 57 CURVE",
"384 63 OFFCURVE",
"403 73 OFFCURVE",
"403 116 CURVE SMOOTH",
"403 296 LINE SMOOTH",
"403 350 OFFCURVE",
"375 374 OFFCURVE",
"338 374 CURVE SMOOTH",
"303 374 OFFCURVE",
"270 345 OFFCURVE",
"248 284 CURVE",
"228 336 LINE",
"258 434 OFFCURVE",
"326 474 OFFCURVE",
"403 474 CURVE SMOOTH",
"494 474 OFFCURVE",
"558 417 OFFCURVE",
"558 316 CURVE SMOOTH"
);
},
{
closed = 1;
nodes = (
"869 41 LINE",
"865 69 LINE",
"897 60 OFFCURVE",
"913 57 OFFCURVE",
"935 57 CURVE",
"936 40 OFFCURVE",
"934 17 OFFCURVE",
"930 0 CURVE",
"659 0 LINE",
"657 18 OFFCURVE",
"659 40 OFFCURVE",
"663 57 CURVE",
"694 63 OFFCURVE",
"713 73 OFFCURVE",
"713 116 CURVE SMOOTH",
"713 296 LINE SMOOTH",
"713 350 OFFCURVE",
"686 374 OFFCURVE",
"649 374 CURVE SMOOTH",
"614 374 OFFCURVE",
"581 345 OFFCURVE",
"558 284 CURVE",
"538 336 LINE",
"568 434 OFFCURVE",
"637 474 OFFCURVE",
"713 474 CURVE SMOOTH",
"804 474 OFFCURVE",
"869 417 OFFCURVE",
"869 316 CURVE SMOOTH"
);
}
);
width = 961;
},
{
layerId = "2F11256F-FD75-4935-B7A9-D8816F9A9CE0";
paths = (
{
closed = 1;
nodes = (
"151 21 LINE",
"143 43 LINE",
"172 30 OFFCURVE",
"194 25 OFFCURVE",
"222 23 CURVE",
"222 15 OFFCURVE",
"221 6 OFFCURVE",
"219 0 CURVE",
"33 0 LINE",
"32 7 OFFCURVE",
"33 17 OFFCURVE",
"34 23 CURVE",
"85 28 OFFCURVE",
"101 38 OFFCURVE",
"101 69 CURVE SMOOTH",
"101 417 LINE",
"109 403 LINE",
"84 404 OFFCURVE",
"59 405 OFFCURVE",
"30 404 CURVE",
"30 411 OFFCURVE",
"31 417 OFFCURVE",
"33 423 CURVE",
"71 438 OFFCURVE",
"103 450 OFFCURVE",
"144 459 CURVE",
"149 426 OFFCURVE",
"151 387 OFFCURVE",
"151 344 CURVE SMOOTH"
);
},
{
closed = 1;
nodes = (
"434 21 LINE",
"426 43 LINE",
"456 30 OFFCURVE",
"477 25 OFFCURVE",
"505 23 CURVE",
"505 15 OFFCURVE",
"504 6 OFFCURVE",
"503 0 CURVE",
"317 0 LINE",
"316 7 OFFCURVE",
"317 17 OFFCURVE",
"318 23 CURVE",
"369 28 OFFCURVE",
"384 38 OFFCURVE",
"384 69 CURVE SMOOTH",
"384 316 LINE SMOOTH",
"384 387 OFFCURVE",
"348 423 OFFCURVE",
"291 423 CURVE SMOOTH",
"224 423 OFFCURVE",
"177 382 OFFCURVE",
"149 313 CURVE",
"138 329 LINE",
"165 406 OFFCURVE",
"223 465 OFFCURVE",
"305 465 CURVE SMOOTH",
"375 465 OFFCURVE",
"434 419 OFFCURVE",
"434 318 CURVE SMOOTH"
);
},
{
closed = 1;
nodes = (
"718 21 LINE",
"710 43 LINE",
"740 30 OFFCURVE",
"761 25 OFFCURVE",
"789 23 CURVE",
"789 15 OFFCURVE",
"788 6 OFFCURVE",
"787 0 CURVE",
"601 0 LINE",
"600 7 OFFCURVE",
"601 17 OFFCURVE",
"602 23 CURVE",
"653 28 OFFCURVE",
"668 38 OFFCURVE",
"668 69 CURVE SMOOTH",
"668 316 LINE SMOOTH",
"668 387 OFFCURVE",
"632 423 OFFCURVE",
"575 423 CURVE SMOOTH",
"508 423 OFFCURVE",
"461 382 OFFCURVE",
"433 313 CURVE",
"422 329 LINE",
"449 406 OFFCURVE",
"507 465 OFFCURVE",
"589 465 CURVE SMOOTH",
"659 465 OFFCURVE",
"718 419 OFFCURVE",
"718 318 CURVE SMOOTH"
);
}
);
width = 813;
}
);
unicode = 006D;
},
{
glyphname = n;
layers = (
{
anchors = (
{
name = bottom;
position = "{320, 0}";
},
{
name = top;
position = "{330, 461}";
}
);
layerId = "9482A91E-411F-4CFA-81A1-53DA6722202C";
paths = (
{
closed = 1;
nodes = (
"248 42 LINE",
"244 69 LINE",
"262 60 OFFCURVE",
"285 57 OFFCURVE",
"304 57 CURVE",
"305 40 OFFCURVE",
"303 17 OFFCURVE",
"300 0 CURVE",
"25 0 LINE",
"24 18 OFFCURVE",
"25 40 OFFCURVE",
"30 57 CURVE",
"65 63 OFFCURVE",
"93 73 OFFCURVE",
"93 116 CURVE SMOOTH",
"93 391 LINE",
"95 374 LINE",
"77 376 OFFCURVE",
"51 376 OFFCURVE",
"26 375 CURVE",
"27 390 OFFCURVE",
"30 415 OFFCURVE",
"35 430 CURVE",
"96 452 OFFCURVE",
"164 465 OFFCURVE",
"234 469 CURVE",
"245 410 OFFCURVE",
"248 361 OFFCURVE",
"248 305 CURVE SMOOTH"
);
},
{
closed = 1;
nodes = (
"558 41 LINE",
"554 69 LINE",
"587 60 OFFCURVE",
"602 57 OFFCURVE",
"625 57 CURVE",
"626 40 OFFCURVE",
"624 17 OFFCURVE",
"620 0 CURVE",
"349 0 LINE",
"347 18 OFFCURVE",
"349 40 OFFCURVE",
"353 57 CURVE",
"384 63 OFFCURVE",
"403 73 OFFCURVE",
"403 116 CURVE SMOOTH",
"403 296 LINE SMOOTH",
"403 351 OFFCURVE",
"375 374 OFFCURVE",
"338 374 CURVE SMOOTH",
"303 374 OFFCURVE",
"270 345 OFFCURVE",
"248 284 CURVE",
"228 336 LINE",
"258 434 OFFCURVE",
"326 474 OFFCURVE",
"403 474 CURVE SMOOTH",
"494 474 OFFCURVE",
"558 417 OFFCURVE",
"558 316 CURVE SMOOTH"
);
}
);
width = 640;
},
{
anchors = (
{
name = bottom;
position = "{260, 0}";
},
{
name = top;
position = "{277, 454}";
}
);
layerId = "2F11256F-FD75-4935-B7A9-D8816F9A9CE0";
paths = (
{
closed = 1;
nodes = (
"151 21 LINE",
"143 43 LINE",
"172 30 OFFCURVE",
"194 25 OFFCURVE",
"222 23 CURVE",
"222 15 OFFCURVE",
"221 6 OFFCURVE",
"219 0 CURVE",
"33 0 LINE",
"32 7 OFFCURVE",
"33 17 OFFCURVE",
"34 23 CURVE",
"85 28 OFFCURVE",
"101 38 OFFCURVE",
"101 69 CURVE SMOOTH",
"101 417 LINE",
"109 403 LINE",
"84 404 OFFCURVE",
"59 405 OFFCURVE",
"30 404 CURVE",
"30 411 OFFCURVE",
"31 417 OFFCURVE",
"33 423 CURVE",
"71 438 OFFCURVE",
"103 450 OFFCURVE",
"144 459 CURVE",
"149 426 OFFCURVE",
"151 387 OFFCURVE",
"151 344 CURVE SMOOTH"
);
},
{
closed = 1;
nodes = (
"434 21 LINE",
"426 43 LINE",
"456 30 OFFCURVE",
"477 25 OFFCURVE",
"505 23 CURVE",
"505 15 OFFCURVE",
"504 6 OFFCURVE",
"503 0 CURVE",
"317 0 LINE",
"316 7 OFFCURVE",
"317 17 OFFCURVE",
"318 23 CURVE",
"369 28 OFFCURVE",
"384 38 OFFCURVE",
"384 69 CURVE SMOOTH",
"384 316 LINE SMOOTH",
"384 387 OFFCURVE",
"348 423 OFFCURVE",
"291 423 CURVE SMOOTH",
"224 423 OFFCURVE",
"177 382 OFFCURVE",
"149 313 CURVE",
"138 329 LINE",
"165 406 OFFCURVE",
"223 465 OFFCURVE",
"305 465 CURVE SMOOTH",
"375 465 OFFCURVE",
"434 419 OFFCURVE",
"434 318 CURVE SMOOTH"
);
}
);
width = 530;
}
);
unicode = 006E;
},
{
glyphname = o;
layers = (
{
anchors = (
{
name = top;
position = "{276, 461}";
}
);
layerId = "9482A91E-411F-4CFA-81A1-53DA6722202C";
paths = (
{
closed = 1;
nodes = (
"527 65 OFFCURVE",
"416 -11 OFFCURVE",
"275 -11 CURVE SMOOTH",
"134 -11 OFFCURVE",
"24 65 OFFCURVE",
"24 231 CURVE SMOOTH",
"24 398 OFFCURVE",
"135 474 OFFCURVE",
"276 474 CURVE SMOOTH",
"416 474 OFFCURVE",
"527 398 OFFCURVE",
"527 231 CURVE SMOOTH"
);
},
{
closed = 1;
nodes = (
"194 111 OFFCURVE",
"224 58 OFFCURVE",
"282 58 CURVE SMOOTH",
"340 58 OFFCURVE",
"365 111 OFFCURVE",
"361 231 CURVE SMOOTH",
"357 351 OFFCURVE",
"327 405 OFFCURVE",
"270 405 CURVE SMOOTH",
"212 405 OFFCURVE",
"185 351 OFFCURVE",
"189 231 CURVE SMOOTH"
);
}
);
width = 551;
},
{
anchors = (
{
name = top;
position = "{259, 453}";
}
);
layerId = "2F11256F-FD75-4935-B7A9-D8816F9A9CE0";
paths = (
{
closed = 1;
nodes = (
"451 90 OFFCURVE",
"372 -12 OFFCURVE",
"249 -12 CURVE SMOOTH",
"115 -12 OFFCURVE",
"47 90 OFFCURVE",
"47 226 CURVE SMOOTH",
"47 364 OFFCURVE",
"126 465 OFFCURVE",
"249 465 CURVE SMOOTH",
"377 465 OFFCURVE",
"451 365 OFFCURVE",
"451 226 CURVE SMOOTH"
);
},
{
closed = 1;
nodes = (
"103 105 OFFCURVE",
"153 22 OFFCURVE",
"253 22 CURVE SMOOTH",
"353 22 OFFCURVE",
"399 105 OFFCURVE",
"397 226 CURVE SMOOTH",
"395 348 OFFCURVE",
"345 435 OFFCURVE",
"245 435 CURVE SMOOTH",
"145 435 OFFCURVE",
"99 348 OFFCURVE",
"100 226 CURVE"
);
}
);
width = 499;
}
);
unicode = 006F;
},
{
glyphname = p;
layers = (
{
layerId = "9482A91E-411F-4CFA-81A1-53DA6722202C";
paths = (
{
closed = 1;
nodes = (
"244 -197 LINE",
"240 -159 LINE",
"266 -173 OFFCURVE",
"305 -181 OFFCURVE",
"333 -182 CURVE",
"334 -199 OFFCURVE",
"332 -222 OFFCURVE",
"329 -239 CURVE",
"20 -239 LINE",
"19 -221 OFFCURVE",
"20 -199 OFFCURVE",
"26 -182 CURVE",
"61 -176 OFFCURVE",
"88 -166 OFFCURVE",
"88 -123 CURVE SMOOTH",
"88 391 LINE",
"91 374 LINE",
"72 376 OFFCURVE",
"46 376 OFFCURVE",
"22 375 CURVE",
"23 390 OFFCURVE",
"26 415 OFFCURVE",
"31 430 CURVE",
"92 452 OFFCURVE",
"157 465 OFFCURVE",
"226 468 CURVE",
"240 410 OFFCURVE",
"244 361 OFFCURVE",
"244 305 CURVE SMOOTH"
);
},
{
closed = 1;
nodes = (
"568 82 OFFCURVE",
"439 -11 OFFCURVE",
"294 -11 CURVE SMOOTH",
"241 -11 OFFCURVE",
"196 11 OFFCURVE",
"141 57 CURVE",
"214 91 LINE",
"241 67 OFFCURVE",
"272 56 OFFCURVE",
"306 56 CURVE SMOOTH",
"355 56 OFFCURVE",
"403 105 OFFCURVE",
"403 235 CURVE SMOOTH",
"403 364 OFFCURVE",
"355 389 OFFCURVE",
"319 389 CURVE SMOOTH",
"286 389 OFFCURVE",
"252 351 OFFCURVE",
"244 298 CURVE",
"235 398 LINE",
"269 453 OFFCURVE",
"317 474 OFFCURVE",
"367 474 CURVE SMOOTH",
"475 474 OFFCURVE",
"568 388 OFFCURVE",
"568 235 CURVE SMOOTH"
);
}
);
width = 592;
},
{
layerId = "2F11256F-FD75-4935-B7A9-D8816F9A9CE0";
paths = (
{
closed = 1;
nodes = (
"151 -202 LINE",
"144 -172 LINE",
"182 -189 OFFCURVE",
"210 -195 OFFCURVE",
"247 -198 CURVE",
"247 -206 OFFCURVE",
"247 -215 OFFCURVE",
"245 -221 CURVE",
"31 -221 LINE",
"30 -214 OFFCURVE",
"31 -204 OFFCURVE",
"34 -198 CURVE",
"85 -192 OFFCURVE",
"100 -182 OFFCURVE",
"100 -151 CURVE SMOOTH",
"100 417 LINE",
"109 403 LINE",
"83 404 OFFCURVE",
"58 405 OFFCURVE",
"30 404 CURVE",
"30 411 OFFCURVE",
"31 417 OFFCURVE",
"33 423 CURVE",
"71 438 OFFCURVE",
"103 450 OFFCURVE",
"143 458 CURVE",
"149 426 OFFCURVE",
"151 387 OFFCURVE",
"151 344 CURVE SMOOTH"
);
},
{
closed = 1;
nodes = (
"464 73 OFFCURVE",
"346 -12 OFFCURVE",
"228 -12 CURVE SMOOTH",
"187 -12 OFFCURVE",
"150 -4 OFFCURVE",
"109 19 CURVE",
"114 63 LINE",
"153 39 OFFCURVE",
"193 27 OFFCURVE",
"238 27 CURVE SMOOTH",
"323 27 OFFCURVE",
"407 96 OFFCURVE",
"407 236 CURVE SMOOTH",
"407 375 OFFCURVE",
"342 427 OFFCURVE",
"279 427 CURVE SMOOTH",
"216 427 OFFCURVE",
"156 383 OFFCURVE",
"144 275 CURVE",
"134 296 LINE",
"143 412 OFFCURVE",
"206 465 OFFCURVE",
"282 465 CURVE SMOOTH",
"367 465 OFFCURVE",
"464 396 OFFCURVE",
"464 236 CURVE SMOOTH"
);
}
);
width = 514;
}
);
unicode = 0070;
},
{
glyphname = q;
layers = (
{
layerId = "9482A91E-411F-4CFA-81A1-53DA6722202C";
paths = (
{
closed = 1;
nodes = (
"366 352 LINE",
"346 376 OFFCURVE",
"324 395 OFFCURVE",
"285 395 CURVE SMOOTH",
"238 395 OFFCURVE",
"189 362 OFFCURVE",
"189 235 CURVE SMOOTH",
"189 113 OFFCURVE",
"228 81 OFFCURVE",
"278 81 CURVE SMOOTH",
"318 81 OFFCURVE",
"345 97 OFFCURVE",
"378 131 CURVE",
"382 66 LINE",
"341 23 OFFCURVE",
"289 -11 OFFCURVE",
"224 -11 CURVE SMOOTH",
"134 -11 OFFCURVE",
"24 59 OFFCURVE",
"24 219 CURVE SMOOTH",
"24 379 OFFCURVE",
"147 474 OFFCURVE",
"303 474 CURVE SMOOTH",
"363 474 OFFCURVE",
"418 449 OFFCURVE",
"463 408 CURVE"
);
},
{
closed = 1;
nodes = (
"335 386 LINE",
"374 384 LINE",
"395 422 OFFCURVE",
"435 458 OFFCURVE",
"463 478 CURVE",
"490 478 LINE",
"490 -197 LINE",
"466 -162 LINE",
"490 -172 OFFCURVE",
"530 -180 OFFCURVE",
"558 -182 CURVE",
"559 -199 OFFCURVE",
"557 -222 OFFCURVE",
"554 -239 CURVE",
"246 -239 LINE",
"245 -221 OFFCURVE",
"246 -199 OFFCURVE",
"251 -182 CURVE",
"315 -176 OFFCURVE",
"335 -167 OFFCURVE",
"335 -123 CURVE SMOOTH"
);
}
);
width = 563;
},
{
layerId = "2F11256F-FD75-4935-B7A9-D8816F9A9CE0";
paths = (
{
closed = 1;
nodes = (
"384 402 LINE",
"357 414 OFFCURVE",
"324 426 OFFCURVE",
"283 426 CURVE SMOOTH",
"173 426 OFFCURVE",
"99 368 OFFCURVE",
"99 230 CURVE SMOOTH",
"99 91 OFFCURVE",
"156 29 OFFCURVE",
"245 29 CURVE SMOOTH",
"299 29 OFFCURVE",
"338 48 OFFCURVE",
"372 88 CURVE",
"375 63 LINE",
"347 23 OFFCURVE",
"301 -12 OFFCURVE",
"229 -12 CURVE SMOOTH",
"129 -12 OFFCURVE",
"47 67 OFFCURVE",
"47 216 CURVE SMOOTH",
"47 382 OFFCURVE",
"170 465 OFFCURVE",
"303 465 CURVE SMOOTH",
"341 465 OFFCURVE",
"370 456 OFFCURVE",
"399 441 CURVE"
);
},
{
closed = 1;
nodes = (
"357 418 LINE",
"363 418 LINE",
"371 442 OFFCURVE",
"386 461 OFFCURVE",
"401 472 CURVE",
"407 472 LINE",
"407 -200 LINE",
"398 -177 LINE",
"428 -191 OFFCURVE",
"448 -196 OFFCURVE",
"478 -198 CURVE",
"478 -206 OFFCURVE",
"477 -216 OFFCURVE",
"475 -221 CURVE",
"261 -221 LINE",
"260 -215 OFFCURVE",
"259 -205 OFFCURVE",
"261 -198 CURVE",
"336 -192 OFFCURVE",
"357 -176 OFFCURVE",
"357 -142 CURVE SMOOTH"
);
}
);
width = 497;
}
);
unicode = 0071;
},
{
glyphname = r;
layers = (
{
anchors = (
{
name = bottom;
position = "{164, 0}";
},
{
name = top;
position = "{232, 462}";
}
);
layerId = "9482A91E-411F-4CFA-81A1-53DA6722202C";
paths = (
{
closed = 1;
nodes = (
"332 331 OFFCURVE",
"261 311 OFFCURVE",
"248 227 CURVE",
"227 227 LINE",
"232 352 OFFCURVE",
"310 474 OFFCURVE",
"423 474 CURVE",
"432 445 OFFCURVE",
"429 382 OFFCURVE",
"417 331 CURVE"
);
},
{
closed = 1;
nodes = (
"93 391 LINE",
"95 374 LINE",
"77 376 OFFCURVE",
"51 376 OFFCURVE",
"26 375 CURVE",
"27 390 OFFCURVE",
"30 415 OFFCURVE",
"35 430 CURVE",
"96 452 OFFCURVE",
"164 465 OFFCURVE",
"234 468 CURVE",
"245 410 OFFCURVE",
"248 361 OFFCURVE",
"248 305 CURVE SMOOTH",
"248 42 LINE",
"244 76 LINE",
"267 67 OFFCURVE",
"306 59 OFFCURVE",
"334 57 CURVE",
"335 40 OFFCURVE",
"333 17 OFFCURVE",
"330 0 CURVE",
"25 0 LINE",
"24 18 OFFCURVE",
"25 40 OFFCURVE",
"30 57 CURVE",
"65 63 OFFCURVE",
"93 73 OFFCURVE",
"93 116 CURVE SMOOTH"
);
}
);
width = 417;
},
{
anchors = (
{
name = bottom;
position = "{127, 0}";
},
{
name = top;
position = "{198, 463}";
}
);
layerId = "2F11256F-FD75-4935-B7A9-D8816F9A9CE0";
paths = (
{
closed = 1;
nodes = (
"266 413 OFFCURVE",
"166 380 OFFCURVE",
"151 267 CURVE",
"135 267 LINE",
"150 388 OFFCURVE",
"239 465 OFFCURVE",
"326 465 CURVE",
"330 454 OFFCURVE",
"330 433 OFFCURVE",
"325 413 CURVE"
);
},
{
closed = 1;
nodes = (
"101 417 LINE",
"109 403 LINE",
"84 404 OFFCURVE",
"59 405 OFFCURVE",
"30 404 CURVE",
"30 411 OFFCURVE",
"31 417 OFFCURVE",
"33 423 CURVE",
"71 438 OFFCURVE",
"103 450 OFFCURVE",
"144 458 CURVE",
"149 426 OFFCURVE",
"151 387 OFFCURVE",
"151 344 CURVE",
"151 21 LINE",
"143 48 LINE",
"181 32 OFFCURVE",
"218 25 OFFCURVE",
"260 23 CURVE",
"260 15 OFFCURVE",
"259 6 OFFCURVE",
"257 0 CURVE",
"32 0 LINE",
"31 7 OFFCURVE",
"32 17 OFFCURVE",
"33 23 CURVE",
"85 29 OFFCURVE",
"101 39 OFFCURVE",
"101 70 CURVE"
);
}
);
width = 336;
}
);
unicode = 0072;
},
{
glyphname = s;
layers = (
{
anchors = (
{
name = bottom;
position = "{213, 0}";
},
{
name = top;
position = "{236, 461}";
}
);
layerId = "9482A91E-411F-4CFA-81A1-53DA6722202C";
paths = (
{
closed = 1;
nodes = (
"248 187 OFFCURVE",
"49 194 OFFCURVE",
"49 331 CURVE SMOOTH",
"49 428 OFFCURVE",
"123 474 OFFCURVE",
"241 474 CURVE SMOOTH",
"289 474 OFFCURVE",
"324 466 OFFCURVE",
"364 453 CURVE",
"366 394 OFFCURVE",
"362 351 OFFCURVE",
"358 321 CURVE",
"344 321 OFFCURVE",
"323 323 OFFCURVE",
"309 326 CURVE",
"320 398 OFFCURVE",
"283 411 OFFCURVE",
"246 411 CURVE SMOOTH",
"217 411 OFFCURVE",
"192 395 OFFCURVE",
"192 362 CURVE SMOOTH",
"192 284 OFFCURVE",
"399 291 OFFCURVE",
"399 140 CURVE SMOOTH",
"399 55 OFFCURVE",
"319 -13 OFFCURVE",
"181 -13 CURVE SMOOTH",
"144 -13 OFFCURVE",
"84 -7 OFFCURVE",
"40 6 CURVE",
"37 50 OFFCURVE",
"39 101 OFFCURVE",
"44 148 CURVE",
"57 148 OFFCURVE",
"80 146 OFFCURVE",
"96 144 CURVE",
"93 57 OFFCURVE",
"152 57 OFFCURVE",
"184 57 CURVE SMOOTH",
"221 57 OFFCURVE",
"248 80 OFFCURVE",
"248 107 CURVE SMOOTH"
);
}
);
width = 421;
},
{
anchors = (
{
name = bottom;
position = "{202, 0}";
},
{
name = top;
position = "{231, 453}";
}
);
layerId = "2F11256F-FD75-4935-B7A9-D8816F9A9CE0";
paths = (
{
closed = 1;
nodes = (
"319 207 OFFCURVE",
"74 196 OFFCURVE",
"74 341 CURVE SMOOTH",
"74 428 OFFCURVE",
"148 465 OFFCURVE",
"225 465 CURVE SMOOTH",
"276 465 OFFCURVE",
"305 457 OFFCURVE",
"339 446 CURVE",
"341 408 OFFCURVE",
"339 371 OFFCURVE",
"334 338 CURVE",
"330 338 OFFCURVE",
"321 339 OFFCURVE",
"318 340 CURVE",
"326 422 OFFCURVE",
"274 436 OFFCURVE",
"221 436 CURVE SMOOTH",
"161 436 OFFCURVE",
"120 402 OFFCURVE",
"120 351 CURVE SMOOTH",
"120 240 OFFCURVE",
"369 252 OFFCURVE",
"369 117 CURVE SMOOTH",
"369 30 OFFCURVE",
"285 -12 OFFCURVE",
"200 -12 CURVE SMOOTH",
"142 -12 OFFCURVE",
"100 -3 OFFCURVE",
"61 10 CURVE",
"57 52 OFFCURVE",
"60 100 OFFCURVE",
"66 125 CURVE",
"70 125 OFFCURVE",
"76 125 OFFCURVE",
"81 124 CURVE",
"74 39 OFFCURVE",
"140 18 OFFCURVE",
"202 18 CURVE SMOOTH",
"274 18 OFFCURVE",
"319 52 OFFCURVE",
"319 103 CURVE SMOOTH"
);
}
);
width = 416;
}
);
unicode = 0073;
},
{
glyphname = t;
layers = (
{
anchors = (
{
name = bottom;
position = "{197, 0}";
},
{
name = commaaccent;
position = "{284, 650}";
}
);
layerId = "9482A91E-411F-4CFA-81A1-53DA6722202C";
paths = (
{
closed = 1;
nodes = (
"236 607 LINE",
"236 140 LINE SMOOTH",
"236 101 OFFCURVE",
"251 90 OFFCURVE",
"275 90 CURVE SMOOTH",
"296 90 OFFCURVE",
"316 96 OFFCURVE",
"342 114 CURVE",
"368 80 LINE",
"332 28 OFFCURVE",
"282 -11 OFFCURVE",
"218 -11 CURVE SMOOTH",
"139 -11 OFFCURVE",
"81 36 OFFCURVE",
"81 137 CURVE SMOOTH",
"81 421 LINE",
"101 378 LINE",
"76 386 OFFCURVE",
"45 387 OFFCURVE",
"19 387 CURVE",
"18 401 OFFCURVE",
"19 425 OFFCURVE",
"21 437 CURVE",
"40 446 OFFCURVE",
"61 452 OFFCURVE",
"80 456 CURVE",
"204 616 LINE"
);
},
{
closed = 1;
nodes = (
"201 459 LINE",
"242 459 OFFCURVE",
"290 461 OFFCURVE",
"354 470 CURVE",
"354 439 OFFCURVE",
"351 411 OFFCURVE",
"344 389 CURVE",
"201 389 LINE"
);
}
);
width = 385;
},
{
anchors = (
{
name = bottom;
position = "{192, 0}";
},
{
name = commaaccent;
position = "{198, 601}";
}
);
layerId = "2F11256F-FD75-4935-B7A9-D8816F9A9CE0";
paths = (
{
closed = 1;
nodes = (
"147 558 LINE",
"146 110 LINE",
"146 53 OFFCURVE",
"174 33 OFFCURVE",
"211 33 CURVE SMOOTH",
"249 33 OFFCURVE",
"283 49 OFFCURVE",
"311 74 CURVE",
"318 66 LINE",
"290 20 OFFCURVE",
"247 -12 OFFCURVE",
"200 -12 CURVE SMOOTH",
"147 -12 OFFCURVE",
"96 18 OFFCURVE",
"96 98 CURVE SMOOTH",
"96 427 LINE",
"121 410 LINE",
"92 417 OFFCURVE",
"60 419 OFFCURVE",
"30 419 CURVE",
"30 425 OFFCURVE",
"31 429 OFFCURVE",
"31 432 CURVE",
"52 439 OFFCURVE",
"73 444 OFFCURVE",
"96 446 CURVE",
"136 561 LINE"
);
},
{
closed = 1;
nodes = (
"133 447 LINE",
"191 447 OFFCURVE",
"243 448 OFFCURVE",
"293 452 CURVE",
"293 434 OFFCURVE",
"292 428 OFFCURVE",
"286 415 CURVE",
"133 415 LINE"
);
}
);
width = 334;
}
);
unicode = 0074;
},
{
glyphname = u;
layers = (
{
anchors = (
{
name = ogonek;
position = "{542, 20}";
},
{
name = top;
position = "{300, 461}";
}
);
layerId = "9482A91E-411F-4CFA-81A1-53DA6722202C";
paths = (
{
closed = 1;
nodes = (
"532 73 LINE",
"530 92 LINE",
"548 88 OFFCURVE",
"567 85 OFFCURVE",
"589 85 CURVE",
"592 66 OFFCURVE",
"592 53 OFFCURVE",
"591 33 CURVE",
"541 12 OFFCURVE",
"464 -4 OFFCURVE",
"392 -5 CURVE",
"380 53 OFFCURVE",
"377 103 OFFCURVE",
"377 158 CURVE SMOOTH",
"377 330 LINE SMOOTH",
"377 380 OFFCURVE",
"365 403 OFFCURVE",
"327 415 CURVE",
"329 427 OFFCURVE",
"333 441 OFFCURVE",
"339 451 CURVE",
"397 473 OFFCURVE",
"478 480 OFFCURVE",
"536 472 CURVE",
"533 445 OFFCURVE",
"532 416 OFFCURVE",
"532 365 CURVE SMOOTH"
);
},
{
closed = 1;
nodes = (
"222 167 LINE SMOOTH",
"222 113 OFFCURVE",
"250 90 OFFCURVE",
"287 90 CURVE SMOOTH",
"322 90 OFFCURVE",
"355 118 OFFCURVE",
"377 180 CURVE",
"398 127 LINE",
"368 30 OFFCURVE",
"299 -11 OFFCURVE",
"222 -11 CURVE SMOOTH",
"131 -11 OFFCURVE",
"67 47 OFFCURVE",
"67 147 CURVE SMOOTH",
"67 386 LINE",
"70 380 LINE",
"51 382 OFFCURVE",
"35 382 OFFCURVE",
"10 381 CURVE",
"11 396 OFFCURVE",
"14 421 OFFCURVE",
"19 436 CURVE",
"85 459 OFFCURVE",
"134 471 OFFCURVE",
"222 474 CURVE"
);
}
);
width = 630;
},
{
anchors = (
{
name = ogonek;
position = "{434, 11}";
},
{
name = top;
position = "{246, 453}";
}
);
layerId = "2F11256F-FD75-4935-B7A9-D8816F9A9CE0";
paths = (
{
closed = 1;
nodes = (
"413 37 LINE",
"405 51 LINE",
"430 50 OFFCURVE",
"451 49 OFFCURVE",
"480 50 CURVE",
"481 44 OFFCURVE",
"482 37 OFFCURVE",
"481 30 CURVE",
"456 17 OFFCURVE",
"411 1 OFFCURVE",
"371 -5 CURVE",
"365 27 OFFCURVE",
"363 67 OFFCURVE",
"363 109 CURVE",
"363 375 LINE SMOOTH",
"363 399 OFFCURVE",
"356 422 OFFCURVE",
"341 435 CURVE",
"342 439 OFFCURVE",
"343 443 OFFCURVE",
"344 445 CURVE",
"366 455 OFFCURVE",
"391 459 OFFCURVE",
"417 459 CURVE",
"414 432 OFFCURVE",
"413 407 OFFCURVE",
"413 377 CURVE SMOOTH"
);
},
{
closed = 1;
nodes = (
"130 144 LINE SMOOTH",
"130 74 OFFCURVE",
"166 31 OFFCURVE",
"223 31 CURVE SMOOTH",
"275 31 OFFCURVE",
"329 71 OFFCURVE",
"365 141 CURVE",
"377 124 LINE",
"327 31 OFFCURVE",
"276 -12 OFFCURVE",
"209 -12 CURVE SMOOTH",
"142 -12 OFFCURVE",
"80 38 OFFCURVE",
"80 142 CURVE SMOOTH",
"80 415 LINE",
"89 402 LINE",
"68 404 OFFCURVE",
"49 404 OFFCURVE",
"20 403 CURVE",
"20 410 OFFCURVE",
"21 416 OFFCURVE",
"23 422 CURVE",
"60 439 OFFCURVE",
"89 452 OFFCURVE",
"130 459 CURVE"
);
}
);
width = 519;
}
);
unicode = 0075;
},
{
glyphname = v;
layers = (
{
layerId = "9482A91E-411F-4CFA-81A1-53DA6722202C";
paths = (
{
closed = 1;
nodes = (
"251 406 OFFCURVE",
"222 406 OFFCURVE",
"202 397 CURVE",
"205 432 LINE",
"322 38 LINE",
"307 41 LINE",
"307 82 OFFCURVE",
"321 130 OFFCURVE",
"337 175 CURVE SMOOTH",
"393 341 LINE SMOOTH",
"408 385 OFFCURVE",
"398 399 OFFCURVE",
"357 406 CURVE",
"352 423 OFFCURVE",
"350 445 OFFCURVE",
"352 461 CURVE",
"568 461 LINE",
"569 441 OFFCURVE",
"564 422 OFFCURVE",
"556 406 CURVE",
"530 406 OFFCURVE",
"507 402 OFFCURVE",
"484 387 CURVE",
"503 408 LINE",
"336 -6 LINE",
"203 -6 LINE",
"64 346 LINE",
"52 382 OFFCURVE",
"38 397 OFFCURVE",
"-5 406 CURVE",
"-9 423 OFFCURVE",
"-11 445 OFFCURVE",
"-9 461 CURVE",
"266 461 LINE",
"270 446 OFFCURVE",
"270 423 OFFCURVE",
"270 406 CURVE"
);
}
);
width = 542;
},
{
layerId = "2F11256F-FD75-4935-B7A9-D8816F9A9CE0";
paths = (
{
closed = 1;
nodes = (
"159 428 OFFCURVE",
"133 424 OFFCURVE",
"107 409 CURVE",
"108 423 LINE",
"256 25 LINE",
"249 24 LINE",
"250 40 OFFCURVE",
"254 57 OFFCURVE",
"261 75 CURVE SMOOTH",
"373 369 LINE SMOOTH",
"386 404 OFFCURVE",
"386 425 OFFCURVE",
"306 430 CURVE",
"303 437 OFFCURVE",
"302 445 OFFCURVE",
"303 453 CURVE",
"494 453 LINE",
"495 446 OFFCURVE",
"493 438 OFFCURVE",
"491 430 CURVE",
"468 427 OFFCURVE",
"446 421 OFFCURVE",
"422 412 CURVE",
"436 432 LINE",
"264 -6 LINE",
"227 -6 LINE",
"71 377 LINE SMOOTH",
"55 415 OFFCURVE",
"43 426 OFFCURVE",
"-4 430 CURVE",
"-5 437 OFFCURVE",
"-6 445 OFFCURVE",
"-5 453 CURVE",
"184 453 LINE",
"186 446 OFFCURVE",
"187 438 OFFCURVE",
"187 430 CURVE"
);
}
);
width = 487;
}
);
unicode = 0076;
},
{
glyphname = w;
layers = (
{
layerId = "9482A91E-411F-4CFA-81A1-53DA6722202C";
paths = (
{
closed = 1;
nodes = (
"225 403 OFFCURVE",
"223 389 OFFCURVE",
"233 357 CURVE SMOOTH",
"279 213 LINE SMOOTH",
"284 199 OFFCURVE",
"287 185 OFFCURVE",
"289 171 CURVE",
"292 171 LINE",
"401 441 LINE",
"464 441 LINE",
"549 213 LINE SMOOTH",
"555 198 OFFCURVE",
"557 186 OFFCURVE",
"559 172 CURVE",
"561 172 LINE",
"626 362 LINE SMOOTH",
"637 394 OFFCURVE",
"628 407 OFFCURVE",
"587 407 CURVE",
"586 423 OFFCURVE",
"588 448 OFFCURVE",
"592 461 CURVE",
"761 461 LINE",
"764 448 OFFCURVE",
"761 424 OFFCURVE",
"755 407 CURVE",
"739 406 OFFCURVE",
"718 403 OFFCURVE",
"696 396 CURVE",
"731 434 LINE",
"554 -6 LINE",
"491 -6 LINE",
"371 284 LINE",
"413 306 LINE",
"271 -6 LINE",
"208 -6 LINE",
"39 445 LINE",
"71 392 LINE",
"51 403 OFFCURVE",
"35 407 OFFCURVE",
"17 407 CURVE",
"14 422 OFFCURVE",
"12 446 OFFCURVE",
"15 461 CURVE",
"268 461 LINE",
"272 446 OFFCURVE",
"273 421 OFFCURVE",
"273 407 CURVE"
);
}
);
width = 767;
},
{
layerId = "2F11256F-FD75-4935-B7A9-D8816F9A9CE0";
paths = (
{
closed = 1;
nodes = (
"140 423 OFFCURVE",
"125 405 OFFCURVE",
"134 378 CURVE SMOOTH",
"222 125 LINE SMOOTH",
"229 106 OFFCURVE",
"232 92 OFFCURVE",
"234 79 CURVE",
"236 79 LINE",
"371 434 LINE",
"391 434 LINE",
"498 125 LINE SMOOTH",
"504 108 OFFCURVE",
"509 94 OFFCURVE",
"512 79 CURVE",
"514 79 LINE",
"621 364 LINE SMOOTH",
"640 414 OFFCURVE",
"622 424 OFFCURVE",
"557 429 CURVE",
"555 436 OFFCURVE",
"554 444 OFFCURVE",
"555 453 CURVE",
"725 453 LINE",
"726 444 OFFCURVE",
"725 436 OFFCURVE",
"723 429 CURVE",
"694 423 OFFCURVE",
"678 417 OFFCURVE",
"652 402 CURVE",
"686 437 LINE",
"512 -6 LINE",
"492 -6 LINE",
"361 371 LINE",
"382 371 LINE",
"234 -6 LINE",
"214 -6 LINE",
"63 430 LINE",
"82 409 LINE",
"65 419 OFFCURVE",
"46 426 OFFCURVE",
"22 429 CURVE",
"21 436 OFFCURVE",
"20 444 OFFCURVE",
"21 453 CURVE",
"194 453 LINE",
"196 445 OFFCURVE",
"197 437 OFFCURVE",
"197 429 CURVE"
);
}
);
width = 747;
}
);
unicode = 0077;
},
{
glyphname = x;
layers = (
{
layerId = "9482A91E-411F-4CFA-81A1-53DA6722202C";
paths = (
{
closed = 1;
nodes = (
"252 406 OFFCURVE",
"223 406 OFFCURVE",
"202 397 CURVE",
"193 433 LINE",
"450 116 LINE SMOOTH",
"481 78 OFFCURVE",
"491 59 OFFCURVE",
"538 57 CURVE",
"542 39 OFFCURVE",
"544 18 OFFCURVE",
"542 0 CURVE",
"259 0 LINE",
"255 17 OFFCURVE",
"255 39 OFFCURVE",
"255 57 CURVE",
"274 57 OFFCURVE",
"304 56 OFFCURVE",
"324 65 CURVE",
"333 31 LINE",
"66 360 LINE SMOOTH",
"48 383 OFFCURVE",
"31 406 OFFCURVE",
"-11 406 CURVE",
"-16 423 OFFCURVE",
"-17 445 OFFCURVE",
"-16 461 CURVE",
"268 461 LINE",
"272 446 OFFCURVE",
"272 423 OFFCURVE",
"272 406 CURVE"
);
},
{
closed = 1;
nodes = (
"499 406 OFFCURVE",
"475 392 OFFCURVE",
"448 361 CURVE SMOOTH",
"343 242 LINE",
"301 288 LINE",
"415 422 LINE",
"411 397 LINE",
"390 402 OFFCURVE",
"369 405 OFFCURVE",
"350 406 CURVE",
"346 423 OFFCURVE",
"344 445 OFFCURVE",
"346 461 CURVE",
"538 461 LINE",
"539 441 OFFCURVE",
"536 422 OFFCURVE",
"528 406 CURVE"
);
},
{
closed = 1;
nodes = (
"227 183 LINE",
"107 41 LINE",
"111 65 LINE",
"133 60 OFFCURVE",
"154 58 OFFCURVE",
"173 57 CURVE",
"177 39 OFFCURVE",
"178 18 OFFCURVE",
"177 0 CURVE",
"-16 0 LINE",
"-15 21 OFFCURVE",
"-12 40 OFFCURVE",
"-5 57 CURVE",
"24 57 OFFCURVE",
"48 70 OFFCURVE",
"76 101 CURVE",
"188 233 LINE"
);
}
);
width = 528;
},
{
layerId = "2F11256F-FD75-4935-B7A9-D8816F9A9CE0";
paths = (
{
closed = 1;
nodes = (
"170 428 OFFCURVE",
"151 427 OFFCURVE",
"122 409 CURVE",
"137 424 LINE",
"391 86 LINE SMOOTH",
"425 40 OFFCURVE",
"446 28 OFFCURVE",
"487 23 CURVE",
"489 16 OFFCURVE",
"490 8 OFFCURVE",
"489 0 CURVE",
"315 0 LINE",
"313 7 OFFCURVE",
"312 15 OFFCURVE",
"312 23 CURVE",
"347 25 OFFCURVE",
"364 30 OFFCURVE",
"387 43 CURVE",
"383 20 LINE",
"120 368 LINE SMOOTH",
"94 403 OFFCURVE",
"65 423 OFFCURVE",
"17 430 CURVE",
"15 437 OFFCURVE",
"14 445 OFFCURVE",
"15 453 CURVE",
"196 453 LINE",
"198 446 OFFCURVE",
"199 438 OFFCURVE",
"199 430 CURVE"
);
},
{
closed = 1;
nodes = (
"442 426 OFFCURVE",
"424 410 OFFCURVE",
"398 379 CURVE SMOOTH",
"273 227 LINE",
"256 250 LINE",
"396 429 LINE",
"396 413 LINE",
"381 424 OFFCURVE",
"360 428 OFFCURVE",
"328 430 CURVE",
"328 438 OFFCURVE",
"329 446 OFFCURVE",
"331 453 CURVE",
"489 453 LINE",
"490 445 OFFCURVE",
"489 437 OFFCURVE",
"486 430 CURVE"
);
},
{
closed = 1;
nodes = (
"253 209 LINE",
"109 25 LINE",
"112 37 LINE",
"133 27 OFFCURVE",
"150 25 OFFCURVE",
"176 23 CURVE",
"176 15 OFFCURVE",
"175 7 OFFCURVE",
"174 0 CURVE",
"15 0 LINE",
"15 8 OFFCURVE",
"16 16 OFFCURVE",
"17 23 CURVE",
"62 27 OFFCURVE",
"80 43 OFFCURVE",
"106 73 CURVE SMOOTH",
"235 229 LINE"
);
}
);
width = 504;
}
);
unicode = 0078;
},
{
glyphname = y;
layers = (
{
anchors = (
{
name = top;
position = "{311, 462}";
}
);
layerId = "9482A91E-411F-4CFA-81A1-53DA6722202C";
paths = (
{
closed = 1;
nodes = (
"245 406 OFFCURVE",
"207 406 OFFCURVE",
"188 389 CURVE",
"201 446 LINE",
"319 34 LINE",
"292 43 LINE",
"295 82 OFFCURVE",
"306 127 OFFCURVE",
"322 168 CURVE SMOOTH",
"393 341 LINE SMOOTH",
"410 384 OFFCURVE",
"398 399 OFFCURVE",
"357 406 CURVE",
"353 423 OFFCURVE",
"351 445 OFFCURVE",
"353 461 CURVE",
"556 461 LINE",
"557 441 OFFCURVE",
"552 422 OFFCURVE",
"544 406 CURVE",
"517 404 OFFCURVE",
"489 396 OFFCURVE",
"459 378 CURVE",
"518 437 LINE",
"272 -94 LINE SMOOTH",
"234 -177 OFFCURVE",
"187 -239 OFFCURVE",
"116 -239 CURVE SMOOTH",
"94 -239 LINE",
"82 -197 OFFCURVE",
"77 -148 OFFCURVE",
"82 -99 CURVE",
"115 -99 LINE SMOOTH",
"187 -99 OFFCURVE",
"216 -78 OFFCURVE",
"246 -14 CURVE",
"253 3 LINE",
"242 -81 LINE",
"64 346 LINE SMOOTH",
"50 381 OFFCURVE",
"38 397 OFFCURVE",
"-5 406 CURVE",
"-9 423 OFFCURVE",
"-11 445 OFFCURVE",
"-9 461 CURVE",
"266 461 LINE",
"270 446 OFFCURVE",
"270 423 OFFCURVE",
"270 406 CURVE"
);
}
);
width = 542;
},
{
anchors = (
{
name = top;
position = "{263, 453}";
}
);
layerId = "2F11256F-FD75-4935-B7A9-D8816F9A9CE0";
paths = (
{
closed = 1;
nodes = (
"167 428 OFFCURVE",
"140 421 OFFCURVE",
"115 409 CURVE",
"117 424 LINE",
"269 31 LINE",
"256 30 LINE",
"258 46 OFFCURVE",
"262 63 OFFCURVE",
"269 81 CURVE SMOOTH",
"381 369 LINE SMOOTH",
"397 408 OFFCURVE",
"386 426 OFFCURVE",
"314 430 CURVE",
"312 437 OFFCURVE",
"311 446 OFFCURVE",
"312 453 CURVE",
"490 453 LINE",
"491 446 OFFCURVE",
"490 438 OFFCURVE",
"487 430 CURVE",
"464 427 OFFCURVE",
"432 418 OFFCURVE",
"418 411 CURVE",
"450 439 LINE",
"228 -105 LINE SMOOTH",
"194 -190 OFFCURVE",
"164 -221 OFFCURVE",
"111 -221 CURVE SMOOTH",
"100 -221 LINE",
"93 -206 OFFCURVE",
"90 -186 OFFCURVE",
"93 -170 CURVE",
"109 -170 LINE SMOOTH",
"143 -170 OFFCURVE",
"160 -160 OFFCURVE",
"184 -113 CURVE",
"243 13 LINE",
"241 -21 LINE",
"81 377 LINE SMOOTH",
"66 415 OFFCURVE",
"53 426 OFFCURVE",
"6 430 CURVE",
"5 437 OFFCURVE",
"4 445 OFFCURVE",
"5 453 CURVE",
"193 453 LINE",
"195 446 OFFCURVE",
"196 438 OFFCURVE",
"196 430 CURVE"
);
}
);
width = 495;
}
);
unicode = 0079;
},
{
glyphname = z;
layers = (
{
anchors = (
{
name = top;
position = "{258, 461}";
}
);
layerId = "9482A91E-411F-4CFA-81A1-53DA6722202C";
paths = (
{
closed = 1;
nodes = (
"194 51 LINE",
"161 62 LINE",
"303 62 LINE SMOOTH",
"351 62 OFFCURVE",
"374 80 OFFCURVE",
"389 151 CURVE",
"400 151 OFFCURVE",
"414 148 OFFCURVE",
"426 143 CURVE",
"427 95 OFFCURVE",
"424 53 OFFCURVE",
"417 0 CURVE",
"39 0 LINE",
"32 22 OFFCURVE",
"29 59 OFFCURVE",
"34 87 CURVE",
"272 414 LINE",
"299 400 LINE",
"164 400 LINE SMOOTH",
"118 400 OFFCURVE",
"94 382 OFFCURVE",
"80 311 CURVE",
"68 311 OFFCURVE",
"54 313 OFFCURVE",
"42 320 CURVE",
"42 367 OFFCURVE",
"44 410 OFFCURVE",
"51 461 CURVE",
"423 461 LINE",
"429 440 OFFCURVE",
"432 403 OFFCURVE",
"427 375 CURVE"
);
}
);
width = 481;
},
{
anchors = (
{
name = top;
position = "{230, 453}";
}
);
layerId = "2F11256F-FD75-4935-B7A9-D8816F9A9CE0";
paths = (
{
closed = 1;
nodes = (
"101 11 LINE",
"99 30 LINE",
"278 30 LINE SMOOTH",
"350 30 OFFCURVE",
"372 57 OFFCURVE",
"383 130 CURVE",
"388 130 OFFCURVE",
"394 129 OFFCURVE",
"400 126 CURVE",
"400 85 OFFCURVE",
"396 43 OFFCURVE",
"389 0 CURVE",
"46 0 LINE",
"45 9 OFFCURVE",
"47 19 OFFCURVE",
"50 28 CURVE",
"346 437 LINE",
"357 424 LINE",
"184 424 LINE SMOOTH",
"112 424 OFFCURVE",
"90 395 OFFCURVE",
"79 323 CURVE",
"74 323 OFFCURVE",
"68 324 OFFCURVE",
"62 328 CURVE",
"62 368 OFFCURVE",
"66 411 OFFCURVE",
"73 453 CURVE",
"398 453 LINE",
"400 445 OFFCURVE",
"401 432 OFFCURVE",
"395 423 CURVE SMOOTH"
);
}
);
width = 442;
}
);
unicode = 007A;
},
{
glyphname = braceleft;
layers = (
{
layerId = "9482A91E-411F-4CFA-81A1-53DA6722202C";
paths = (
{
closed = 1;
nodes = (
"80 285 LINE",
"151 278 OFFCURVE",
"180 242 OFFCURVE",
"180 183 CURVE SMOOTH",
"180 119 OFFCURVE",
"153 73 OFFCURVE",
"153 11 CURVE SMOOTH",
"153 -77 OFFCURVE",
"232 -165 OFFCURVE",
"443 -152 CURVE",
"443 -102 LINE",
"359 -95 OFFCURVE",
"304 -59 OFFCURVE",
"304 11 CURVE SMOOTH",
"304 69 OFFCURVE",
"330 122 OFFCURVE",
"330 186 CURVE SMOOTH",
"330 265 OFFCURVE",
"298 305 OFFCURVE",
"206 325 CURVE",
"298 345 OFFCURVE",
"330 385 OFFCURVE",
"330 464 CURVE SMOOTH",
"330 528 OFFCURVE",
"304 581 OFFCURVE",
"304 639 CURVE SMOOTH",
"304 709 OFFCURVE",
"359 745 OFFCURVE",
"443 752 CURVE",
"443 802 LINE",
"232 815 OFFCURVE",
"153 727 OFFCURVE",
"153 639 CURVE SMOOTH",
"153 577 OFFCURVE",
"180 531 OFFCURVE",
"180 467 CURVE SMOOTH",
"180 408 OFFCURVE",
"151 372 OFFCURVE",
"80 365 CURVE"
);
}
);
width = 483;
},
{
layerId = "2F11256F-FD75-4935-B7A9-D8816F9A9CE0";
paths = (
{
closed = 1;
nodes = (
"95 308 LINE",
"154 303 OFFCURVE",
"165 272 OFFCURVE",
"165 231 CURVE SMOOTH",
"165 176 OFFCURVE",
"125 114 OFFCURVE",
"125 31 CURVE SMOOTH",
"125 -73 OFFCURVE",
"202 -128 OFFCURVE",
"341 -128 CURVE",
"341 -108 LINE",
"199 -107 OFFCURVE",
"173 -37 OFFCURVE",
"173 25 CURVE SMOOTH",
"173 108 OFFCURVE",
"212 155 OFFCURVE",
"212 228 CURVE SMOOTH",
"212 279 OFFCURVE",
"184 315 OFFCURVE",
"138 327 CURVE",
"184 339 OFFCURVE",
"212 375 OFFCURVE",
"212 426 CURVE SMOOTH",
"212 499 OFFCURVE",
"173 546 OFFCURVE",
"173 629 CURVE SMOOTH",
"173 691 OFFCURVE",
"199 761 OFFCURVE",
"341 762 CURVE",
"341 782 LINE",
"202 782 OFFCURVE",
"125 727 OFFCURVE",
"125 623 CURVE SMOOTH",
"125 540 OFFCURVE",
"165 478 OFFCURVE",
"165 423 CURVE SMOOTH",
"165 382 OFFCURVE",
"154 351 OFFCURVE",
"95 346 CURVE"
);
}
);
width = 371;
}
);
unicode = 007B;
},
{
glyphname = bar;
layers = (
{
layerId = "9482A91E-411F-4CFA-81A1-53DA6722202C";
paths = (
{
closed = 1;
nodes = (
"85 763 LINE",
"85 -107 LINE",
"208 -107 LINE",
"208 763 LINE"
);
}
);
width = 303;
},
{
layerId = "2F11256F-FD75-4935-B7A9-D8816F9A9CE0";
paths = (
{
closed = 1;
nodes = (
"145 675 LINE",
"145 -5 LINE",
"189 -5 LINE",
"189 675 LINE"
);
}
);
width = 328;
}
);
unicode = 007C;
},
{
glyphname = braceright;
layers = (
{
layerId = "9482A91E-411F-4CFA-81A1-53DA6722202C";
paths = (
{
closed = 1;
nodes = (
"303 531 OFFCURVE",
"330 577 OFFCURVE",
"330 639 CURVE SMOOTH",
"330 727 OFFCURVE",
"251 815 OFFCURVE",
"40 802 CURVE",
"40 752 LINE",
"124 745 OFFCURVE",
"179 709 OFFCURVE",
"179 639 CURVE SMOOTH",
"179 581 OFFCURVE",
"153 528 OFFCURVE",
"153 464 CURVE SMOOTH",
"153 385 OFFCURVE",
"185 345 OFFCURVE",
"277 325 CURVE",
"185 305 OFFCURVE",
"153 265 OFFCURVE",
"153 186 CURVE SMOOTH",
"153 122 OFFCURVE",
"179 69 OFFCURVE",
"179 11 CURVE SMOOTH",
"179 -59 OFFCURVE",
"124 -95 OFFCURVE",
"40 -102 CURVE",
"40 -152 LINE",
"251 -165 OFFCURVE",
"330 -77 OFFCURVE",
"330 11 CURVE SMOOTH",
"330 73 OFFCURVE",
"303 119 OFFCURVE",
"303 183 CURVE SMOOTH",
"303 242 OFFCURVE",
"332 278 OFFCURVE",
"403 285 CURVE",
"403 365 LINE",
"332 372 OFFCURVE",
"303 408 OFFCURVE",
"303 467 CURVE SMOOTH"
);
}
);
width = 483;
},
{
layerId = "2F11256F-FD75-4935-B7A9-D8816F9A9CE0";
paths = (
{
closed = 1;
nodes = (
"206 478 OFFCURVE",
"246 540 OFFCURVE",
"246 623 CURVE SMOOTH",
"246 727 OFFCURVE",
"169 782 OFFCURVE",
"30 782 CURVE",
"30 762 LINE",
"172 761 OFFCURVE",
"198 691 OFFCURVE",
"198 629 CURVE SMOOTH",
"198 546 OFFCURVE",
"159 499 OFFCURVE",
"159 426 CURVE SMOOTH",
"159 375 OFFCURVE",
"187 339 OFFCURVE",
"233 327 CURVE",
"187 315 OFFCURVE",
"159 279 OFFCURVE",
"159 228 CURVE SMOOTH",
"159 155 OFFCURVE",
"198 108 OFFCURVE",
"198 25 CURVE SMOOTH",
"198 -37 OFFCURVE",
"172 -107 OFFCURVE",
"30 -108 CURVE",
"30 -128 LINE",
"169 -128 OFFCURVE",
"246 -73 OFFCURVE",
"246 31 CURVE SMOOTH",
"246 114 OFFCURVE",
"206 176 OFFCURVE",
"206 231 CURVE SMOOTH",
"206 272 OFFCURVE",
"217 303 OFFCURVE",
"276 308 CURVE",
"276 346 LINE",
"217 351 OFFCURVE",
"206 382 OFFCURVE",
"206 423 CURVE SMOOTH"
);
}
);
width = 371;
}
);
unicode = 007D;
},
{
glyphname = asciitilde;
layers = (
{
layerId = "9482A91E-411F-4CFA-81A1-53DA6722202C";
paths = (
{
closed = 1;
nodes = (
"554 338 OFFCURVE",
"584 365 OFFCURVE",
"596 420 CURVE",
"648 420 LINE",
"639 273 OFFCURVE",
"565 206 OFFCURVE",
"470 206 CURVE SMOOTH",
"360 206 OFFCURVE",
"288 293 OFFCURVE",
"199 293 CURVE SMOOTH",
"144 293 OFFCURVE",
"114 266 OFFCURVE",
"102 211 CURVE",
"50 211 LINE",
"59 358 OFFCURVE",
"133 425 OFFCURVE",
"228 425 CURVE SMOOTH",
"338 425 OFFCURVE",
"410 338 OFFCURVE",
"499 338 CURVE SMOOTH"
);
}
);
width = 698;
},
{
layerId = "2F11256F-FD75-4935-B7A9-D8816F9A9CE0";
paths = (
{
closed = 1;
nodes = (
"478 305 OFFCURVE",
"513 336 OFFCURVE",
"521 383 CURVE",
"550 383 LINE",
"539 309 OFFCURVE",
"489 261 OFFCURVE",
"417 261 CURVE SMOOTH",
"321 261 OFFCURVE",
"237 344 OFFCURVE",
"167 344 CURVE SMOOTH",
"122 344 OFFCURVE",
"87 313 OFFCURVE",
"79 266 CURVE",
"50 266 LINE",
"61 340 OFFCURVE",
"111 388 OFFCURVE",
"183 388 CURVE SMOOTH",
"263 388 OFFCURVE",
"360 305 OFFCURVE",
"433 305 CURVE SMOOTH"
);
}
);
width = 600;
}
);
unicode = 007E;
},
{
glyphname = cent;
layers = (
{
layerId = "9482A91E-411F-4CFA-81A1-53DA6722202C";
paths = (
{
closed = 1;
nodes = (
"235 554 LINE",
"302 554 LINE",
"302 437 LINE",
"235 437 LINE"
);
},
{
closed = 1;
nodes = (
"235 39 LINE",
"302 39 LINE",
"302 -93 LINE",
"235 -93 LINE"
);
},
{
closed = 1;
nodes = (
"416 397 OFFCURVE",
"407 338 OFFCURVE",
"401 301 CURVE",
"390 301 OFFCURVE",
"375 303 OFFCURVE",
"364 306 CURVE",
"357 365 OFFCURVE",
"325 400 OFFCURVE",
"283 400 CURVE SMOOTH",
"232 400 OFFCURVE",
"189 362 OFFCURVE",
"189 235 CURVE SMOOTH",
"189 113 OFFCURVE",
"239 81 OFFCURVE",
"290 81 CURVE SMOOTH",
"327 81 OFFCURVE",
"377 94 OFFCURVE",
"418 110 CURVE",
"441 74 LINE",
"392 23 OFFCURVE",
"318 -13 OFFCURVE",
"244 -13 CURVE SMOOTH",
"144 -13 OFFCURVE",
"24 59 OFFCURVE",
"24 219 CURVE SMOOTH",
"24 379 OFFCURVE",
"147 474 OFFCURVE",
"286 474 CURVE SMOOTH",
"333 474 OFFCURVE",
"375 464 OFFCURVE",
"417 446 CURVE"
);
}
);
width = 448;
},
{
layerId = "2F11256F-FD75-4935-B7A9-D8816F9A9CE0";
paths = (
{
closed = 1;
nodes = (
"233 530 LINE",
"273 530 LINE",
"273 457 LINE",
"233 457 LINE"
);
},
{
closed = 1;
nodes = (
"229 2 LINE",
"269 2 LINE",
"269 -77 LINE",
"229 -77 LINE"
);
},
{
closed = 1;
nodes = (
"406 400 OFFCURVE",
"403 354 OFFCURVE",
"398 325 CURVE",
"392 326 OFFCURVE",
"387 327 OFFCURVE",
"382 328 CURVE",
"384 394 OFFCURVE",
"331 433 OFFCURVE",
"263 433 CURVE SMOOTH",
"165 433 OFFCURVE",
"100 349 OFFCURVE",
"100 221 CURVE SMOOTH",
"100 109 OFFCURVE",
"160 23 OFFCURVE",
"254 23 CURVE SMOOTH",
"314 23 OFFCURVE",
"353 38 OFFCURVE",
"400 68 CURVE",
"410 58 LINE",
"361 13 OFFCURVE",
"319 -12 OFFCURVE",
"246 -12 CURVE SMOOTH",
"133 -12 OFFCURVE",
"46 81 OFFCURVE",
"46 219 CURVE SMOOTH",
"46 366 OFFCURVE",
"136 465 OFFCURVE",
"269 465 CURVE SMOOTH",
"320 465 OFFCURVE",
"373 450 OFFCURVE",
"406 423 CURVE"
);
}
);
width = 423;
}
);
unicode = 00A2;
},
{
glyphname = sterling;
layers = (
{
layerId = "9482A91E-411F-4CFA-81A1-53DA6722202C";
paths = (
{
closed = 1;
nodes = (
"504 564 OFFCURVE",
"500 509 OFFCURVE",
"494 466 CURVE",
"444 466 LINE",
"436 516 OFFCURVE",
"404 551 OFFCURVE",
"349 551 CURVE SMOOTH",
"294 551 OFFCURVE",
"258 508 OFFCURVE",
"258 432 CURVE SMOOTH",
"258 387 OFFCURVE",
"280 320 OFFCURVE",
"280 271 CURVE SMOOTH",
"280 208 OFFCURVE",
"248 143 OFFCURVE",
"208 104 CURVE",
"247 123 OFFCURVE",
"283 131 OFFCURVE",
"321 131 CURVE SMOOTH",
"367 131 OFFCURVE",
"409 106 OFFCURVE",
"444 106 CURVE SMOOTH",
"478 106 OFFCURVE",
"504 132 OFFCURVE",
"504 181 CURVE",
"516 183 OFFCURVE",
"533 180 OFFCURVE",
"542 174 CURVE",
"542 174 OFFCURVE",
"546 154 OFFCURVE",
"546 127 CURVE SMOOTH",
"546 41 OFFCURVE",
"508 -14 OFFCURVE",
"409 -14 CURVE SMOOTH",
"315 -14 OFFCURVE",
"286 9 OFFCURVE",
"220 9 CURVE SMOOTH",
"193 9 OFFCURVE",
"124 5 OFFCURVE",
"75 -9 CURVE",
"65 -1 OFFCURVE",
"57 10 OFFCURVE",
"53 24 CURVE",
"117 76 OFFCURVE",
"145 127 OFFCURVE",
"145 207 CURVE SMOOTH",
"145 284 OFFCURVE",
"110 346 OFFCURVE",
"110 432 CURVE SMOOTH",
"110 565 OFFCURVE",
"218 663 OFFCURVE",
"352 663 CURVE SMOOTH",
"415 663 OFFCURVE",
"469 638 OFFCURVE",
"500 606 CURVE"
);
},
{
closed = 1;
nodes = (
"462 361 LINE",
"441 303 LINE",
"50 303 LINE",
"71 361 LINE"
);
}
);
width = 571;
},
{
layerId = "2F11256F-FD75-4935-B7A9-D8816F9A9CE0";
paths = (
{
closed = 1;
nodes = (
"395 558 OFFCURVE",
"392 484 OFFCURVE",
"388 472 CURVE",
"372 472 LINE",
"364 530 OFFCURVE",
"330 583 OFFCURVE",
"260 583 CURVE SMOOTH",
"190 583 OFFCURVE",
"142 535 OFFCURVE",
"142 441 CURVE SMOOTH",
"142 368 OFFCURVE",
"174 301 OFFCURVE",
"174 215 CURVE SMOOTH",
"174 141 OFFCURVE",
"151 76 OFFCURVE",
"107 31 CURVE",
"144 48 OFFCURVE",
"181 55 OFFCURVE",
"213 55 CURVE SMOOTH",
"271 55 OFFCURVE",
"308 30 OFFCURVE",
"361 30 CURVE SMOOTH",
"406 30 OFFCURVE",
"426 59 OFFCURVE",
"426 106 CURVE",
"432 107 OFFCURVE",
"440 105 OFFCURVE",
"445 103 CURVE",
"446 99 OFFCURVE",
"447 88 OFFCURVE",
"447 81 CURVE SMOOTH",
"447 31 OFFCURVE",
"415 -12 OFFCURVE",
"353 -12 CURVE SMOOTH",
"274 -12 OFFCURVE",
"262 13 OFFCURVE",
"202 13 CURVE SMOOTH",
"155 13 OFFCURVE",
"89 2 OFFCURVE",
"60 -12 CURVE",
"53 -9 OFFCURVE",
"48 -2 OFFCURVE",
"45 7 CURVE",
"101 52 OFFCURVE",
"124 138 OFFCURVE",
"124 211 CURVE SMOOTH",
"124 289 OFFCURVE",
"94 362 OFFCURVE",
"94 439 CURVE SMOOTH",
"94 551 OFFCURVE",
"160 613 OFFCURVE",
"260 613 CURVE SMOOTH",
"318 613 OFFCURVE",
"365 592 OFFCURVE",
"397 570 CURVE"
);
},
{
closed = 1;
nodes = (
"338 323 LINE",
"325 292 LINE",
"50 292 LINE",
"63 323 LINE"
);
}
);
width = 487;
}
);
unicode = 00A3;
},
{
glyphname = currency;
layers = (
{
layerId = "9482A91E-411F-4CFA-81A1-53DA6722202C";
paths = (
{
closed = 1;
nodes = (
"364 178 OFFCURVE",
"448 245 OFFCURVE",
"448 345 CURVE SMOOTH",
"448 445 OFFCURVE",
"364 513 OFFCURVE",
"268 513 CURVE SMOOTH",
"172 513 OFFCURVE",
"89 445 OFFCURVE",
"89 345 CURVE SMOOTH",
"89 245 OFFCURVE",
"172 178 OFFCURVE",
"268 178 CURVE SMOOTH"
);
},
{
closed = 1;
nodes = (
"298 452 OFFCURVE",
"319 422 OFFCURVE",
"319 346 CURVE SMOOTH",
"319 270 OFFCURVE",
"298 239 OFFCURVE",
"268 239 CURVE SMOOTH",
"238 239 OFFCURVE",
"217 270 OFFCURVE",
"217 346 CURVE SMOOTH",
"217 422 OFFCURVE",
"238 452 OFFCURVE",
"268 452 CURVE SMOOTH"
);
},
{
closed = 1;
nodes = (
"183 435 LINE",
"71 526 LINE",
"25 465 LINE",
"135 385 LINE"
);
},
{
closed = 1;
nodes = (
"512 465 LINE",
"466 526 LINE",
"354 435 LINE",
"402 385 LINE"
);
},
{
closed = 1;
nodes = (
"25 225 LINE",
"71 164 LINE",
"183 255 LINE",
"135 305 LINE"
);
},
{
closed = 1;
nodes = (
"354 255 LINE",
"466 164 LINE",
"512 225 LINE",
"402 305 LINE"
);
}
);
width = 537;
},
{
layerId = "2F11256F-FD75-4935-B7A9-D8816F9A9CE0";
paths = (
{
closed = 1;
nodes = (
"286 169 OFFCURVE",
"353 219 OFFCURVE",
"353 315 CURVE SMOOTH",
"353 410 OFFCURVE",
"286 462 OFFCURVE",
"215 462 CURVE SMOOTH",
"144 462 OFFCURVE",
"78 410 OFFCURVE",
"78 315 CURVE SMOOTH",
"78 219 OFFCURVE",
"144 169 OFFCURVE",
"215 169 CURVE SMOOTH"
);
},
{
closed = 1;
nodes = (
"262 436 OFFCURVE",
"311 404 OFFCURVE",
"311 316 CURVE SMOOTH",
"311 228 OFFCURVE",
"262 195 OFFCURVE",
"215 195 CURVE SMOOTH",
"168 195 OFFCURVE",
"120 228 OFFCURVE",
"120 316 CURVE SMOOTH",
"120 404 OFFCURVE",
"168 436 OFFCURVE",
"215 436 CURVE SMOOTH"
);
},
{
closed = 1;
nodes = (
"132 410 LINE",
"57 468 LINE",
"31 432 LINE",
"105 381 LINE"
);
},
{
closed = 1;
nodes = (
"400 432 LINE",
"374 468 LINE",
"299 410 LINE",
"326 381 LINE"
);
},
{
closed = 1;
nodes = (
"31 199 LINE",
"57 163 LINE",
"132 221 LINE",
"105 250 LINE"
);
},
{
closed = 1;
nodes = (
"299 221 LINE",
"374 163 LINE",
"400 199 LINE",
"326 250 LINE"
);
}
);
width = 432;
}
);
unicode = 00A4;
},
{
glyphname = yen;
layers = (
{
layerId = "9482A91E-411F-4CFA-81A1-53DA6722202C";
paths = (
{
closed = 1;
nodes = (
"266 589 OFFCURVE",
"256 562 OFFCURVE",
"277 524 CURVE SMOOTH",
"380 335 LINE",
"384 335 LINE",
"392 364 OFFCURVE",
"407 395 OFFCURVE",
"423 422 CURVE SMOOTH",
"541 626 LINE",
"551 577 LINE",
"514 588 OFFCURVE",
"503 594 OFFCURVE",
"466 595 CURVE",
"467 615 OFFCURVE",
"469 632 OFFCURVE",
"473 650 CURVE",
"669 650 LINE",
"668 631 OFFCURVE",
"666 615 OFFCURVE",
"661 595 CURVE",
"612 588 OFFCURVE",
"600 568 OFFCURVE",
"580 536 CURVE SMOOTH",
"426 279 LINE",
"426 64 LINE",
"449 57 OFFCURVE",
"478 57 OFFCURVE",
"504 57 CURVE",
"504 39 OFFCURVE",
"503 19 OFFCURVE",
"500 0 CURVE",
"177 0 LINE",
"176 20 OFFCURVE",
"177 38 OFFCURVE",
"180 57 CURVE",
"212 63 OFFCURVE",
"250 70 OFFCURVE",
"250 117 CURVE SMOOTH",
"250 279 LINE",
"42 626 LINE",
"99 574 LINE",
"63 591 OFFCURVE",
"40 596 OFFCURVE",
"10 595 CURVE",
"7 615 OFFCURVE",
"5 632 OFFCURVE",
"5 650 CURVE",
"326 650 LINE",
"330 631 OFFCURVE",
"333 615 OFFCURVE",
"333 595 CURVE"
);
},
{
closed = 1;
nodes = (
"549 326 LINE",
"539 272 LINE",
"118 272 LINE",
"128 326 LINE"
);
},
{
closed = 1;
nodes = (
"549 212 LINE",
"539 158 LINE",
"118 158 LINE",
"128 212 LINE"
);
}
);
width = 675;
},
{
layerId = "2F11256F-FD75-4935-B7A9-D8816F9A9CE0";
paths = (
{
closed = 1;
nodes = (
"115 574 OFFCURVE",
"105 565 OFFCURVE",
"123 532 CURVE SMOOTH",
"270 267 LINE",
"271 267 LINE",
"276 281 OFFCURVE",
"284 297 OFFCURVE",
"291 308 CURVE SMOOTH",
"464 580 LINE",
"468 559 LINE",
"443 570 OFFCURVE",
"424 577 OFFCURVE",
"391 579 CURVE",
"391 587 OFFCURVE",
"392 595 OFFCURVE",
"393 601 CURVE",
"541 601 LINE",
"542 594 OFFCURVE",
"541 587 OFFCURVE",
"539 579 CURVE",
"504 574 OFFCURVE",
"491 566 OFFCURVE",
"469 531 CURVE SMOOTH",
"288 245 LINE",
"288 38 LINE",
"312 28 OFFCURVE",
"331 23 OFFCURVE",
"356 21 CURVE",
"356 15 OFFCURVE",
"355 6 OFFCURVE",
"353 0 CURVE",
"174 0 LINE",
"173 7 OFFCURVE",
"174 16 OFFCURVE",
"176 21 CURVE",
"224 27 OFFCURVE",
"239 36 OFFCURVE",
"239 66 CURVE SMOOTH",
"239 232 LINE",
"34 593 LINE",
"82 554 LINE",
"58 566 OFFCURVE",
"22 576 OFFCURVE",
"-3 579 CURVE",
"-4 587 OFFCURVE",
"-6 595 OFFCURVE",
"-6 601 CURVE",
"164 601 LINE",
"167 594 OFFCURVE",
"168 587 OFFCURVE",
"168 579 CURVE"
);
},
{
closed = 1;
nodes = (
"434 267 LINE",
"428 235 LINE",
"97 235 LINE",
"103 267 LINE"
);
},
{
closed = 1;
nodes = (
"430 175 LINE",
"424 143 LINE",
"97 143 LINE",
"103 175 LINE"
);
}
);
width = 536;
}
);
unicode = 00A5;
},
{
glyphname = brokenbar;
layers = (
{
layerId = "9482A91E-411F-4CFA-81A1-53DA6722202C";
paths = (
{
closed = 1;
nodes = (
"85 243 LINE",
"85 -107 LINE",
"208 -107 LINE",
"208 243 LINE"
);
},
{
closed = 1;
nodes = (
"208 413 LINE",
"208 763 LINE",
"85 763 LINE",
"85 413 LINE"
);
}
);
width = 293;
},
{
layerId = "2F11256F-FD75-4935-B7A9-D8816F9A9CE0";
paths = (
{
closed = 1;
nodes = (
"145 265 LINE",
"145 -5 LINE",
"189 -5 LINE",
"189 265 LINE"
);
},
{
closed = 1;
nodes = (
"189 405 LINE",
"189 675 LINE",
"145 675 LINE",
"145 405 LINE"
);
}
);
width = 334;
}
);
unicode = 00A6;
},
{
glyphname = section;
layers = (
{
layerId = "9482A91E-411F-4CFA-81A1-53DA6722202C";
paths = (
{
closed = 1;
nodes = (
"296 342 LINE",
"233 333 OFFCURVE",
"193 297 OFFCURVE",
"193 236 CURVE SMOOTH",
"193 181 OFFCURVE",
"247 152 OFFCURVE",
"311 123 CURVE SMOOTH",
"398 83 OFFCURVE",
"501 43 OFFCURVE",
"501 -62 CURVE SMOOTH",
"501 -178 OFFCURVE",
"413 -242 OFFCURVE",
"292 -242 CURVE SMOOTH",
"244 -242 OFFCURVE",
"201 -235 OFFCURVE",
"152 -219 CURVE",
"150 -178 OFFCURVE",
"152 -128 OFFCURVE",
"160 -89 CURVE",
"183 -89 OFFCURVE",
"192 -90 OFFCURVE",
"217 -94 CURVE",
"214 -149 OFFCURVE",
"252 -175 OFFCURVE",
"292 -175 CURVE SMOOTH",
"332 -175 OFFCURVE",
"360 -151 OFFCURVE",
"360 -110 CURVE SMOOTH",
"360 -52 OFFCURVE",
"284 -27 OFFCURVE",
"209 10 CURVE SMOOTH",
"134 46 OFFCURVE",
"60 94 OFFCURVE",
"60 198 CURVE SMOOTH",
"60 298 OFFCURVE",
"144 354 OFFCURVE",
"232 375 CURVE"
);
},
{
closed = 1;
nodes = (
"495 599 OFFCURVE",
"493 549 OFFCURVE",
"485 510 CURVE",
"462 510 OFFCURVE",
"453 511 OFFCURVE",
"428 515 CURVE",
"431 570 OFFCURVE",
"395 596 OFFCURVE",
"358 596 CURVE SMOOTH",
"318 596 OFFCURVE",
"293 572 OFFCURVE",
"293 531 CURVE SMOOTH",
"293 473 OFFCURVE",
"371 448 OFFCURVE",
"447 410 CURVE SMOOTH",
"520 374 OFFCURVE",
"593 325 OFFCURVE",
"593 223 CURVE SMOOTH",
"593 123 OFFCURVE",
"509 67 OFFCURVE",
"421 46 CURVE",
"357 79 LINE",
"420 88 OFFCURVE",
"460 124 OFFCURVE",
"460 185 CURVE SMOOTH",
"460 242 OFFCURVE",
"401 272 OFFCURVE",
"335 302 CURVE SMOOTH",
"249 341 OFFCURVE",
"152 381 OFFCURVE",
"152 483 CURVE SMOOTH",
"152 589 OFFCURVE",
"242 663 OFFCURVE",
"358 663 CURVE SMOOTH",
"407 663 OFFCURVE",
"447 656 OFFCURVE",
"493 640 CURVE"
);
}
);
width = 653;
},
{
layerId = "2F11256F-FD75-4935-B7A9-D8816F9A9CE0";
paths = (
{
closed = 1;
nodes = (
"224 374 LINE",
"144 356 OFFCURVE",
"88 318 OFFCURVE",
"88 247 CURVE SMOOTH",
"88 197 OFFCURVE",
"109 175 OFFCURVE",
"202 109 CURVE SMOOTH",
"300 39 OFFCURVE",
"328 7 OFFCURVE",
"328 -41 CURVE SMOOTH",
"328 -103 OFFCURVE",
"270 -145 OFFCURVE",
"204 -145 CURVE SMOOTH",
"164 -145 OFFCURVE",
"129 -134 OFFCURVE",
"94 -115 CURVE",
"92 -88 OFFCURVE",
"94 -53 OFFCURVE",
"99 -28 CURVE",
"103 -28 OFFCURVE",
"109 -28 OFFCURVE",
"114 -29 CURVE",
"114 -79 OFFCURVE",
"157 -112 OFFCURVE",
"206 -113 CURVE SMOOTH",
"256 -114 OFFCURVE",
"279 -87 OFFCURVE",
"279 -51 CURVE SMOOTH",
"279 4 OFFCURVE",
"219 33 OFFCURVE",
"140 94 CURVE SMOOTH",
"79 141 OFFCURVE",
"40 172 OFFCURVE",
"40 240 CURVE SMOOTH",
"40 326 OFFCURVE",
"120 372 OFFCURVE",
"201 389 CURVE"
);
},
{
closed = 1;
nodes = (
"325 556 OFFCURVE",
"323 521 OFFCURVE",
"318 496 CURVE",
"314 496 OFFCURVE",
"308 496 OFFCURVE",
"303 497 CURVE",
"303 547 OFFCURVE",
"262 580 OFFCURVE",
"216 581 CURVE SMOOTH",
"166 582 OFFCURVE",
"143 555 OFFCURVE",
"143 519 CURVE SMOOTH",
"143 464 OFFCURVE",
"203 435 OFFCURVE",
"282 374 CURVE SMOOTH",
"343 327 OFFCURVE",
"382 296 OFFCURVE",
"382 228 CURVE SMOOTH",
"382 142 OFFCURVE",
"302 96 OFFCURVE",
"221 79 CURVE",
"198 94 LINE",
"278 112 OFFCURVE",
"334 150 OFFCURVE",
"334 221 CURVE SMOOTH",
"334 271 OFFCURVE",
"313 293 OFFCURVE",
"220 359 CURVE SMOOTH",
"122 429 OFFCURVE",
"94 461 OFFCURVE",
"94 509 CURVE SMOOTH",
"94 571 OFFCURVE",
"152 613 OFFCURVE",
"218 613 CURVE SMOOTH",
"258 613 OFFCURVE",
"288 602 OFFCURVE",
"323 583 CURVE"
);
}
);
width = 422;
}
);
unicode = 00A7;
},
{
glyphname = dieresis;
layers = (
{
anchors = (
{
name = _top;
position = "{163, 461}";
}
);
layerId = "9482A91E-411F-4CFA-81A1-53DA6722202C";
paths = (
{
closed = 1;
nodes = (
"138 545 OFFCURVE",
"108 514 OFFCURVE",
"73 514 CURVE SMOOTH",
"40 514 OFFCURVE",
"10 545 OFFCURVE",
"10 581 CURVE SMOOTH",
"10 618 OFFCURVE",
"40 649 OFFCURVE",
"73 649 CURVE SMOOTH",
"108 649 OFFCURVE",
"138 618 OFFCURVE",
"138 581 CURVE SMOOTH"
);
},
{
closed = 1;
nodes = (
"317 545 OFFCURVE",
"288 514 OFFCURVE",
"253 514 CURVE SMOOTH",
"219 514 OFFCURVE",
"190 545 OFFCURVE",
"190 581 CURVE SMOOTH",
"190 618 OFFCURVE",
"219 649 OFFCURVE",
"253 649 CURVE SMOOTH",
"288 649 OFFCURVE",
"317 618 OFFCURVE",
"317 581 CURVE SMOOTH"
);
}
);
width = 327;
},
{
anchors = (
{
name = _top;
position = "{107, 453}";
}
);
layerId = "2F11256F-FD75-4935-B7A9-D8816F9A9CE0";
paths = (
{
closed = 1;
nodes = (
"83 534 OFFCURVE",
"67 518 OFFCURVE",
"46 518 CURVE SMOOTH",
"25 518 OFFCURVE",
"10 534 OFFCURVE",
"10 555 CURVE SMOOTH",
"10 576 OFFCURVE",
"25 592 OFFCURVE",
"46 592 CURVE SMOOTH",
"67 592 OFFCURVE",
"83 576 OFFCURVE",
"83 555 CURVE SMOOTH"
);
},
{
closed = 1;
nodes = (
"203 534 OFFCURVE",
"187 518 OFFCURVE",
"166 518 CURVE SMOOTH",
"145 518 OFFCURVE",
"130 534 OFFCURVE",
"130 555 CURVE SMOOTH",
"130 576 OFFCURVE",
"145 592 OFFCURVE",
"166 592 CURVE SMOOTH",
"187 592 OFFCURVE",
"203 576 OFFCURVE",
"203 555 CURVE SMOOTH"
);
}
);
width = 213;
}
);
unicode = 00A8;
},
{
glyphname = copyright;
layers = (
{
anchors = (
{
name = bottom;
position = "{362, 0}";
},
{
name = top;
position = "{404, 598}";
}
);
layerId = "9482A91E-411F-4CFA-81A1-53DA6722202C";
paths = (
{
closed = 1;
nodes = (
"124 128 OFFCURVE",
"252 28 OFFCURVE",
"411 28 CURVE SMOOTH",
"570 28 OFFCURVE",
"696 128 OFFCURVE",
"696 323 CURVE SMOOTH",
"696 518 OFFCURVE",
"570 618 OFFCURVE",
"411 618 CURVE SMOOTH",
"252 618 OFFCURVE",
"124 518 OFFCURVE",
"124 323 CURVE SMOOTH"
);
},
{
closed = 1;
nodes = (
"760 105 OFFCURVE",
"606 -27 OFFCURVE",
"411 -27 CURVE SMOOTH",
"215 -27 OFFCURVE",
"60 105 OFFCURVE",
"60 323 CURVE SMOOTH",
"60 541 OFFCURVE",
"215 673 OFFCURVE",
"411 673 CURVE SMOOTH",
"606 673 OFFCURVE",
"760 541 OFFCURVE",
"760 323 CURVE SMOOTH"
);
},
{
closed = 1;
nodes = (
"551 460 OFFCURVE",
"541 417 OFFCURVE",
"527 376 CURVE",
"512 373 OFFCURVE",
"498 373 OFFCURVE",
"483 376 CURVE",
"481 427 OFFCURVE",
"477 457 OFFCURVE",
"427 457 CURVE SMOOTH",
"386 457 OFFCURVE",
"342 401 OFFCURVE",
"342 329 CURVE SMOOTH",
"342 235 OFFCURVE",
"389 200 OFFCURVE",
"448 200 CURVE SMOOTH",
"480 200 OFFCURVE",
"503 210 OFFCURVE",
"530 229 CURVE",
"567 189 LINE",
"533 148 OFFCURVE",
"481 114 OFFCURVE",
"414 114 CURVE SMOOTH",
"314 114 OFFCURVE",
"211 185 OFFCURVE",
"211 319 CURVE SMOOTH",
"211 451 OFFCURVE",
"314 532 OFFCURVE",
"436 532 CURVE SMOOTH",
"481 532 OFFCURVE",
"527 518 OFFCURVE",
"555 505 CURVE"
);
}
);
width = 820;
},
{
anchors = (
{
name = bottom;
position = "{266, 0}";
},
{
name = top;
position = "{313, 599}";
}
);
layerId = "2F11256F-FD75-4935-B7A9-D8816F9A9CE0";
paths = (
{
closed = 1;
nodes = (
"89 126 OFFCURVE",
"220 18 OFFCURVE",
"379 18 CURVE SMOOTH",
"538 18 OFFCURVE",
"669 126 OFFCURVE",
"669 315 CURVE SMOOTH",
"669 504 OFFCURVE",
"538 612 OFFCURVE",
"379 612 CURVE SMOOTH",
"220 612 OFFCURVE",
"89 504 OFFCURVE",
"89 315 CURVE SMOOTH"
);
},
{
closed = 1;
nodes = (
"708 113 OFFCURVE",
"566 -12 OFFCURVE",
"379 -12 CURVE SMOOTH",
"192 -12 OFFCURVE",
"50 113 OFFCURVE",
"50 315 CURVE SMOOTH",
"50 517 OFFCURVE",
"192 642 OFFCURVE",
"379 642 CURVE SMOOTH",
"566 642 OFFCURVE",
"708 517 OFFCURVE",
"708 315 CURVE SMOOTH"
);
},
{
closed = 1;
nodes = (
"501 492 OFFCURVE",
"497 458 OFFCURVE",
"491 437 CURVE",
"487 435 OFFCURVE",
"481 435 OFFCURVE",
"476 435 CURVE",
"476 482 OFFCURVE",
"441 503 OFFCURVE",
"400 503 CURVE SMOOTH",
"301 503 OFFCURVE",
"251 430 OFFCURVE",
"251 317 CURVE SMOOTH",
"251 209 OFFCURVE",
"304 142 OFFCURVE",
"387 142 CURVE SMOOTH",
"428 142 OFFCURVE",
"460 152 OFFCURVE",
"498 177 CURVE",
"512 165 LINE",
"479 131 OFFCURVE",
"438 109 OFFCURVE",
"381 109 CURVE SMOOTH",
"280 109 OFFCURVE",
"205 189 OFFCURVE",
"205 317 CURVE SMOOTH",
"205 443 OFFCURVE",
"285 533 OFFCURVE",
"399 533 CURVE SMOOTH",
"438 533 OFFCURVE",
"476 523 OFFCURVE",
"501 512 CURVE"
);
}
);
width = 758;
}
);
unicode = 00A9;
},
{
glyphname = ordfeminine;
layers = (
{
layerId = "9482A91E-411F-4CFA-81A1-53DA6722202C";
paths = (
{
closed = 1;
nodes = (
"211 481 LINE",
"163 488 OFFCURVE",
"132 460 OFFCURVE",
"132 426 CURVE SMOOTH",
"132 400 OFFCURVE",
"145 386 OFFCURVE",
"161 386 CURVE SMOOTH",
"179 386 OFFCURVE",
"193 393 OFFCURVE",
"207 417 CURVE",
"209 372 LINE",
"186 338 OFFCURVE",
"160 320 OFFCURVE",
"110 320 CURVE SMOOTH",
"55 320 OFFCURVE",
"17 355 OFFCURVE",
"17 411 CURVE SMOOTH",
"17 493 OFFCURVE",
"113 533 OFFCURVE",
"209 522 CURVE"
);
},
{
closed = 1;
nodes = (
"305 419 LINE SMOOTH",
"305 392 OFFCURVE",
"316 384 OFFCURVE",
"326 384 CURVE SMOOTH",
"335 384 OFFCURVE",
"341 386 OFFCURVE",
"352 389 CURVE",
"362 365 LINE",
"341 340 OFFCURVE",
"320 320 OFFCURVE",
"281 320 CURVE SMOOTH",
"240 320 OFFCURVE",
"197 340 OFFCURVE",
"197 379 CURVE SMOOTH",
"197 540 LINE SMOOTH",
"197 573 OFFCURVE",
"178 586 OFFCURVE",
"144 586 CURVE SMOOTH",
"114 586 OFFCURVE",
"90 581 OFFCURVE",
"63 572 CURVE",
"41 605 LINE",
"83 643 OFFCURVE",
"129 661 OFFCURVE",
"188 661 CURVE SMOOTH",
"267 661 OFFCURVE",
"305 617 OFFCURVE",
"305 543 CURVE SMOOTH"
);
}
);
width = 357;
},
{
layerId = "2F11256F-FD75-4935-B7A9-D8816F9A9CE0";
paths = (
{
closed = 1;
nodes = (
"218 428 LINE",
"144 431 OFFCURVE",
"72 417 OFFCURVE",
"72 351 CURVE SMOOTH",
"72 326 OFFCURVE",
"89 302 OFFCURVE",
"130 302 CURVE SMOOTH",
"167 302 OFFCURVE",
"198 314 OFFCURVE",
"229 348 CURVE",
"231 329 LINE",
"201 297 OFFCURVE",
"167 272 OFFCURVE",
"122 272 CURVE SMOOTH",
"75 272 OFFCURVE",
"35 301 OFFCURVE",
"35 351 CURVE SMOOTH",
"35 435 OFFCURVE",
"134 454 OFFCURVE",
"219 445 CURVE"
);
},
{
closed = 1;
nodes = (
"251 340 LINE SMOOTH",
"251 312 OFFCURVE",
"257 301 OFFCURVE",
"274 301 CURVE SMOOTH",
"281 301 OFFCURVE",
"290 302 OFFCURVE",
"300 305 CURVE",
"302 300 LINE",
"292 285 OFFCURVE",
"274 272 OFFCURVE",
"257 272 CURVE SMOOTH",
"233 272 OFFCURVE",
"216 290 OFFCURVE",
"216 324 CURVE",
"216 510 LINE SMOOTH",
"216 552 OFFCURVE",
"201 575 OFFCURVE",
"151 575 CURVE SMOOTH",
"121 575 OFFCURVE",
"90 568 OFFCURVE",
"60 551 CURVE",
"56 561 LINE",
"86 592 OFFCURVE",
"123 606 OFFCURVE",
"161 606 CURVE SMOOTH",
"219 606 OFFCURVE",
"251 573 OFFCURVE",
"251 517 CURVE SMOOTH"
);
}
);
width = 326;
}
);
unicode = 00AA;
},
{
glyphname = guillemotleft;
layers = (
{
layerId = "9482A91E-411F-4CFA-81A1-53DA6722202C";
paths = (
{
closed = 1;
nodes = (
"115 306 LINE",
"299 96 LINE",
"355 126 LINE",
"240 306 LINE",
"355 486 LINE",
"299 514 LINE"
);
},
{
closed = 1;
nodes = (
"358 306 LINE",
"542 96 LINE",
"598 126 LINE",
"483 306 LINE",
"598 486 LINE",
"542 514 LINE"
);
}
);
width = 716;
},
{
layerId = "2F11256F-FD75-4935-B7A9-D8816F9A9CE0";
paths = (
{
closed = 1;
nodes = (
"124 331 LINE",
"278 155 LINE",
"306 170 LINE",
"178 331 LINE",
"306 492 LINE",
"278 506 LINE"
);
},
{
closed = 1;
nodes = (
"263 331 LINE",
"417 155 LINE",
"444 170 LINE",
"317 331 LINE",
"444 492 LINE",
"417 506 LINE"
);
}
);
width = 574;
}
);
unicode = 00AB;
},
{
glyphname = logicalnot;
layers = (
{
layerId = "9482A91E-411F-4CFA-81A1-53DA6722202C";
paths = (
{
closed = 1;
nodes = (
"619 200 LINE",
"543 200 LINE",
"543 329 LINE",
"78 329 LINE",
"78 443 LINE",
"619 443 LINE"
);
}
);
width = 709;
},
{
layerId = "2F11256F-FD75-4935-B7A9-D8816F9A9CE0";
paths = (
{
closed = 1;
nodes = (
"482 236 LINE",
"445 236 LINE",
"445 351 LINE",
"73 351 LINE",
"73 395 LINE",
"482 395 LINE"
);
}
);
width = 562;
}
);
unicode = 00AC;
},
{
glyphname = registered;
layers = (
{
anchors = (
{
name = bottom;
position = "{354, 139}";
},
{
name = top;
position = "{354, 481}";
}
);
layerId = "9482A91E-411F-4CFA-81A1-53DA6722202C";
paths = (
{
closed = 1;
nodes = (
"124 128 OFFCURVE",
"252 28 OFFCURVE",
"411 28 CURVE SMOOTH",
"570 28 OFFCURVE",
"696 128 OFFCURVE",
"696 323 CURVE SMOOTH",
"696 518 OFFCURVE",
"570 618 OFFCURVE",
"411 618 CURVE SMOOTH",
"252 618 OFFCURVE",
"124 518 OFFCURVE",
"124 323 CURVE SMOOTH"
);
},
{
closed = 1;
nodes = (
"760 105 OFFCURVE",
"606 -27 OFFCURVE",
"411 -27 CURVE SMOOTH",
"215 -27 OFFCURVE",
"60 105 OFFCURVE",
"60 323 CURVE SMOOTH",
"60 541 OFFCURVE",
"215 673 OFFCURVE",
"411 673 CURVE SMOOTH",
"606 673 OFFCURVE",
"760 541 OFFCURVE",
"760 323 CURVE SMOOTH"
);
},
{
closed = 1;
nodes = (
"555 345 OFFCURVE",
"503 300 OFFCURVE",
"418 300 CURVE SMOOTH",
"352 300 LINE",
"349 309 OFFCURVE",
"349 335 OFFCURVE",
"349 345 CURVE",
"403 345 LINE SMOOTH",
"440 345 OFFCURVE",
"461 362 OFFCURVE",
"461 409 CURVE SMOOTH",
"461 457 OFFCURVE",
"446 473 OFFCURVE",
"403 473 CURVE SMOOTH",
"357 473 LINE",
"371 492 LINE",
"371 175 LINE",
"369 195 LINE",
"383 189 OFFCURVE",
"404 185 OFFCURVE",
"419 184 CURVE",
"420 174 OFFCURVE",
"418 158 OFFCURVE",
"417 148 CURVE",
"245 148 LINE",
"245 158 OFFCURVE",
"245 174 OFFCURVE",
"249 184 CURVE",
"268 187 OFFCURVE",
"283 193 OFFCURVE",
"283 218 CURVE SMOOTH",
"283 476 LINE",
"284 471 LINE",
"275 476 OFFCURVE",
"255 477 OFFCURVE",
"244 477 CURVE",
"244 487 OFFCURVE",
"245 510 OFFCURVE",
"247 519 CURVE",
"418 519 LINE SMOOTH",
"503 519 OFFCURVE",
"555 474 OFFCURVE",
"555 409 CURVE SMOOTH"
);
},
{
closed = 1;
nodes = (
"421 281 LINE",
"416 294 OFFCURVE",
"410 300 OFFCURVE",
"397 300 CURVE",
"456 318 LINE",
"488 318 OFFCURVE",
"506 297 OFFCURVE",
"521 270 CURVE",
"545 221 LINE SMOOTH",
"559 191 OFFCURVE",
"571 184 OFFCURVE",
"592 184 CURVE",
"592 172 OFFCURVE",
"591 159 OFFCURVE",
"589 148 CURVE",
"482 148 LINE"
);
}
);
width = 820;
},
{
anchors = (
{
name = bottom;
position = "{401, 124}";
},
{
name = top;
position = "{396, 523}";
}
);
layerId = "2F11256F-FD75-4935-B7A9-D8816F9A9CE0";
paths = (
{
closed = 1;
nodes = (
"97 126 OFFCURVE",
"222 18 OFFCURVE",
"373 18 CURVE SMOOTH",
"524 18 OFFCURVE",
"649 126 OFFCURVE",
"649 315 CURVE SMOOTH",
"649 504 OFFCURVE",
"524 612 OFFCURVE",
"373 612 CURVE SMOOTH",
"222 612 OFFCURVE",
"97 504 OFFCURVE",
"97 315 CURVE SMOOTH"
);
},
{
closed = 1;
nodes = (
"686 113 OFFCURVE",
"551 -12 OFFCURVE",
"373 -12 CURVE SMOOTH",
"195 -12 OFFCURVE",
"60 113 OFFCURVE",
"60 315 CURVE SMOOTH",
"60 517 OFFCURVE",
"195 642 OFFCURVE",
"373 642 CURVE SMOOTH",
"551 642 OFFCURVE",
"686 517 OFFCURVE",
"686 315 CURVE SMOOTH"
);
},
{
closed = 1;
nodes = (
"504 353 OFFCURVE",
"456 296 OFFCURVE",
"371 296 CURVE SMOOTH",
"292 296 LINE",
"290 301 OFFCURVE",
"289 316 OFFCURVE",
"289 323 CURVE",
"362 323 LINE SMOOTH",
"434 323 OFFCURVE",
"466 359 OFFCURVE",
"466 410 CURVE SMOOTH",
"466 463 OFFCURVE",
"436 498 OFFCURVE",
"362 498 CURVE SMOOTH",
"298 498 LINE",
"306 511 LINE",
"306 143 LINE",
"300 160 LINE",
"324 150 OFFCURVE",
"347 145 OFFCURVE",
"372 144 CURVE",
"373 139 OFFCURVE",
"372 128 OFFCURVE",
"371 124 CURVE",
"230 124 LINE",
"229 129 OFFCURVE",
"230 141 OFFCURVE",
"232 144 CURVE",
"264 148 OFFCURVE",
"274 154 OFFCURVE",
"274 174 CURVE SMOOTH",
"274 507 LINE",
"290 491 LINE",
"266 504 OFFCURVE",
"250 510 OFFCURVE",
"228 511 CURVE",
"228 515 OFFCURVE",
"228 522 OFFCURVE",
"230 525 CURVE",
"371 525 LINE SMOOTH",
"456 525 OFFCURVE",
"504 469 OFFCURVE",
"504 410 CURVE SMOOTH"
);
},
{
closed = 1;
nodes = (
"382 270 LINE",
"374 283 OFFCURVE",
"366 296 OFFCURVE",
"341 296 CURVE",
"368 305 LINE",
"398 303 OFFCURVE",
"404 290 OFFCURVE",
"416 273 CURVE SMOOTH",
"481 179 LINE SMOOTH",
"502 149 OFFCURVE",
"519 143 OFFCURVE",
"545 143 CURVE",
"545 139 OFFCURVE",
"545 129 OFFCURVE",
"544 124 CURVE",
"479 124 LINE"
);
}
);
width = 746;
}
);
unicode = 00AE;
},
{
glyphname = macron;
layers = (
{
anchors = (
{
name = _top;
position = "{136, 461}";
}
);
layerId = "9482A91E-411F-4CFA-81A1-53DA6722202C";
paths = (
{
closed = 1;
nodes = (
"10 524 LINE",
"261 524 LINE",
"261 578 LINE",
"10 578 LINE"
);
}
);
width = 271;
},
{
anchors = (
{
name = _top;
position = "{121, 453}";
}
);
layerId = "2F11256F-FD75-4935-B7A9-D8816F9A9CE0";
paths = (
{
closed = 1;
nodes = (
"10 521 LINE",
"231 521 LINE",
"231 551 LINE",
"10 551 LINE"
);
}
);
width = 241;
}
);
unicode = 00AF;
},
{
glyphname = degree;
layers = (
{
layerId = "9482A91E-411F-4CFA-81A1-53DA6722202C";
paths = (
{
closed = 1;
nodes = (
"245 408 OFFCURVE",
"311 455 OFFCURVE",
"311 545 CURVE SMOOTH",
"311 635 OFFCURVE",
"245 683 OFFCURVE",
"170 683 CURVE SMOOTH",
"95 683 OFFCURVE",
"30 635 OFFCURVE",
"30 545 CURVE SMOOTH",
"30 455 OFFCURVE",
"95 408 OFFCURVE",
"170 408 CURVE SMOOTH"
);
},
{
closed = 1;
nodes = (
"194 620 OFFCURVE",
"215 600 OFFCURVE",
"215 546 CURVE SMOOTH",
"215 492 OFFCURVE",
"194 471 OFFCURVE",
"170 471 CURVE SMOOTH",
"146 471 OFFCURVE",
"126 492 OFFCURVE",
"126 546 CURVE SMOOTH",
"126 600 OFFCURVE",
"146 620 OFFCURVE",
"170 620 CURVE SMOOTH"
);
}
);
width = 341;
},
{
layerId = "2F11256F-FD75-4935-B7A9-D8816F9A9CE0";
paths = (
{
closed = 1;
nodes = (
"216 393 OFFCURVE",
"269 435 OFFCURVE",
"269 515 CURVE SMOOTH",
"269 595 OFFCURVE",
"216 638 OFFCURVE",
"149 638 CURVE SMOOTH",
"82 638 OFFCURVE",
"30 595 OFFCURVE",
"30 515 CURVE SMOOTH",
"30 435 OFFCURVE",
"82 393 OFFCURVE",
"149 393 CURVE SMOOTH"
);
},
{
closed = 1;
nodes = (
"187 612 OFFCURVE",
"220 586 OFFCURVE",
"220 516 CURVE SMOOTH",
"220 446 OFFCURVE",
"187 419 OFFCURVE",
"149 419 CURVE SMOOTH",
"111 419 OFFCURVE",
"79 446 OFFCURVE",
"79 516 CURVE SMOOTH",
"79 586 OFFCURVE",
"111 612 OFFCURVE",
"149 612 CURVE SMOOTH"
);
}
);
width = 299;
}
);
unicode = 00B0;
},
{
glyphname = plusminus;
layers = (
{
layerId = "9482A91E-411F-4CFA-81A1-53DA6722202C";
paths = (
{
closed = 1;
nodes = (
"528 156 LINE",
"528 61 LINE",
"55 61 LINE",
"55 156 LINE"
);
},
{
closed = 1;
nodes = (
"528 447 LINE",
"339 447 LINE",
"339 596 LINE",
"244 596 LINE",
"244 447 LINE",
"55 447 LINE",
"55 352 LINE",
"244 352 LINE",
"244 203 LINE",
"339 203 LINE",
"339 352 LINE",
"528 352 LINE"
);
}
);
width = 583;
},
{
layerId = "2F11256F-FD75-4935-B7A9-D8816F9A9CE0";
paths = (
{
closed = 1;
nodes = (
"485 127 LINE",
"485 87 LINE",
"45 87 LINE",
"45 127 LINE"
);
},
{
closed = 1;
nodes = (
"485 392 LINE",
"285 392 LINE",
"285 552 LINE",
"245 552 LINE",
"245 392 LINE",
"45 392 LINE",
"45 352 LINE",
"245 352 LINE",
"245 192 LINE",
"285 192 LINE",
"285 352 LINE",
"485 352 LINE"
);
}
);
width = 574;
}
);
unicode = 00B1;
},
{
glyphname = twosuperior;
layers = (
{
layerId = "9482A91E-411F-4CFA-81A1-53DA6722202C";
paths = (
{
closed = 1;
nodes = (
"50 588 OFFCURVE",
"50 564 OFFCURVE",
"50 539 CURVE",
"56 538 OFFCURVE",
"74 539 OFFCURVE",
"80 539 CURVE",
"86 570 OFFCURVE",
"104 585 OFFCURVE",
"126 585 CURVE SMOOTH",
"150 585 OFFCURVE",
"167 566 OFFCURVE",
"167 538 CURVE SMOOTH",
"167 484 OFFCURVE",
"134 450 OFFCURVE",
"40 351 CURVE",
"40 342 OFFCURVE",
"42 319 OFFCURVE",
"46 298 CURVE",
"245 298 LINE",
"257 333 OFFCURVE",
"259 371 OFFCURVE",
"259 402 CURVE",
"254 406 OFFCURVE",
"243 406 OFFCURVE",
"238 406 CURVE",
"230 370 OFFCURVE",
"218 361 OFFCURVE",
"194 361 CURVE SMOOTH",
"74 361 LINE",
"90 342 LINE",
"213 452 OFFCURVE",
"253 486 OFFCURVE",
"253 546 CURVE SMOOTH",
"253 599 OFFCURVE",
"216 642 OFFCURVE",
"148 642 CURVE SMOOTH",
"112 642 OFFCURVE",
"79 632 OFFCURVE",
"53 613 CURVE"
);
}
);
width = 304;
},
{
layerId = "2F11256F-FD75-4935-B7A9-D8816F9A9CE0";
paths = (
{
closed = 1;
nodes = (
"53 565 OFFCURVE",
"51 540 OFFCURVE",
"51 524 CURVE",
"56 523 OFFCURVE",
"60 522 OFFCURVE",
"64 522 CURVE",
"74 558 OFFCURVE",
"103 573 OFFCURVE",
"131 573 CURVE SMOOTH",
"164 573 OFFCURVE",
"187 549 OFFCURVE",
"187 513 CURVE SMOOTH",
"187 472 OFFCURVE",
"169 443 OFFCURVE",
"40 309 CURVE",
"40 303 OFFCURVE",
"42 287 OFFCURVE",
"44 281 CURVE",
"218 281 LINE",
"222 304 OFFCURVE",
"223 342 OFFCURVE",
"223 364 CURVE",
"219 366 OFFCURVE",
"212 366 OFFCURVE",
"209 366 CURVE",
"203 328 OFFCURVE",
"193 313 OFFCURVE",
"155 313 CURVE SMOOTH",
"56 313 LINE",
"65 307 LINE",
"195 431 OFFCURVE",
"226 462 OFFCURVE",
"226 517 CURVE SMOOTH",
"226 572 OFFCURVE",
"182 605 OFFCURVE",
"132 605 CURVE SMOOTH",
"106 605 OFFCURVE",
"78 597 OFFCURVE",
"56 580 CURVE"
);
}
);
width = 266;
}
);
unicode = 00B2;
},
